<svg xmlns="http://www.w3.org/2000/svg" width="33.512" height="33.512" viewBox="0 0 33.512 33.512">
  <g id="グループ_535" data-name="グループ 535" transform="translate(-832 -2287)">
    <g id="グループ_526" data-name="グループ 526" transform="translate(832 2287)">
      <circle id="楕円形_93" data-name="楕円形 93" cx="16.756" cy="16.756" r="16.756" transform="translate(0 0)" fill="#46b755"/>
      <g id="グループ_525" data-name="グループ 525" transform="translate(6.293 7.709)">
        <g id="グループ_524" data-name="グループ 524">
          <path id="パス_471" data-name="パス 471" d="M557.979,645.5a12.471,12.471,0,0,1,5.964,1.378,8.657,8.657,0,0,1,4.2,4.414,6.745,6.745,0,0,1-.307,5.863,10.743,10.743,0,0,1-2.794,3.167A38.8,38.8,0,0,1,560.034,664c-.534.323-1.1.6-1.656.88a1.872,1.872,0,0,1-.466.154c-.441.092-.651-.1-.6-.542.03-.265.085-.527.12-.792a4.18,4.18,0,0,0,.053-.581.83.83,0,0,0-.811-.937,13.109,13.109,0,0,1-3.437-.929,9.016,9.016,0,0,1-4.935-4.711,6.678,6.678,0,0,1,.048-5.449,8.547,8.547,0,0,1,3.58-3.911A11.872,11.872,0,0,1,557.979,645.5Zm.257,8.137.092-.026c.063.076.128.15.187.23q.889,1.2,1.775,2.4a.512.512,0,0,0,.62.209.484.484,0,0,0,.325-.533c0-1.285,0-2.569,0-3.854,0-.382-.2-.6-.519-.592-.3,0-.495.22-.5.58,0,.648,0,1.295,0,1.942,0,.1-.017.2-.034.392-.131-.149-.2-.219-.262-.3q-.855-1.149-1.706-2.3a.56.56,0,0,0-.652-.283c-.3.091-.371.313-.37.6.006,1.254,0,2.508,0,3.761,0,.4.189.622.523.617.3,0,.5-.237.5-.615,0-.627,0-1.254,0-1.881C558.215,653.868,558.228,653.75,558.235,653.633Zm3.812.361c0,.647-.008,1.295,0,1.942.006.382.149.544.481.549q1.032.015,2.065,0a.5.5,0,0,0,.516-.5.472.472,0,0,0-.525-.511c-.287-.01-.576,0-.863,0-.694-.015-.647.148-.649-.7,0-.2.079-.27.275-.266q.632.013,1.264,0a.508.508,0,0,0,.5-.514.472.472,0,0,0-.5-.5c-.3-.009-.6,0-.894,0-.72-.008-.634.084-.646-.675,0-.211.066-.294.283-.287.39.013.781.009,1.171,0a.535.535,0,0,0,.589-.533c0-.316-.2-.487-.576-.49-.616-.005-1.233,0-1.85,0-.5,0-.635.127-.642.64C562.041,652.761,562.048,653.377,562.047,653.994Zm-10.354-.022c0,.647-.006,1.295,0,1.942.005.407.16.56.564.564.657.008,1.315.01,1.972,0a.5.5,0,0,0,.52-.529.458.458,0,0,0-.514-.482c-.38-.007-.761-.018-1.14,0-.29.014-.4-.08-.39-.383.016-.986.009-1.972,0-2.959,0-.428-.171-.624-.51-.626s-.5.192-.507.621C551.691,652.739,551.693,653.356,551.693,653.972Zm4.625.03h0c0-.627,0-1.254,0-1.88a.92.92,0,0,0-.054-.361.453.453,0,0,0-.56-.265.515.515,0,0,0-.411.57q0,1.9,0,3.792c0,.379.209.625.525.626s.5-.2.5-.6C556.322,655.256,556.319,654.629,556.319,654Z" transform="translate(-547.743 -645.496)" fill="#fff"/>
          <path id="パス_472" data-name="パス 472" d="M701.868,744.484c-.007.117-.02.234-.02.352,0,.627,0,1.254,0,1.881,0,.378-.194.611-.5.616-.334.005-.523-.214-.523-.617,0-1.254,0-2.508,0-3.761,0-.286.075-.508.37-.6a.56.56,0,0,1,.652.283q.851,1.151,1.706,2.3c.059.079.13.15.262.3.017-.189.033-.291.034-.392,0-.647,0-1.295,0-1.942,0-.36.193-.575.5-.58.321-.005.518.209.519.592,0,1.285,0,2.569,0,3.854a.484.484,0,0,1-.325.533.511.511,0,0,1-.62-.209q-.886-1.2-1.775-2.4c-.059-.079-.124-.153-.187-.23Z" transform="translate(-691.376 -736.346)" fill="#46b755"/>
          <path id="パス_473" data-name="パス 473" d="M779.5,745.327c0-.616-.006-1.233,0-1.85.007-.513.142-.639.642-.639.617,0,1.233,0,1.85,0,.381,0,.573.174.576.49a.534.534,0,0,1-.589.533c-.39.009-.781.012-1.171,0-.217-.007-.287.076-.283.287.012.759-.074.667.646.674.3,0,.6-.007.894,0a.472.472,0,0,1,.5.5.508.508,0,0,1-.5.514q-.632.015-1.264,0c-.2,0-.276.064-.275.266,0,.846-.044.683.649.7.287.006.576-.007.863,0a.472.472,0,0,1,.525.511.5.5,0,0,1-.516.5q-1.033.016-2.065,0c-.332,0-.474-.167-.481-.549C779.493,746.622,779.5,745.975,779.5,745.327Z" transform="translate(-765.196 -736.829)" fill="#46b755"/>
          <path id="パス_474" data-name="パス 474" d="M611.722,745.3c0-.616,0-1.233,0-1.849,0-.428.164-.623.507-.621s.507.2.51.626c.006.986.014,1.973,0,2.959,0,.3.1.4.39.383.379-.018.76-.008,1.14,0a.458.458,0,0,1,.514.482.5.5,0,0,1-.52.529c-.657.008-1.315.006-1.972,0-.4,0-.559-.158-.564-.565C611.716,746.593,611.722,745.946,611.722,745.3Z" transform="translate(-607.772 -736.822)" fill="#46b755"/>
          <path id="パス_475" data-name="パス 475" d="M671.056,744.963c0,.627,0,1.254,0,1.881,0,.4-.175.6-.5.6s-.525-.247-.525-.626q0-1.9,0-3.792a.515.515,0,0,1,.411-.57.452.452,0,0,1,.56.265.917.917,0,0,1,.054.36c.005.627,0,1.254,0,1.881Z" transform="translate(-662.481 -736.457)" fill="#46b755"/>
        </g>
      </g>
    </g>
  </g>
</svg>
