<svg xmlns="http://www.w3.org/2000/svg" width="102.891" height="80.612" viewBox="0 0 102.891 80.612">
  <g id="グループ_38" data-name="グループ 38" transform="translate(0)">
    <path id="パス_21" data-name="パス 21" d="M-1612.342,1027.606c-2.674,5.658-1.5,10.287,1.607,15.1l-9.524-.6-.03.233c-1.245,2.355,9.422,2.03,14.155,2.909,3.423.636,5.972,1.906,8.9,3.02,6.672,2.538,9.965,7.507,10.62,14.556a94.93,94.93,0,0,1-1.292,27.212,8.011,8.011,0,0,1-5.627,6.521,46.039,46.039,0,0,1-27.809.833,12.9,12.9,0,0,1-7.769-6.455c-8.275-14.58-11.2-30.187-7.441-46.576,2.166-9.439,7.665-14.915,18.41-16.65A41.785,41.785,0,0,1-1612.342,1027.606Z" transform="translate(1638.171 -1018.538)" fill="#084184"/>
    <path id="パス_22" data-name="パス 22" d="M-1546.481,1040.364c-1.067,13.651-2.1,26.927-3.164,40.5a2.274,2.274,0,0,1-2.167,2.094c-5.13.216-9.946.492-15.421.7a74.211,74.211,0,0,0,.962-7.639c.5-10.754-.016-11.725-.981-19.5-.8-6.483-2.31-10.905-7.416-13.845-3.045-1.754-6.27-3.193-9.521-4.828l11.143-5.637a.443.443,0,0,0,.222-.533l-.006-.02a1.41,1.41,0,0,0-1.965-.823c-2.164,1.073-4.326,2.151-6.508,3.187a21.193,21.193,0,0,1-2.934,1.125c-5.72,1.734-6.476,1.99-8.686-1.854a10.077,10.077,0,0,1,1.777-12.328,27.571,27.571,0,0,1,19.34-8.219c7.355-.283,11.573,4.459,14.627,10.422a30.666,30.666,0,0,1,2.729,7.067c.96,4.244,2.756,7.546,6.88,8.642A1.437,1.437,0,0,1-1546.481,1040.364Z" transform="translate(1620.979 -1012.729)" fill="#084184"/>
    <path id="パス_23" data-name="パス 23" d="M-1505.608,1066.793c-2.168-.1-3.288.771-3.428,1.907-1.1,8.931-2.167,17.526-3.237,26.119-.113.9-.382,1.794-.424,2.7-.113,2.416.35,3-3.531,2.835a.871.871,0,0,1-.83-.954q1.957-20.124,3.944-40.572a.689.689,0,0,1,.769-.616c6.059.74,12.031,1.3,17.93,2.3,3.954.672,6.278,3.939,6.419,8.866q.3,10.613-.05,21.242c-.164,4.847-1.077,10.631-5.721,9.152.246-9.478.487-18.741.732-28.235.062-2.4-.972-4.593-4.224-4.477C-1500.432,1067.177-1502.427,1066.934-1505.608,1066.793Z" transform="translate(1590.746 -1030.537)" fill="#084184"/>
    <path id="パス_24" data-name="パス 24" d="M-1500.8,1076.439l8.027.5a2.1,2.1,0,0,1,1.861,2.186c-.16,7.067-.315,13.933-.47,20.8-.029,1.261-.069,2.52-.1,3.781-.108,4.293-.108,4.365-4.011,4.174-3.2-.156-6.4-.508-9.855-.794.949-9.654,1.886-19.2,2.86-29.1A1.635,1.635,0,0,1-1500.8,1076.439Z" transform="translate(1586.16 -1037.676)" fill="#084184"/>
  </g>
</svg>
