<svg xmlns="http://www.w3.org/2000/svg" width="102.891" height="80.612" viewBox="0 0 102.891 80.612">
  <g id="グループ_37" data-name="グループ 37" transform="translate(0 0)">
    <g id="グループ_36" data-name="グループ 36">
      <path id="パス_17" data-name="パス 17" d="M-1709.428,1027.606c2.674,5.658,1.5,10.287-1.607,15.1l9.523-.6.031.233c1.244,2.355-9.422,2.03-14.154,2.909-3.424.636-5.972,1.906-8.9,3.02-6.673,2.538-9.965,7.507-10.619,14.556a94.947,94.947,0,0,0,1.291,27.212,8.012,8.012,0,0,0,5.628,6.521,46.038,46.038,0,0,0,27.808.833,12.9,12.9,0,0,0,7.769-6.455c8.275-14.58,11.2-30.187,7.441-46.576-2.166-9.439-7.665-14.915-18.411-16.65A41.779,41.779,0,0,0-1709.428,1027.606Z" transform="translate(1786.49 -1018.538)" fill="#ac2c2c"/>
      <path id="パス_18" data-name="パス 18" d="M-1772.585,1040.364c1.066,13.651,2.1,26.927,3.163,40.5a2.273,2.273,0,0,0,2.167,2.094c5.131.216,9.946.492,15.42.7a74.617,74.617,0,0,1-.962-7.639c-.5-10.754.015-11.725.981-19.5.8-6.483,2.311-10.905,7.416-13.845,3.045-1.754,6.269-3.193,9.521-4.828l-11.144-5.637a.441.441,0,0,1-.221-.533l.006-.02a1.41,1.41,0,0,1,1.964-.823c2.165,1.073,4.327,2.151,6.509,3.187a21.185,21.185,0,0,0,2.934,1.125c5.72,1.734,6.475,1.99,8.686-1.854a10.077,10.077,0,0,0-1.777-12.328,27.571,27.571,0,0,0-19.341-8.219c-7.354-.283-11.573,4.459-14.626,10.422a30.635,30.635,0,0,0-2.729,7.067c-.96,4.244-2.756,7.546-6.881,8.642A1.437,1.437,0,0,0-1772.585,1040.364Z" transform="translate(1800.979 -1012.729)" fill="#ac2c2c"/>
      <path id="パス_19" data-name="パス 19" d="M-1801.5,1066.793c2.168-.1,3.288.771,3.429,1.907,1.1,8.931,2.166,17.526,3.236,26.119.113.9.383,1.794.426,2.7.113,2.416-.35,3,3.531,2.835a.871.871,0,0,0,.829-.954q-1.956-20.124-3.944-40.572a.689.689,0,0,0-.767-.616c-6.06.74-12.033,1.3-17.931,2.3-3.955.672-6.279,3.939-6.419,8.866q-.3,10.613.05,21.242c.164,4.847,1.076,10.631,5.72,9.152-.246-9.478-.486-18.741-.732-28.235-.062-2.4.972-4.593,4.223-4.477C-1806.674,1067.177-1804.679,1066.934-1801.5,1066.793Z" transform="translate(1819.25 -1030.537)" fill="#ac2c2c"/>
      <path id="パス_20" data-name="パス 20" d="M-1796.8,1076.439l-8.027.5a2.1,2.1,0,0,0-1.86,2.186c.159,7.067.314,13.933.469,20.8.029,1.261.069,2.52.1,3.781.108,4.293.108,4.365,4.011,4.174,3.2-.156,6.4-.508,9.856-.794-.949-9.654-1.886-19.2-2.86-29.1A1.635,1.635,0,0,0-1796.8,1076.439Z" transform="translate(1814.331 -1037.676)" fill="#ac2c2c"/>
    </g>
  </g>
</svg>
