<svg xmlns="http://www.w3.org/2000/svg" xmlns:xlink="http://www.w3.org/1999/xlink" width="81.086" height="81.086" viewBox="0 0 81.086 81.086">
  <defs>
    <linearGradient id="linear-gradient" x1="0.183" y1="0.147" x2="0.743" y2="0.941" gradientUnits="objectBoundingBox">
      <stop offset="0" stop-color="#fef401"/>
      <stop offset="0.276" stop-color="#feda01"/>
      <stop offset="1" stop-color="#ffb100"/>
    </linearGradient>
    <filter id="パス_585" x="0" y="0" width="81.086" height="81.086" filterUnits="userSpaceOnUse">
      <feOffset dy="3" input="SourceAlpha"/>
      <feGaussianBlur stdDeviation="3" result="blur"/>
      <feFlood flood-opacity="0.475"/>
      <feComposite operator="in" in2="blur"/>
      <feComposite in="SourceGraphic"/>
    </filter>
  </defs>
  <g id="グループ_841" data-name="グループ 841" transform="translate(514.831 -1120.094)">
    <g transform="matrix(1, 0, 0, 1, -514.83, 1120.09)" filter="url(#パス_585)">
      <path id="パス_585-2" data-name="パス 585" d="M31.543,0A31.543,31.543,0,1,1,0,31.543,31.543,31.543,0,0,1,31.543,0Z" transform="translate(9 6)" fill="url(#linear-gradient)"/>
    </g>
    <g id="グループ_840" data-name="グループ 840" transform="translate(-91.521 -106.502)">
      <g id="グループ_836" data-name="グループ 836" transform="translate(-402.059 1261.76)">
        <path id="パス_586" data-name="パス 586" d="M-382.7,1461.83q-8.728,0-17.455.005c-1.433,0-1.882-1.4-1.889-2.413-.03-4.448-.011-8.9-.016-13.343a1.11,1.11,0,0,1,.247-.784,1.415,1.415,0,0,1,1.126-.519c1.053-.013,2.105-.038,3.158-.057.088,0,.176,0,.264,0,.964.012,1.17.177,1.109.858-.025.271,0,.544-.018.816-.025.36-.147.43-.644.449-.627.024-1.25-.089-1.881-.007-.369.048-.65.225-.6.483a5.662,5.662,0,0,1,.045,1.19q.008,4.317,0,8.634c0,.355-.005.71,0,1.065s.135.446.627.514a16.384,16.384,0,0,0,2.24.057q14.612.008,29.224.011c.7,0,1.091-.29,1.076-.776-.05-1.63-.163-3.262-.083-4.893.081-1.652.05-3.3.076-4.957a4.8,4.8,0,0,0-.095-.968c-.044-.234-.232-.354-.561-.355-.529,0-1.058.008-1.587,0s-.587-.084-.684-.451-.035-.729-.136-1.091c-.077-.275.229-.515.631-.523,1.276-.024,2.554-.014,3.824.069a1.493,1.493,0,0,1,1.331.6.557.557,0,0,1,.079.273c-.148,3.557-.047,7.114-.047,10.671a36.419,36.419,0,0,1-.109,4.107,1.5,1.5,0,0,1-1.366,1.335l-.081,0q-4.5-.01-8.992-.009H-382.7Z" transform="translate(402.059 -1444.718)" fill="#fcfcfc"/>
      </g>
      <g id="グループ_837" data-name="グループ 837" transform="translate(-396.49 1269.075)">
        <path id="パス_587" data-name="パス 587" d="M-340.894,1526.312c-.172-.6.3-.911.76-1.21.242-.157.476-.142.484.231.008.415.251.527.615.562,1.616.159,3.236.063,4.853.068,5.908.018,11.817.01,17.725,0a3.36,3.36,0,0,0,1.314-.054c.287-.112.5-.219.6-.535a.468.468,0,0,1,.787-.233,1.48,1.48,0,0,1,.593,1.47,1.671,1.671,0,0,1-1.183,1.223,16.831,16.831,0,0,1-2.144.052c-6.623-.021-13.246-.012-19.869-.01-.984,0-1.966.009-2.95.07C-340.357,1528.017-340.911,1527.434-340.894,1526.312Z" transform="translate(340.93 -1525.008)" fill="#fcfcfc"/>
      </g>
      <g id="グループ_838" data-name="グループ 838" transform="translate(-394.801 1243.423)">
        <rect id="長方形_135" data-name="長方形 135" width="24.256" height="24.256" rx="12.128" transform="translate(0 0)" fill="#fcfcfc"/>
      </g>
      <g id="グループ_839" data-name="グループ 839" transform="translate(-391.405 1249.846)">
        <path id="パス_588" data-name="パス 588" d="M-278.749,1326.992l-.087,0a1.733,1.733,0,0,1-1.268-.651l-4.621-5.8a1.733,1.733,0,0,1,.275-2.436,1.733,1.733,0,0,1,2.436.275l3.4,4.262,8.005-8.194a1.733,1.733,0,0,1,2.451-.028,1.733,1.733,0,0,1,.028,2.451l-9.377,9.6A1.734,1.734,0,0,1-278.749,1326.992Z" transform="translate(285.103 -1313.927)" fill="#fec601"/>
      </g>
    </g>
  </g>
</svg>
