<svg xmlns="http://www.w3.org/2000/svg" xmlns:xlink="http://www.w3.org/1999/xlink" width="157" height="158" viewBox="0 0 157 158">
  <defs>
    <clipPath id="clip-path">
      <ellipse id="楕円形_103" data-name="楕円形 103" cx="78.5" cy="79" rx="78.5" ry="79" transform="translate(-0.256 -0.398)" fill="none"/>
    </clipPath>
  </defs>
  <g id="グループ_675" data-name="グループ 675" transform="translate(0.256 0.398)">
    <g id="グループ_674" data-name="グループ 674" transform="translate(0 0)" clip-path="url(#clip-path)">
      <g id="グループ_673" data-name="グループ 673" transform="translate(-104.615 -72.541)">
        <rect id="長方形_84" data-name="長方形 84" width="356.386" height="356.386" fill="#fafafa"/>
        <g id="グループ_672" data-name="グループ 672" transform="translate(27.655 71.495)">
          <path id="パス_521" data-name="パス 521" d="M244.913,160.488H376.327a13.291,13.291,0,0,1,13.259,13.245V305.147a13.294,13.294,0,0,1-13.259,13.259H244.913a13.293,13.293,0,0,1-13.259-13.259V173.733a13.29,13.29,0,0,1,13.259-13.245Z" transform="translate(-156.111 -160.488)" fill="#425f9c" fill-rule="evenodd"/>
          <path id="パス_522" data-name="パス 522" d="M419.571,298.845V289.82c0-4.39,2.927-5.412,4.994-5.412h12.648V265.081L419.791,265c-19.338,0-23.74,14.425-23.74,23.647v10.2H384.867v22.544h11.277v56.388H418.7V321.389h18.827l-.035-22.544Z" transform="translate(-241.071 -218.442)" fill="#fefefe" fill-rule="evenodd"/>
          <path id="パス_523" data-name="パス 523" d="M266.4,585.966a15.343,15.343,0,1,1-15.336-15.337A15.342,15.342,0,0,1,266.4,585.966Z" transform="translate(-158.364 -387.919)" fill="#fbcc18" fill-rule="evenodd"/>
          <path id="パス_524" data-name="パス 524" d="M254.277,601.658a.139.139,0,0,0,.21-.154,2.291,2.291,0,0,0-4.377,0c-.014.127.112.225.21.154a4.138,4.138,0,0,1,1.979-.5,4.1,4.1,0,0,1,1.978.5Z" transform="translate(-166.345 -404.144)" fill="#532814" fill-rule="evenodd"/>
          <path id="パス_525" data-name="パス 525" d="M282.666,594.615a4.23,4.23,0,1,1-4.237-4.237,4.23,4.23,0,0,1,4.237,4.237Z" transform="translate(-179.707 -398.87)" fill="#fefefe" fill-rule="evenodd"/>
          <path id="パス_526" data-name="パス 526" d="M283.283,597.846a1.642,1.642,0,1,1-1.642-1.642,1.644,1.644,0,0,1,1.642,1.642Z" transform="translate(-182.92 -402.1)" fill="#532814" fill-rule="evenodd"/>
          <path id="パス_527" data-name="パス 527" d="M253.877,613.7a.683.683,0,0,0-.87.969,8.772,8.772,0,0,0,15.167,0,.682.682,0,0,0-.87-.969,16.031,16.031,0,0,1-13.428,0Z" transform="translate(-167.895 -411.765)" fill="#532814" fill-rule="evenodd"/>
          <path id="パス_528" data-name="パス 528" d="M265.894,618.3a16.149,16.149,0,0,1-3.438-.364v6.047a3.431,3.431,0,0,0,6.861,0v-6.047a16.11,16.11,0,0,1-3.423.364Z" transform="translate(-173.192 -414.152)" fill="#ca322d" fill-rule="evenodd"/>
          <path id="パス_529" data-name="パス 529" d="M439.742,585.966a15.336,15.336,0,1,1-15.336-15.337,15.341,15.341,0,0,1,15.336,15.337Z" transform="translate(-254.492 -387.919)" fill="#fbcc18" fill-rule="evenodd"/>
          <path id="パス_530" data-name="パス 530" d="M456.576,582.376c-2.5-4.77-7.128-1.389-6.328,2.175.645,2.806,3.718,6.777,3.718,6.777.449-.154,4.728-1.7,6.777-3.718,2.6-2.568.505-7.914-4.167-5.234Z" transform="translate(-277.275 -393.126)" fill="#ca322d" fill-rule="evenodd"/>
          <path id="パス_531" data-name="パス 531" d="M415.834,582.376c2.5-4.77,7.128-1.389,6.328,2.175-.645,2.806-3.718,6.777-3.718,6.777-.449-.154-4.728-1.7-6.777-3.718-2.6-2.568-.505-7.914,4.167-5.234Z" transform="translate(-255.306 -393.126)" fill="#ca322d" fill-rule="evenodd"/>
          <path id="パス_532" data-name="パス 532" d="M430.117,611.955c-.392-.127-.743.281-.631.73a6.529,6.529,0,0,0,12.459,0c.112-.449-.239-.856-.631-.73a18.458,18.458,0,0,1-11.2,0Z" transform="translate(-265.801 -410.821)" fill="#532814" fill-rule="evenodd"/>
          <path id="パス_533" data-name="パス 533" d="M439.776,617.906a3.266,3.266,0,0,0-2.989,1.978,6.837,6.837,0,0,0,5.977,0,3.266,3.266,0,0,0-2.989-1.978Z" transform="translate(-269.861 -414.134)" fill="#ca322d" fill-rule="evenodd"/>
          <path id="パス_534" data-name="パス 534" d="M699.742,585.966a15.336,15.336,0,1,1-15.336-15.337,15.342,15.342,0,0,1,15.336,15.337Z" transform="translate(-398.667 -387.919)" fill="#fbcc18" fill-rule="evenodd"/>
          <path id="パス_535" data-name="パス 535" d="M721.674,597.837a.239.239,0,0,0,.365-.2h0a2.028,2.028,0,1,0-4.055,0h0a.239.239,0,0,0,.365.2,3.215,3.215,0,0,1,3.326,0Z" transform="translate(-425.79 -401.769)" fill="#532814" fill-rule="evenodd"/>
          <path id="パス_536" data-name="パス 536" d="M683.6,597.837a.239.239,0,0,0,.365-.2h0a2.028,2.028,0,1,0-4.055,0h0a.239.239,0,0,0,.365.2,3.214,3.214,0,0,1,3.325,0Z" transform="translate(-404.675 -401.769)" fill="#532814" fill-rule="evenodd"/>
          <path id="パス_537" data-name="パス 537" d="M685.1,608.79a.9.9,0,0,0-.575,1.179,9.312,9.312,0,0,0,16.837,0,.9.9,0,0,0-.576-1.179,26.235,26.235,0,0,0-15.686,0Z" transform="translate(-407.199 -408.414)" fill="#532814" fill-rule="evenodd"/>
          <path id="パス_538" data-name="パス 538" d="M694.016,620.915a9.451,9.451,0,0,0,8.447,0,7.057,7.057,0,0,0-8.447,0Z" transform="translate(-412.499 -415.025)" fill="#ca322d" fill-rule="evenodd"/>
          <path id="パス_539" data-name="パス 539" d="M526.168,585.966a15.336,15.336,0,1,1-15.336-15.337,15.342,15.342,0,0,1,15.336,15.337Z" transform="translate(-302.416 -387.919)" fill="#fbcc18" fill-rule="evenodd"/>
          <path id="パス_540" data-name="パス 540" d="M528.071,616.566a.5.5,0,0,1-.477-.393.476.476,0,0,1,.393-.547c.519-.1,1.431-.547,1.6-1.01.042-.1.056-.224-.112-.435-.323-.407-1.221,0-1.7.35a.477.477,0,1,1-.561-.771c.982-.716,2.3-1.052,3-.168a1.324,1.324,0,0,1,.267,1.361,3.266,3.266,0,0,1-2.33,1.6Z" transform="translate(-319.894 -411.448)" fill="#532814" fill-rule="evenodd"/>
          <path id="パス_541" data-name="パス 541" d="M529.068,622.3a3.233,3.233,0,0,1-1.852-.7.474.474,0,0,1-.112-.66.491.491,0,0,1,.673-.112c.478.365,1.375.772,1.7.351.168-.21.154-.337.112-.435-.168-.463-1.08-.912-1.6-1.01a.468.468,0,0,1-.393-.547.48.48,0,0,1,.561-.379,3.27,3.27,0,0,1,2.33,1.6,1.322,1.322,0,0,1-.267,1.361,1.388,1.388,0,0,1-1.151.533Z" transform="translate(-319.894 -414.627)" fill="#532814" fill-rule="evenodd"/>
          <path id="パス_542" data-name="パス 542" d="M538.432,603.911a.793.793,0,0,1-.533-.224.754.754,0,0,1,0-1.066,3.177,3.177,0,0,1,4.6,0,.754.754,0,0,1-1.066,1.066,1.66,1.66,0,0,0-2.469,0,.8.8,0,0,1-.533.224Z" transform="translate(-325.807 -405.107)" fill="#532814" fill-rule="evenodd"/>
          <path id="パス_543" data-name="パス 543" d="M516.69,601.41a1.679,1.679,0,1,1-3.242,0c0-1.178.716-2.119,1.614-2.119a1.918,1.918,0,0,1,1.628,2.119Z" transform="translate(-312.371 -403.812)" fill="#532814" fill-rule="evenodd"/>
          <path id="パス_544" data-name="パス 544" d="M546.8,613.525c4.5-2.119,6.019,2.96,3.438,5.135-2.034,1.7-6.51,2.919-6.51,2.919-.239-.365-2.54-3.887-2.918-6.511-.478-3.353,4.041-6.117,5.991-1.543Z" transform="translate(-327.523 -410.371)" fill="#ca322d" fill-rule="evenodd"/>
          <path id="パス_545" data-name="パス 545" d="M508.655,589.343h-.028a.438.438,0,0,1-.407-.463,4.162,4.162,0,0,1,1.347-2.764,4.1,4.1,0,0,1,2.876-1.094.437.437,0,0,1,.421.449.408.408,0,0,1-.435.421,3.43,3.43,0,0,0-2.287.856,3.285,3.285,0,0,0-1.052,2.2.441.441,0,0,1-.435.393Z" transform="translate(-309.472 -395.899)" fill="#532814" fill-rule="evenodd"/>
          <path id="パス_546" data-name="パス 546" d="M542.938,596.969a.521.521,0,0,1-.281-.1,2.654,2.654,0,0,0-3.48-.281.432.432,0,0,1-.505-.7,3.527,3.527,0,0,1,4.532.309.442.442,0,0,1,.07.617.468.468,0,0,1-.336.155Z" transform="translate(-326.258 -401.546)" fill="#532814" fill-rule="evenodd"/>
          <path id="パス_547" data-name="パス 547" d="M613.08,585.966a15.343,15.343,0,1,1-15.35-15.337,15.354,15.354,0,0,1,15.35,15.337Z" transform="translate(-350.603 -387.919)" fill="#fbcc18" fill-rule="evenodd"/>
          <path id="パス_548" data-name="パス 548" d="M600.73,589.625a9.344,9.344,0,0,1-5.36,0,24.127,24.127,0,0,0-7.156-.954,28.08,28.08,0,0,0-4.532.491.867.867,0,0,0-.687,1.053l.112.491a.871.871,0,0,0,.59.617.525.525,0,0,1,.336.308c.2.534,1.263,3.662,1.838,4.827.477.94,1.754,1.754,4.714,1.768a6.3,6.3,0,0,0,6.356-4.575c.07-.2.169-.547.267-.9a2.262,2.262,0,0,1,.589-1.067.532.532,0,0,1,.252-.084.643.643,0,0,1,.281.084,2.436,2.436,0,0,1,.561,1.067c.1.351.211.7.28.9a6.3,6.3,0,0,0,6.356,4.575c2.961-.014,4.237-.828,4.7-1.768.575-1.165,1.642-4.293,1.838-4.827a.581.581,0,0,1,.351-.308.879.879,0,0,0,.575-.617l.112-.491a.868.868,0,0,0-.674-1.053,28.092,28.092,0,0,0-4.546-.491,24.13,24.13,0,0,0-7.156.954Z" transform="translate(-350.923 -397.92)" fill="#241e12" fill-rule="evenodd"/>
          <path id="パス_549" data-name="パス 549" d="M621.258,593.885a5.423,5.423,0,0,0,3.943,4.461c2.75.674,4.813.085,5.977-2.441a9.451,9.451,0,0,0,1.053-3.3c-.084-1.529-2.035-1.263-3.269-1.291-.141,0-7.816-.224-7.7,2.568Z" transform="translate(-372.153 -399.388)" fill="#463c23" fill-rule="evenodd"/>
          <path id="パス_550" data-name="パス 550" d="M598.907,593.885a5.424,5.424,0,0,1-3.943,4.461c-2.75.674-4.8.085-5.977-2.441a9.756,9.756,0,0,1-1.053-3.3c.084-1.529,2.034-1.263,3.269-1.291.14,0,7.815-.224,7.7,2.568Z" transform="translate(-353.674 -399.388)" fill="#463c23" fill-rule="evenodd"/>
          <path id="パス_551" data-name="パス 551" d="M621.84,617.364a9.536,9.536,0,0,1-1.249-.1.766.766,0,0,1-.631-.856.75.75,0,0,1,.856-.631c2.371.351,4.475-.547,5.373-2.287a.743.743,0,0,1,1.01-.323.754.754,0,0,1,.322,1.011,6.182,6.182,0,0,1-5.682,3.185Z" transform="translate(-371.43 -411.46)" fill="#532814" fill-rule="evenodd"/>
          <path id="パス_552" data-name="パス 552" d="M353.08,585.966a15.343,15.343,0,1,1-15.35-15.337,15.354,15.354,0,0,1,15.35,15.337Z" transform="translate(-206.428 -387.919)" fill="#fbcc18" fill-rule="evenodd"/>
          <path id="パス_553" data-name="パス 553" d="M372.194,597.837a.239.239,0,0,0,.365-.2h0a2.027,2.027,0,1,0-4.055,0h0a.247.247,0,0,0,.379.2,3.121,3.121,0,0,1,1.656-.463,3.156,3.156,0,0,1,1.655.463Z" transform="translate(-231.997 -401.769)" fill="#532814" fill-rule="evenodd"/>
          <path id="パス_554" data-name="パス 554" d="M339.722,597.837a.239.239,0,0,0,.365-.2h0a2.028,2.028,0,1,0-4.055,0h0a.247.247,0,0,0,.378.2,3.122,3.122,0,0,1,1.656-.463,3.156,3.156,0,0,1,1.655.463Z" transform="translate(-213.991 -401.769)" fill="#532814" fill-rule="evenodd"/>
          <path id="パス_555" data-name="パス 555" d="M348.041,615.74a10.378,10.378,0,0,1-6.974-2.722.75.75,0,0,1-.028-1.052.737.737,0,0,1,1.052-.042,8.805,8.805,0,0,0,11.744.14.755.755,0,0,1,1.066.056.769.769,0,0,1-.07,1.066,10.282,10.282,0,0,1-6.791,2.553Z" transform="translate(-216.656 -410.706)" fill="#532814" fill-rule="evenodd"/>
          <path id="パス_556" data-name="パス 556" d="M179.742,585.966a15.336,15.336,0,1,1-15.336-15.337,15.342,15.342,0,0,1,15.336,15.337Z" transform="translate(-110.318 -387.919)" fill="#fbcc18" fill-rule="evenodd"/>
          <path id="パス_557" data-name="パス 557" d="M200.73,599.727a.234.234,0,0,0,.365-.2h0a2.027,2.027,0,1,0-4.055,0h0a.234.234,0,0,0,.364.2,3.218,3.218,0,0,1,3.326,0Z" transform="translate(-136.917 -402.817)" fill="#532814" fill-rule="evenodd"/>
          <path id="パス_558" data-name="パス 558" d="M167.123,599.727a.234.234,0,0,0,.365-.2h0a2.028,2.028,0,1,0-4.055,0h0a.243.243,0,0,0,.379.2,3.124,3.124,0,0,1,1.655-.463,3.163,3.163,0,0,1,1.656.463Z" transform="translate(-118.282 -402.817)" fill="#532814" fill-rule="evenodd"/>
          <path id="パス_559" data-name="パス 559" d="M199.707,588.458a3.262,3.262,0,0,1-3.311-2.512.5.5,0,0,1,.379-.589.518.518,0,0,1,.6.379c.042.21.533,2.048,2.961,1.67a.5.5,0,1,1,.154.982,5.287,5.287,0,0,1-.786.07Z" transform="translate(-136.554 -396.079)" fill="#532814" fill-rule="evenodd"/>
          <path id="パス_560" data-name="パス 560" d="M164.24,588.458a5.287,5.287,0,0,1-.785-.07.5.5,0,0,1-.407-.576.49.49,0,0,1,.561-.407,2.388,2.388,0,0,0,2.974-1.67.5.5,0,1,1,.968.21,3.262,3.262,0,0,1-3.311,2.512Z" transform="translate(-118.065 -396.079)" fill="#532814" fill-rule="evenodd"/>
          <path id="パス_561" data-name="パス 561" d="M170.958,607.854a1.436,1.436,0,0,0-1.824,1.361v.014c0,4,2.96,7.24,6.609,7.24s6.622-3.242,6.622-7.24v-.014a1.436,1.436,0,0,0-1.823-1.361,19.334,19.334,0,0,1-9.584,0Z" transform="translate(-121.443 -408.531)" fill="#532814" fill-rule="evenodd"/>
          <path id="パス_562" data-name="パス 562" d="M179.568,625.845a6.178,6.178,0,0,0,3.55-1.137h-7.085a6.168,6.168,0,0,0,3.536,1.137Z" transform="translate(-125.268 -417.906)" fill="#fefefe" fill-rule="evenodd"/>
          <path id="パス_563" data-name="パス 563" d="M210.937,604.167a2.222,2.222,0,0,1,1,1.206,1.194,1.194,0,0,1-1.754,1.473,3.722,3.722,0,0,1-1.375-1.937,2.846,2.846,0,0,0-.968-1.333.123.123,0,0,1,.084-.225,8.119,8.119,0,0,1,3.017.815Z" transform="translate(-142.873 -406.064)" fill="#61c0ec" fill-rule="evenodd"/>
          <path id="パス_564" data-name="パス 564" d="M93.08,585.966a15.343,15.343,0,1,1-15.35-15.337,15.353,15.353,0,0,1,15.35,15.337Z" transform="translate(-62.254 -387.919)" fill="#fbcc18" fill-rule="evenodd"/>
          <path id="パス_565" data-name="パス 565" d="M93.468,613.5H80.8a1.461,1.461,0,0,1-1.459-1.474v-6.384a1.461,1.461,0,0,1,1.459-1.473h12.67a1.47,1.47,0,0,1,1.459,1.473v6.384a1.47,1.47,0,0,1-1.459,1.474Z" transform="translate(-71.65 -406.519)" fill="#fefefe" fill-rule="evenodd"/>
          <path id="パス_566" data-name="パス 566" d="M105.8,606.5l8.068-4.041v-.084a14.149,14.149,0,0,0-.084-1.544l-14.129,7.072,13.273.21a13.242,13.242,0,0,0,.491-1.487Z" transform="translate(-82.915 -404.668)" fill="#fefefe" fill-rule="evenodd"/>
          <path id="パス_567" data-name="パス 567" d="M62.163,600.834a14.039,14.039,0,0,0-.084,1.544v.084L70.16,606.5l-7.618.126a12.922,12.922,0,0,0,.477,1.487l13.287-.21Z" transform="translate(-62.079 -404.668)" fill="#fefefe" fill-rule="evenodd"/>
          <path id="パス_568" data-name="パス 568" d="M78.789,597.319a3.885,3.885,0,0,1-2.006-.547.75.75,0,0,1-.253-1.024.737.737,0,0,1,1.024-.253,2.5,2.5,0,0,0,2.68-.14.752.752,0,1,1,.9,1.206,4.025,4.025,0,0,1-2.343.757Z" transform="translate(-70.033 -401.545)" fill="#532814" fill-rule="evenodd"/>
          <path id="パス_569" data-name="パス 569" d="M107.847,597.319a4.036,4.036,0,0,1-2.357-.757.771.771,0,0,1-.154-1.052.745.745,0,0,1,1.052-.154,2.5,2.5,0,0,0,2.68.14.746.746,0,1,1,.772,1.277,3.873,3.873,0,0,1-1.992.547Z" transform="translate(-85.987 -401.545)" fill="#532814" fill-rule="evenodd"/>
        </g>
      </g>
    </g>
  </g>
</svg>
