<?xml version="1.0" encoding="utf-8"?>
<!-- Generator: Adobe Illustrator 24.2.1, SVG Export Plug-In . SVG Version: 6.00 Build 0)  -->
<svg version="1.1" id="圖層_1" xmlns="http://www.w3.org/2000/svg" xmlns:xlink="http://www.w3.org/1999/xlink" x="0px" y="0px"
	 viewBox="0 0 42 42" style="enable-background:new 0 0 42 42;" xml:space="preserve">
<style type="text/css">
	.st0{fill:#319CCE;}
	.st1{fill:#383939;}
	.st2{fill:#FFFFFF;}
	.st3{fill:#18171A;}
	.st4{fill:#2AA7DE;}
	.st5{fill:none;stroke:#2AA7DE;stroke-width:0;stroke-linecap:round;stroke-linejoin:round;}
	.st6{fill:#393939;}
</style>
<path class="st0" d="M37.4,25.6L37.4,25.6L37.4,25.6z"/>
<path class="st0" d="M37.5,25.3L37.5,25.3L37.5,25.3z"/>
<path class="st1" d="M0.2,12.7L0.2,12.7z"/>
<path class="st1" d="M0.1,12.5c0-0.1,0-0.1,0-0.2S0.1,12.4,0.1,12.5z"/>
<path class="st1" d="M0.1,12.2c0-0.1,0-0.1,0-0.2C0.1,12.1,0.1,12.2,0.1,12.2z"/>
<g>
	<g>
		<circle class="st2" cx="21" cy="21" r="20"/>
		<path class="st3" d="M21,42C9.4,42,0,32.6,0,21C0,9.4,9.4,0,21,0s21,9.4,21,21C42,32.6,32.6,42,21,42z M21,2C10.5,2,2,10.5,2,21
			s8.5,19,19,19c10.5,0,19-8.5,19-19S31.5,2,21,2z"/>
	</g>
	<g id="XMLID_373_">
		<g id="XMLID_465_">
			<path class="st3" d="M14.3,38.9c-0.1,0-0.1,0.1,0,0.1c0.1,0,0.1,0,0.2,0c0.1,0,0.1-0.1,0-0.1C14.5,38.8,14.4,38.8,14.3,38.9z"/>
		</g>
		<g id="XMLID_464_">
			<path class="st3" d="M13.9,38.6c-0.1,0-0.1,0.1,0,0.1c0.1,0,0.1,0,0.2,0c0.1,0,0.1-0.1,0-0.1C14,38.6,13.9,38.6,13.9,38.6z"/>
		</g>
		<g id="XMLID_463_">
			<path class="st3" d="M13.4,38.3c-0.1,0-0.1,0.1,0,0.1c0.1,0,0.1,0,0.2,0s0.1-0.1,0-0.1C13.5,38.3,13.4,38.3,13.4,38.3z"/>
		</g>
		<g id="XMLID_462_">
			<ellipse class="st3" cx="13" cy="38.1" rx="0.1" ry="0.1"/>
		</g>
		<g id="XMLID_461_">
			<path class="st3" d="M12.4,37.8c-0.1,0-0.1,0.1,0,0.1c0.1,0,0.1,0,0.2,0c0.1,0,0.1-0.1,0-0.1C12.5,37.7,12.5,37.7,12.4,37.8z"/>
		</g>
		<g id="XMLID_460_">
			<ellipse class="st3" cx="12" cy="37.5" rx="0.1" ry="0.1"/>
		</g>
		<g id="XMLID_459_">
			<path class="st3" d="M14.8,38.6c-0.1,0-0.1,0.1,0,0.1c0.1,0,0.1,0,0.2,0c0.1,0,0.1-0.1,0-0.1C15,38.6,14.9,38.6,14.8,38.6z"/>
		</g>
		<g id="XMLID_458_">
			<path class="st3" d="M14.3,38.3c-0.1,0-0.1,0.1,0,0.1c0.1,0,0.1,0,0.2,0c0.1,0,0.1-0.1,0-0.1C14.5,38.3,14.4,38.3,14.3,38.3z"/>
		</g>
		<g id="XMLID_457_">
			<ellipse class="st3" cx="14" cy="38.1" rx="0.1" ry="0.1"/>
		</g>
		<g id="XMLID_456_">
			<path class="st3" d="M13.4,37.8c-0.1,0-0.1,0.1,0,0.1c0.1,0,0.1,0,0.2,0c0.1,0,0.1-0.1,0-0.1C13.5,37.7,13.4,37.7,13.4,37.8z"/>
		</g>
		<g id="XMLID_455_">
			<path class="st3" d="M12.9,37.5c-0.1,0-0.1,0.1,0,0.1c0.1,0,0.1,0,0.2,0c0.1,0,0.1-0.1,0-0.1C13,37.4,12.9,37.4,12.9,37.5z"/>
		</g>
		<g id="XMLID_454_">
			<path class="st3" d="M12.4,37.2c-0.1,0-0.1,0.1,0,0.1c0.1,0,0.1,0,0.2,0c0.1,0,0.1-0.1,0-0.1C12.5,37.2,12.5,37.2,12.4,37.2z"/>
		</g>
		<g id="XMLID_453_">
			<path class="st3" d="M15.3,38.3c-0.1,0-0.1,0.1,0,0.1c0.1,0,0.1,0,0.2,0c0.1,0,0.1-0.1,0-0.1C15.4,38.3,15.4,38.3,15.3,38.3z"/>
		</g>
		<g id="XMLID_452_">
			<ellipse class="st3" cx="14.9" cy="38.1" rx="0.1" ry="0.1"/>
		</g>
		<g id="XMLID_451_">
			<path class="st3" d="M14.3,37.8c-0.1,0-0.1,0.1,0,0.1c0.1,0,0.1,0,0.2,0c0.1,0,0.1-0.1,0-0.1C14.5,37.7,14.4,37.7,14.3,37.8z"/>
		</g>
		<g id="XMLID_450_">
			<path class="st3" d="M13.9,37.5c-0.1,0-0.1,0.1,0,0.1c0.1,0,0.1,0,0.2,0c0.1,0,0.1-0.1,0-0.1C14,37.4,13.9,37.4,13.9,37.5z"/>
		</g>
		<g id="XMLID_449_">
			<path class="st3" d="M13.4,37.2c-0.1,0-0.1,0.1,0,0.1c0.1,0,0.1,0,0.2,0c0.1,0,0.1-0.1,0-0.1C13.5,37.2,13.4,37.2,13.4,37.2z"/>
		</g>
		<g id="XMLID_448_">
			<path class="st3" d="M12.9,36.9c-0.1,0-0.1,0.1,0,0.1c0.1,0,0.1,0,0.2,0c0.1,0,0.1-0.1,0-0.1C13,36.9,12.9,36.9,12.9,36.9z"/>
		</g>
		<g id="XMLID_447_">
			<path class="st3" d="M15.8,38c-0.1,0-0.1,0.1,0,0.1c0.1,0,0.1,0,0.2,0c0.1,0,0.1-0.1,0-0.1C15.9,38,15.8,38,15.8,38z"/>
		</g>
		<g id="XMLID_446_">
			<path class="st3" d="M15.3,37.8c-0.1,0-0.1,0.1,0,0.1c0.1,0,0.1,0,0.2,0c0.1,0,0.1-0.1,0-0.1C15.4,37.7,15.4,37.7,15.3,37.8z"/>
		</g>
		<g id="XMLID_445_">
			<path class="st3" d="M14.8,37.5c-0.1,0-0.1,0.1,0,0.1c0.1,0,0.1,0,0.2,0c0.1,0,0.1-0.1,0-0.1C15,37.4,14.9,37.4,14.8,37.5z"/>
		</g>
		<g id="XMLID_444_">
			<ellipse class="st3" cx="14.4" cy="37.3" rx="0.1" ry="0.1"/>
		</g>
		<g id="XMLID_443_">
			<ellipse class="st3" cx="14" cy="37" rx="0.1" ry="0.1"/>
		</g>
		<g id="XMLID_442_">
			<path class="st3" d="M13.4,36.6c-0.1,0-0.1,0.1,0,0.1c0.1,0,0.1,0,0.2,0s0.1-0.1,0-0.1C13.5,36.6,13.4,36.6,13.4,36.6z"/>
		</g>
		<g id="XMLID_441_">
			<ellipse class="st3" cx="16.4" cy="37.8" rx="0.1" ry="0.1"/>
		</g>
		<g id="XMLID_440_">
			<path class="st3" d="M15.8,37.5c-0.1,0-0.1,0.1,0,0.1c0.1,0,0.1,0,0.2,0c0.1,0,0.1-0.1,0-0.1C15.9,37.4,15.8,37.4,15.8,37.5z"/>
		</g>
		<g id="XMLID_439_">
			<ellipse class="st3" cx="15.4" cy="37.3" rx="0.1" ry="0.1"/>
		</g>
		<g id="XMLID_438_">
			<path class="st3" d="M14.8,36.9c-0.1,0-0.1,0.1,0,0.1c0.1,0,0.1,0,0.2,0c0.1,0,0.1-0.1,0-0.1C15,36.9,14.9,36.9,14.8,36.9z"/>
		</g>
		<g id="XMLID_437_">
			<path class="st3" d="M14.3,36.6c-0.1,0-0.1,0.1,0,0.1c0.1,0,0.1,0,0.2,0c0.1,0,0.1-0.1,0-0.1C14.5,36.6,14.4,36.6,14.3,36.6z"/>
		</g>
		<g id="XMLID_436_">
			<path class="st3" d="M13.9,36.4c-0.1,0-0.1,0.1,0,0.1c0.1,0,0.1,0,0.2,0c0.1,0,0.1-0.1,0-0.1C14,36.3,13.9,36.3,13.9,36.4z"/>
		</g>
		<g id="XMLID_435_">
			<path class="st3" d="M16.8,37.5c-0.1,0-0.1,0.1,0,0.1c0.1,0,0.1,0,0.2,0c0.1,0,0.1-0.1,0-0.1S16.8,37.4,16.8,37.5z"/>
		</g>
		<g id="XMLID_434_">
			<ellipse class="st3" cx="16.4" cy="37.3" rx="0.1" ry="0.1"/>
		</g>
		<g id="XMLID_433_">
			<ellipse class="st3" cx="15.9" cy="37" rx="0.1" ry="0.1"/>
		</g>
		<g id="XMLID_432_">
			<path class="st3" d="M15.3,36.6c-0.1,0-0.1,0.1,0,0.1c0.1,0,0.1,0,0.2,0c0.1,0,0.1-0.1,0-0.1C15.4,36.6,15.4,36.6,15.3,36.6z"/>
		</g>
		<g id="XMLID_431_">
			<path class="st3" d="M14.8,36.4c-0.1,0-0.1,0.1,0,0.1c0.1,0,0.1,0,0.2,0c0.1,0,0.1-0.1,0-0.1C15,36.3,14.9,36.3,14.8,36.4z"/>
		</g>
		<g id="XMLID_430_">
			<path class="st3" d="M14.3,36.1c-0.1,0-0.1,0.1,0,0.1c0.1,0,0.1,0,0.2,0c0.1,0,0.1-0.1,0-0.1C14.5,36.1,14.4,36.1,14.3,36.1z"/>
		</g>
		<g id="XMLID_429_">
			<ellipse class="st3" cx="16.8" cy="37" rx="0.1" ry="0.1"/>
		</g>
		<g id="XMLID_428_">
			<ellipse class="st3" cx="16.4" cy="36.7" rx="0.1" ry="0.1"/>
		</g>
		<g id="XMLID_427_">
			<path class="st3" d="M15.8,36.4c-0.1,0-0.1,0.1,0,0.1c0.1,0,0.1,0,0.2,0c0.1,0,0.1-0.1,0-0.1C15.9,36.3,15.8,36.3,15.8,36.4z"/>
		</g>
		<g id="XMLID_426_">
			<ellipse class="st3" cx="15.4" cy="36.1" rx="0.1" ry="0.1"/>
		</g>
		<g id="XMLID_425_">
			<path class="st3" d="M14.8,35.8c-0.1,0-0.1,0.1,0,0.1c0.1,0,0.1,0,0.2,0c0.1,0,0.1-0.1,0-0.1C15,35.8,14.9,35.8,14.8,35.8z"/>
		</g>
		<g id="XMLID_424_">
			<ellipse class="st3" cx="13.5" cy="38.9" rx="0.1" ry="0.1"/>
		</g>
		<g id="XMLID_423_">
			<ellipse class="st3" cx="13" cy="38.6" rx="0.1" ry="0.1"/>
		</g>
		<g id="XMLID_422_">
			<ellipse class="st3" cx="12.5" cy="38.3" rx="0.1" ry="0.1"/>
		</g>
		<g id="XMLID_421_">
			<path class="st3" d="M11.9,38c-0.1,0-0.1,0.1,0,0.1c0.1,0,0.1,0,0.2,0c0.1,0,0.1-0.1,0-0.1C12,38,12,38,11.9,38z"/>
		</g>
		<g id="XMLID_420_">
			<path class="st3" d="M11.4,37.7c-0.1,0-0.1,0.1,0,0.1c0.1,0,0.1,0,0.2,0c0.1,0,0.1-0.1,0-0.1C11.6,37.7,11.5,37.7,11.4,37.7z"/>
		</g>
		<g id="XMLID_419_">
			<path class="st3" d="M11.4,37.2c-0.1,0-0.1,0.1,0,0.1c0.1,0,0.1,0,0.2,0c0.1,0,0.1-0.1,0-0.1C11.6,37.2,11.5,37.2,11.4,37.2z"/>
		</g>
		<g id="XMLID_418_">
			<ellipse class="st3" cx="11.1" cy="37" rx="0.1" ry="0.1"/>
		</g>
		<g id="XMLID_417_">
			<path class="st3" d="M10.5,36.7c-0.1,0-0.1,0.1,0,0.1c0.1,0,0.1,0,0.2,0c0.1,0,0.1-0.1,0-0.1C10.6,36.6,10.5,36.6,10.5,36.7z"/>
		</g>
		<g id="XMLID_416_">
			<path class="st3" d="M10,36.4c-0.1,0-0.1,0.1,0,0.1c0.1,0,0.1,0,0.2,0c0.1,0,0.1-0.1,0-0.1C10.1,36.3,10.1,36.3,10,36.4z"/>
		</g>
		<g id="XMLID_415_">
			<path class="st3" d="M9.5,36.1c-0.1,0-0.1,0.1,0,0.1c0.1,0,0.1,0,0.2,0c0.1,0,0.1-0.1,0-0.1C9.7,36.1,9.6,36.1,9.5,36.1z"/>
		</g>
		<g id="XMLID_414_">
			<ellipse class="st3" cx="9.1" cy="35.9" rx="0.1" ry="0.1"/>
		</g>
		<g id="XMLID_413_">
			<path class="st3" d="M12.1,36.9c-0.1,0-0.1,0-0.2,0c-0.1,0-0.1,0.1,0,0.1c0.1,0,0.1,0,0.2,0C12.2,37,12.2,37,12.1,36.9z"/>
		</g>
		<g id="XMLID_412_">
			<path class="st3" d="M11.4,36.7c-0.1,0-0.1,0.1,0,0.1c0.1,0,0.1,0,0.2,0c0.1,0,0.1-0.1,0-0.1C11.6,36.6,11.5,36.6,11.4,36.7z"/>
		</g>
		<g id="XMLID_411_">
			<path class="st3" d="M11,36.4c-0.1,0-0.1,0.1,0,0.1c0.1,0,0.1,0,0.2,0c0.1,0,0.1-0.1,0-0.1C11.1,36.3,11,36.3,11,36.4z"/>
		</g>
		<g id="XMLID_410_">
			<ellipse class="st3" cx="10.6" cy="36.2" rx="0.1" ry="0.1"/>
		</g>
		<g id="XMLID_409_">
			<ellipse class="st3" cx="10.1" cy="35.9" rx="0.1" ry="0.1"/>
		</g>
		<g id="XMLID_408_">
			<path class="st3" d="M9.5,35.5c-0.1,0-0.1,0.1,0,0.1c0.1,0,0.1,0,0.2,0c0.1,0,0.1-0.1,0-0.1C9.7,35.5,9.6,35.5,9.5,35.5z"/>
		</g>
		<g id="XMLID_407_">
			<path class="st3" d="M12.6,36.7c-0.1,0-0.1,0-0.2,0c-0.1,0-0.1,0.1,0,0.1c0.1,0,0.1,0,0.2,0C12.6,36.7,12.6,36.7,12.6,36.7z"/>
		</g>
		<g id="XMLID_406_">
			<path class="st3" d="M11.9,36.4c-0.1,0-0.1,0.1,0,0.1c0.1,0,0.1,0,0.2,0c0.1,0,0.1-0.1,0-0.1C12.1,36.3,12,36.3,11.9,36.4z"/>
		</g>
		<g id="XMLID_405_">
			<ellipse class="st3" cx="11.5" cy="36.2" rx="0.1" ry="0.1"/>
		</g>
		<g id="XMLID_404_">
			<path class="st3" d="M11,35.8c-0.1,0-0.1,0.1,0,0.1c0.1,0,0.1,0,0.2,0c0.1,0,0.1-0.1,0-0.1C11.1,35.8,11,35.8,11,35.8z"/>
		</g>
		<g id="XMLID_403_">
			<path class="st3" d="M10.5,35.5c-0.1,0-0.1,0.1,0,0.1c0.1,0,0.1,0,0.2,0s0.1-0.1,0-0.1C10.6,35.5,10.5,35.5,10.5,35.5z"/>
		</g>
		<g id="XMLID_402_">
			<path class="st3" d="M10,35.3c-0.1,0-0.1,0.1,0,0.1c0.1,0,0.1,0,0.2,0c0.1,0,0.1-0.1,0-0.1C10.1,35.2,10.1,35.2,10,35.3z"/>
		</g>
		<g id="XMLID_401_">
			<path class="st3" d="M13.1,36.4c-0.1,0-0.1,0-0.2,0c-0.1,0-0.1,0.1,0,0.1c0.1,0,0.1,0,0.2,0C13.1,36.5,13.1,36.4,13.1,36.4z"/>
		</g>
		<g id="XMLID_400_">
			<path class="st3" d="M12.4,36.1c-0.1,0-0.1,0.1,0,0.1c0.1,0,0.1,0,0.2,0c0.1,0,0.1-0.1,0-0.1C12.5,36.1,12.5,36.1,12.4,36.1z"/>
		</g>
		<g id="XMLID_399_">
			<path class="st3" d="M11.9,35.8c-0.1,0-0.1,0.1,0,0.1c0.1,0,0.1,0,0.2,0c0.1,0,0.1-0.1,0-0.1C12.1,35.8,12,35.8,11.9,35.8z"/>
		</g>
		<g id="XMLID_398_">
			<ellipse class="st3" cx="11.5" cy="35.6" rx="0.1" ry="0.1"/>
		</g>
		<g id="XMLID_397_">
			<path class="st3" d="M11,35.3c-0.1,0-0.1,0.1,0,0.1c0.1,0,0.1,0,0.2,0c0.1,0,0.1-0.1,0-0.1C11.1,35.2,11,35.2,11,35.3z"/>
		</g>
		<g id="XMLID_396_">
			<ellipse class="st3" cx="10.6" cy="35" rx="0.1" ry="0.1"/>
		</g>
		<g id="XMLID_395_">
			<path class="st3" d="M13.6,36.1c-0.1,0-0.1,0-0.2,0c-0.1,0-0.1,0.1,0,0.1c0.1,0,0.1,0,0.2,0C13.6,36.2,13.6,36.1,13.6,36.1z"/>
		</g>
		<g id="XMLID_394_">
			<ellipse class="st3" cx="13" cy="35.9" rx="0.1" ry="0.1"/>
		</g>
		<g id="XMLID_393_">
			<path class="st3" d="M12.4,35.5c-0.1,0-0.1,0.1,0,0.1c0.1,0,0.1,0,0.2,0c0.1,0,0.1-0.1,0-0.1C12.5,35.5,12.5,35.5,12.4,35.5z"/>
		</g>
		<g id="XMLID_392_">
			<ellipse class="st3" cx="12" cy="35.3" rx="0.1" ry="0.1"/>
		</g>
		<g id="XMLID_391_">
			<path class="st3" d="M11.4,35c-0.1,0-0.1,0.1,0,0.1c0.1,0,0.1,0,0.2,0c0.1,0,0.1-0.1,0-0.1C11.6,35,11.5,35,11.4,35z"/>
		</g>
		<g id="XMLID_390_">
			<path class="st3" d="M11,34.7c-0.1,0-0.1,0.1,0,0.1c0.1,0,0.1,0,0.2,0c0.1,0,0.1-0.1,0-0.1C11.1,34.7,11,34.7,11,34.7z"/>
		</g>
		<g id="XMLID_389_">
			<path class="st3" d="M14,35.8c-0.1,0-0.1,0-0.2,0c-0.1,0-0.1,0.1,0,0.1c0.1,0,0.1,0,0.2,0C14.1,35.9,14.1,35.9,14,35.8z"/>
		</g>
		<g id="XMLID_388_">
			<ellipse class="st3" cx="13.5" cy="35.6" rx="0.1" ry="0.1"/>
		</g>
		<g id="XMLID_387_">
			<ellipse class="st3" cx="13" cy="35.3" rx="0.1" ry="0.1"/>
		</g>
		<g id="XMLID_386_">
			<path class="st3" d="M12.4,35c-0.1,0-0.1,0.1,0,0.1c0.1,0,0.1,0,0.2,0c0.1,0,0.1-0.1,0-0.1C12.5,35,12.5,35,12.4,35z"/>
		</g>
		<g id="XMLID_385_">
			<path class="st3" d="M11.9,34.7c-0.1,0-0.1,0.1,0,0.1c0.1,0,0.1,0,0.2,0c0.1,0,0.1-0.1,0-0.1C12.1,34.7,12,34.7,11.9,34.7z"/>
		</g>
		<g id="XMLID_384_">
			<path class="st3" d="M11.5,34.4c-0.1,0-0.1,0.1,0,0.1c0.1,0,0.1,0,0.2,0c0.1,0,0.1-0.1,0-0.1C11.6,34.4,11.5,34.4,11.5,34.4z"/>
		</g>
		<g id="XMLID_383_">
			<path class="st3" d="M14.5,35.5c-0.1,0-0.1,0-0.2,0c-0.1,0-0.1,0.1,0,0.1c0.1,0,0.1,0,0.2,0C14.6,35.6,14.6,35.6,14.5,35.5z"/>
		</g>
		<g id="XMLID_382_">
			<path class="st3" d="M13.9,35.3c-0.1,0-0.1,0.1,0,0.1c0.1,0,0.1,0,0.2,0c0.1,0,0.1-0.1,0-0.1C14,35.2,13.9,35.2,13.9,35.3z"/>
		</g>
		<g id="XMLID_381_">
			<path class="st3" d="M13.4,35c-0.1,0-0.1,0.1,0,0.1c0.1,0,0.1,0,0.2,0c0.1,0,0.1-0.1,0-0.1C13.5,35,13.4,35,13.4,35z"/>
		</g>
		<g id="XMLID_380_">
			<path class="st3" d="M12.9,34.7c-0.1,0-0.1,0.1,0,0.1c0.1,0,0.1,0,0.2,0c0.1,0,0.1-0.1,0-0.1S12.9,34.7,12.9,34.7z"/>
		</g>
		<g id="XMLID_379_">
			<path class="st3" d="M12.4,34.4c-0.1,0-0.1,0.1,0,0.1c0.1,0,0.1,0,0.2,0c0.1,0,0.1-0.1,0-0.1C12.5,34.4,12.5,34.4,12.4,34.4z"/>
		</g>
		<g id="XMLID_378_">
			<path class="st3" d="M11.1,37.4c-0.1,0-0.1,0-0.2,0s-0.1,0.1,0,0.1c0.1,0,0.1,0,0.2,0C11.2,37.5,11.2,37.5,11.1,37.4z"/>
		</g>
		<g id="XMLID_377_">
			<path class="st3" d="M10.5,37.2c-0.1,0-0.1,0.1,0,0.1c0.1,0,0.1,0,0.2,0c0.1,0,0.1-0.1,0-0.1C10.6,37.1,10.5,37.1,10.5,37.2z"/>
		</g>
		<g id="XMLID_376_">
			<path class="st3" d="M10,36.9c-0.1,0-0.1,0.1,0,0.1c0.1,0,0.1,0,0.2,0c0.1,0,0.1-0.1,0-0.1C10.1,36.9,10,36.9,10,36.9z"/>
		</g>
		<g id="XMLID_375_">
			<ellipse class="st3" cx="9.6" cy="36.7" rx="0.1" ry="0.1"/>
		</g>
		<g id="XMLID_374_">
			<ellipse class="st3" cx="9.1" cy="36.4" rx="0.1" ry="0.1"/>
		</g>
	</g>
	<g id="XMLID_280_">
		<g id="XMLID_372_">
			<path class="st3" d="M31.5,36.5c0.1,0,0.1,0.1,0,0.1c-0.1,0-0.1,0-0.2,0c-0.1,0-0.1-0.1,0-0.1C31.3,36.4,31.4,36.4,31.5,36.5z"/>
		</g>
		<g id="XMLID_371_">
			<path class="st3" d="M32,36.2c0.1,0,0.1,0.1,0,0.1c-0.1,0-0.1,0-0.2,0c-0.1,0-0.1-0.1,0-0.1C31.8,36.2,31.9,36.2,32,36.2z"/>
		</g>
		<g id="XMLID_370_">
			<path class="st3" d="M32.4,35.9c0.1,0,0.1,0.1,0,0.1c-0.1,0-0.1,0-0.2,0c-0.1,0-0.1-0.1,0-0.1C32.3,35.9,32.4,35.9,32.4,35.9z"/>
		</g>
		<g id="XMLID_369_">
			<ellipse class="st3" cx="32.8" cy="35.7" rx="0.1" ry="0.1"/>
		</g>
		<g id="XMLID_368_">
			<path class="st3" d="M33.4,35.4c0.1,0,0.1,0.1,0,0.1c-0.1,0-0.1,0-0.2,0c-0.1,0-0.1-0.1,0-0.1C33.3,35.3,33.3,35.3,33.4,35.4z"/>
		</g>
		<g id="XMLID_367_">
			<ellipse class="st3" cx="33.8" cy="35.1" rx="0.1" ry="0.1"/>
		</g>
		<g id="XMLID_366_">
			<path class="st3" d="M31,36.2c0.1,0,0.1,0.1,0,0.1c-0.1,0-0.1,0-0.2,0c-0.1,0-0.1-0.1,0-0.1C30.9,36.2,30.9,36.2,31,36.2z"/>
		</g>
		<g id="XMLID_365_">
			<path class="st3" d="M31.5,35.9c0.1,0,0.1,0.1,0,0.1c-0.1,0-0.1,0-0.2,0c-0.1,0-0.1-0.1,0-0.1C31.3,35.9,31.4,35.9,31.5,35.9z"/>
		</g>
		<g id="XMLID_364_">
			<ellipse class="st3" cx="31.9" cy="35.7" rx="0.1" ry="0.1"/>
		</g>
		<g id="XMLID_363_">
			<path class="st3" d="M32.4,35.4c0.1,0,0.1,0.1,0,0.1c-0.1,0-0.1,0-0.2,0c-0.1,0-0.1-0.1,0-0.1C32.3,35.3,32.4,35.3,32.4,35.4z"/>
		</g>
		<g id="XMLID_362_">
			<path class="st3" d="M32.9,35.1c0.1,0,0.1,0.1,0,0.1c-0.1,0-0.1,0-0.2,0c-0.1,0-0.1-0.1,0-0.1C32.8,35.1,32.9,35.1,32.9,35.1z"/>
		</g>
		<g id="XMLID_361_">
			<path class="st3" d="M33.4,34.8c0.1,0,0.1,0.1,0,0.1c-0.1,0-0.1,0-0.2,0c-0.1,0-0.1-0.1,0-0.1C33.3,34.8,33.3,34.8,33.4,34.8z"/>
		</g>
		<g id="XMLID_360_">
			<path class="st3" d="M30.5,35.9c0.1,0,0.1,0.1,0,0.1c-0.1,0-0.1,0-0.2,0c-0.1,0-0.1-0.1,0-0.1C30.4,35.9,30.5,35.9,30.5,35.9z"/>
		</g>
		<g id="XMLID_359_">
			<ellipse class="st3" cx="30.9" cy="35.7" rx="0.1" ry="0.1"/>
		</g>
		<g id="XMLID_358_">
			<path class="st3" d="M31.5,35.4c0.1,0,0.1,0.1,0,0.1c-0.1,0-0.1,0-0.2,0c-0.1,0-0.1-0.1,0-0.1C31.3,35.3,31.4,35.3,31.5,35.4z"/>
		</g>
		<g id="XMLID_357_">
			<path class="st3" d="M32,35.1c0.1,0,0.1,0.1,0,0.1c-0.1,0-0.1,0-0.2,0c-0.1,0-0.1-0.1,0-0.1C31.8,35.1,31.9,35.1,32,35.1z"/>
		</g>
		<g id="XMLID_356_">
			<path class="st3" d="M32.4,34.8c0.1,0,0.1,0.1,0,0.1c-0.1,0-0.1,0-0.2,0c-0.1,0-0.1-0.1,0-0.1C32.3,34.8,32.4,34.8,32.4,34.8z"/>
		</g>
		<g id="XMLID_355_">
			<path class="st3" d="M32.9,34.5c0.1,0,0.1,0.1,0,0.1c-0.1,0-0.1,0-0.2,0c-0.1,0-0.1-0.1,0-0.1C32.8,34.5,32.9,34.5,32.9,34.5z"/>
		</g>
		<g id="XMLID_354_">
			<path class="st3" d="M30,35.6c0.1,0,0.1,0.1,0,0.1c-0.1,0-0.1,0-0.2,0c-0.1,0-0.1-0.1,0-0.1C29.9,35.6,30,35.6,30,35.6z"/>
		</g>
		<g id="XMLID_353_">
			<path class="st3" d="M30.5,35.4c0.1,0,0.1,0.1,0,0.1c-0.1,0-0.1,0-0.2,0c-0.1,0-0.1-0.1,0-0.1C30.4,35.3,30.5,35.3,30.5,35.4z"/>
		</g>
		<g id="XMLID_352_">
			<path class="st3" d="M31,35.1c0.1,0,0.1,0.1,0,0.1c-0.1,0-0.1,0-0.2,0c-0.1,0-0.1-0.1,0-0.1C30.9,35.1,30.9,35.1,31,35.1z"/>
		</g>
		<g id="XMLID_351_">
			<ellipse class="st3" cx="31.4" cy="34.9" rx="0.1" ry="0.1"/>
		</g>
		<g id="XMLID_350_">
			<ellipse class="st3" cx="31.9" cy="34.6" rx="0.1" ry="0.1"/>
		</g>
		<g id="XMLID_349_">
			<path class="st3" d="M32.4,34.3c0.1,0,0.1,0.1,0,0.1c-0.1,0-0.1,0-0.2,0c-0.1,0-0.1-0.1,0-0.1C32.3,34.2,32.4,34.2,32.4,34.3z"/>
		</g>
		<g id="XMLID_348_">
			<ellipse class="st3" cx="29.5" cy="35.4" rx="0.1" ry="0.1"/>
		</g>
		<g id="XMLID_347_">
			<path class="st3" d="M30,35.1c0.1,0,0.1,0.1,0,0.1c-0.1,0-0.1,0-0.2,0c-0.1,0-0.1-0.1,0-0.1C29.9,35.1,30,35.1,30,35.1z"/>
		</g>
		<g id="XMLID_346_">
			<ellipse class="st3" cx="30.4" cy="34.9" rx="0.1" ry="0.1"/>
		</g>
		<g id="XMLID_345_">
			<path class="st3" d="M31,34.5c0.1,0,0.1,0.1,0,0.1c-0.1,0-0.1,0-0.2,0c-0.1,0-0.1-0.1,0-0.1S30.9,34.5,31,34.5z"/>
		</g>
		<g id="XMLID_344_">
			<path class="st3" d="M31.5,34.3c0.1,0,0.1,0.1,0,0.1c-0.1,0-0.1,0-0.2,0c-0.1,0-0.1-0.1,0-0.1C31.3,34.2,31.4,34.2,31.5,34.3z"/>
		</g>
		<g id="XMLID_343_">
			<path class="st3" d="M32,34c0.1,0,0.1,0.1,0,0.1c-0.1,0-0.1,0-0.2,0c-0.1,0-0.1-0.1,0-0.1C31.8,34,31.9,34,32,34z"/>
		</g>
		<g id="XMLID_342_">
			<path class="st3" d="M29.1,35.1c0.1,0,0.1,0.1,0,0.1c-0.1,0-0.1,0-0.2,0c-0.1,0-0.1-0.1,0-0.1C28.9,35.1,29,35.1,29.1,35.1z"/>
		</g>
		<g id="XMLID_341_">
			<ellipse class="st3" cx="29.4" cy="34.9" rx="0.1" ry="0.1"/>
		</g>
		<g id="XMLID_340_">
			<ellipse class="st3" cx="29.9" cy="34.6" rx="0.1" ry="0.1"/>
		</g>
		<g id="XMLID_339_">
			<path class="st3" d="M30.5,34.3c0.1,0,0.1,0.1,0,0.1c-0.1,0-0.1,0-0.2,0c-0.1,0-0.1-0.1,0-0.1C30.4,34.2,30.5,34.2,30.5,34.3z"/>
		</g>
		<g id="XMLID_338_">
			<path class="st3" d="M31,34c0.1,0,0.1,0.1,0,0.1c-0.1,0-0.1,0-0.2,0c-0.1,0-0.1-0.1,0-0.1C30.9,34,30.9,34,31,34z"/>
		</g>
		<g id="XMLID_337_">
			<path class="st3" d="M31.5,33.7c0.1,0,0.1,0.1,0,0.1c-0.1,0-0.1,0-0.2,0c-0.1,0-0.1-0.1,0-0.1C31.3,33.7,31.4,33.7,31.5,33.7z"/>
		</g>
		<g id="XMLID_336_">
			<ellipse class="st3" cx="29" cy="34.6" rx="0.1" ry="0.1"/>
		</g>
		<g id="XMLID_335_">
			<ellipse class="st3" cx="29.4" cy="34.3" rx="0.1" ry="0.1"/>
		</g>
		<g id="XMLID_334_">
			<path class="st3" d="M30,34c0.1,0,0.1,0.1,0,0.1c-0.1,0-0.1,0-0.2,0c-0.1,0-0.1-0.1,0-0.1C29.9,34,30,34,30,34z"/>
		</g>
		<g id="XMLID_333_">
			<ellipse class="st3" cx="30.4" cy="33.8" rx="0.1" ry="0.1"/>
		</g>
		<g id="XMLID_332_">
			<path class="st3" d="M31,33.4c0.1,0,0.1,0.1,0,0.1c-0.1,0-0.1,0-0.2,0c-0.1,0-0.1-0.1,0-0.1C30.9,33.4,30.9,33.4,31,33.4z"/>
		</g>
		<g id="XMLID_331_">
			<ellipse class="st3" cx="32.4" cy="36.5" rx="0.1" ry="0.1"/>
		</g>
		<g id="XMLID_330_">
			<ellipse class="st3" cx="32.8" cy="36.2" rx="0.1" ry="0.1"/>
		</g>
		<g id="XMLID_329_">
			<ellipse class="st3" cx="33.3" cy="35.9" rx="0.1" ry="0.1"/>
		</g>
		<g id="XMLID_328_">
			<path class="st3" d="M33.9,35.6c0.1,0,0.1,0.1,0,0.1c-0.1,0-0.1,0-0.2,0c-0.1,0-0.1-0.1,0-0.1C33.8,35.6,33.8,35.6,33.9,35.6z"/>
		</g>
		<g id="XMLID_327_">
			<path class="st3" d="M34.4,35.3c0.1,0,0.1,0.1,0,0.1c-0.1,0-0.1,0-0.2,0c-0.1,0-0.1-0.1,0-0.1C34.2,35.3,34.3,35.3,34.4,35.3z"/>
		</g>
		<g id="XMLID_326_">
			<path class="st3" d="M34.4,34.8c0.1,0,0.1,0.1,0,0.1c-0.1,0-0.1,0-0.2,0c-0.1,0-0.1-0.1,0-0.1C34.2,34.8,34.3,34.8,34.4,34.8z"/>
		</g>
		<g id="XMLID_325_">
			<ellipse class="st3" cx="34.8" cy="34.6" rx="0.1" ry="0.1"/>
		</g>
		<g id="XMLID_324_">
			<path class="st3" d="M35.3,34.3c0.1,0,0.1,0.1,0,0.1c-0.1,0-0.1,0-0.2,0c-0.1,0-0.1-0.1,0-0.1C35.2,34.2,35.3,34.2,35.3,34.3z"/>
		</g>
		<g id="XMLID_323_">
			<path class="st3" d="M35.8,34c0.1,0,0.1,0.1,0,0.1c-0.1,0-0.1,0-0.2,0c-0.1,0-0.1-0.1,0-0.1C35.7,34,35.8,34,35.8,34z"/>
		</g>
		<g id="XMLID_322_">
			<path class="st3" d="M36.3,33.7c0.1,0,0.1,0.1,0,0.1c-0.1,0-0.1,0-0.2,0c-0.1,0-0.1-0.1,0-0.1C36.2,33.7,36.2,33.7,36.3,33.7z"/>
		</g>
		<g id="XMLID_321_">
			<ellipse class="st3" cx="36.7" cy="33.5" rx="0.1" ry="0.1"/>
		</g>
		<g id="XMLID_320_">
			<path class="st3" d="M33.7,34.5c0.1,0,0.1,0,0.2,0c0.1,0,0.1,0.1,0,0.1c-0.1,0-0.1,0-0.2,0C33.6,34.6,33.6,34.6,33.7,34.5z"/>
		</g>
		<g id="XMLID_319_">
			<path class="st3" d="M34.4,34.3c0.1,0,0.1,0.1,0,0.1c-0.1,0-0.1,0-0.2,0c-0.1,0-0.1-0.1,0-0.1C34.2,34.2,34.3,34.2,34.4,34.3z"/>
		</g>
		<g id="XMLID_318_">
			<path class="st3" d="M34.8,34c0.1,0,0.1,0.1,0,0.1c-0.1,0-0.1,0-0.2,0c-0.1,0-0.1-0.1,0-0.1C34.7,34,34.8,34,34.8,34z"/>
		</g>
		<g id="XMLID_317_">
			<ellipse class="st3" cx="35.2" cy="33.8" rx="0.1" ry="0.1"/>
		</g>
		<g id="XMLID_316_">
			<ellipse class="st3" cx="35.7" cy="33.5" rx="0.1" ry="0.1"/>
		</g>
		<g id="XMLID_315_">
			<path class="st3" d="M36.3,33.2c0.1,0,0.1,0.1,0,0.1c-0.1,0-0.1,0-0.2,0c-0.1,0-0.1-0.1,0-0.1C36.2,33.1,36.2,33.1,36.3,33.2z"/>
		</g>
		<g id="XMLID_314_">
			<path class="st3" d="M33.2,34.3c0.1,0,0.1,0,0.2,0c0.1,0,0.1,0.1,0,0.1c-0.1,0-0.1,0-0.2,0C33.2,34.3,33.2,34.3,33.2,34.3z"/>
		</g>
		<g id="XMLID_313_">
			<path class="st3" d="M33.9,34c0.1,0,0.1,0.1,0,0.1c-0.1,0-0.1,0-0.2,0c-0.1,0-0.1-0.1,0-0.1C33.7,34,33.8,34,33.9,34z"/>
		</g>
		<g id="XMLID_312_">
			<ellipse class="st3" cx="34.3" cy="33.8" rx="0.1" ry="0.1"/>
		</g>
		<g id="XMLID_311_">
			<path class="st3" d="M34.8,33.4c0.1,0,0.1,0.1,0,0.1c-0.1,0-0.1,0-0.2,0c-0.1,0-0.1-0.1,0-0.1C34.7,33.4,34.8,33.4,34.8,33.4z"/>
		</g>
		<g id="XMLID_310_">
			<path class="st3" d="M35.3,33.2c0.1,0,0.1,0.1,0,0.1c-0.1,0-0.1,0-0.2,0c-0.1,0-0.1-0.1,0-0.1C35.2,33.1,35.3,33.1,35.3,33.2z"/>
		</g>
		<g id="XMLID_309_">
			<path class="st3" d="M35.8,32.9c0.1,0,0.1,0.1,0,0.1c-0.1,0-0.1,0-0.2,0c-0.1,0-0.1-0.1,0-0.1C35.7,32.9,35.8,32.9,35.8,32.9z"/>
		</g>
		<g id="XMLID_308_">
			<path class="st3" d="M32.7,34c0.1,0,0.1,0,0.2,0c0.1,0,0.1,0.1,0,0.1s-0.1,0-0.2,0C32.7,34.1,32.7,34,32.7,34z"/>
		</g>
		<g id="XMLID_307_">
			<path class="st3" d="M33.4,33.7c0.1,0,0.1,0.1,0,0.1c-0.1,0-0.1,0-0.2,0c-0.1,0-0.1-0.1,0-0.1C33.3,33.7,33.4,33.7,33.4,33.7z"/>
		</g>
		<g id="XMLID_306_">
			<path class="st3" d="M33.9,33.4c0.1,0,0.1,0.1,0,0.1c-0.1,0-0.1,0-0.2,0c-0.1,0-0.1-0.1,0-0.1C33.7,33.4,33.8,33.4,33.9,33.4z"/>
		</g>
		<g id="XMLID_305_">
			<ellipse class="st3" cx="34.3" cy="33.2" rx="0.1" ry="0.1"/>
		</g>
		<g id="XMLID_304_">
			<path class="st3" d="M34.8,32.9c0.1,0,0.1,0.1,0,0.1c-0.1,0-0.1,0-0.2,0c-0.1,0-0.1-0.1,0-0.1C34.7,32.9,34.8,32.9,34.8,32.9z"/>
		</g>
		<g id="XMLID_303_">
			<ellipse class="st3" cx="35.2" cy="32.7" rx="0.1" ry="0.1"/>
		</g>
		<g id="XMLID_302_">
			<path class="st3" d="M32.3,33.7c0.1,0,0.1,0,0.2,0c0.1,0,0.1,0.1,0,0.1c-0.1,0-0.1,0-0.2,0C32.2,33.8,32.2,33.7,32.3,33.7z"/>
		</g>
		<g id="XMLID_301_">
			<ellipse class="st3" cx="32.8" cy="33.5" rx="0.1" ry="0.1"/>
		</g>
		<g id="XMLID_300_">
			<path class="st3" d="M33.4,33.2c0.1,0,0.1,0.1,0,0.1c-0.1,0-0.1,0-0.2,0c-0.1,0-0.1-0.1,0-0.1C33.3,33.1,33.4,33.1,33.4,33.2z"/>
		</g>
		<g id="XMLID_299_">
			<ellipse class="st3" cx="33.8" cy="32.9" rx="0.1" ry="0.1"/>
		</g>
		<g id="XMLID_298_">
			<path class="st3" d="M34.4,32.6c0.1,0,0.1,0.1,0,0.1c-0.1,0-0.1,0-0.2,0c-0.1,0-0.1-0.1,0-0.1C34.2,32.6,34.3,32.6,34.4,32.6z"/>
		</g>
		<g id="XMLID_297_">
			<path class="st3" d="M34.8,32.3c0.1,0,0.1,0.1,0,0.1c-0.1,0-0.1,0-0.2,0c-0.1,0-0.1-0.1,0-0.1C34.7,32.3,34.8,32.3,34.8,32.3z"/>
		</g>
		<g id="XMLID_296_">
			<path class="st3" d="M31.8,33.4c0.1,0,0.1,0,0.2,0c0.1,0,0.1,0.1,0,0.1s-0.1,0-0.2,0C31.7,33.5,31.7,33.5,31.8,33.4z"/>
		</g>
		<g id="XMLID_295_">
			<ellipse class="st3" cx="32.3" cy="33.2" rx="0.1" ry="0.1"/>
		</g>
		<g id="XMLID_294_">
			<ellipse class="st3" cx="32.8" cy="32.9" rx="0.1" ry="0.1"/>
		</g>
		<g id="XMLID_293_">
			<path class="st3" d="M33.4,32.6c0.1,0,0.1,0.1,0,0.1c-0.1,0-0.1,0-0.2,0c-0.1,0-0.1-0.1,0-0.1C33.3,32.6,33.3,32.6,33.4,32.6z"/>
		</g>
		<g id="XMLID_292_">
			<path class="st3" d="M33.9,32.3c0.1,0,0.1,0.1,0,0.1c-0.1,0-0.1,0-0.2,0c-0.1,0-0.1-0.1,0-0.1C33.7,32.3,33.8,32.3,33.9,32.3z"/>
		</g>
		<g id="XMLID_291_">
			<path class="st3" d="M34.4,32.1c0.1,0,0.1,0.1,0,0.1c-0.1,0-0.1,0-0.2,0c-0.1,0-0.1-0.1,0-0.1C34.2,32,34.3,32,34.4,32.1z"/>
		</g>
		<g id="XMLID_290_">
			<path class="st3" d="M31.3,33.2c0.1,0,0.1,0,0.2,0c0.1,0,0.1,0.1,0,0.1c-0.1,0-0.1,0-0.2,0C31.2,33.2,31.2,33.2,31.3,33.2z"/>
		</g>
		<g id="XMLID_289_">
			<path class="st3" d="M32,32.9c0.1,0,0.1,0.1,0,0.1c-0.1,0-0.1,0-0.2,0c-0.1,0-0.1-0.1,0-0.1C31.8,32.9,31.9,32.9,32,32.9z"/>
		</g>
		<g id="XMLID_288_">
			<path class="st3" d="M32.4,32.6c0.1,0,0.1,0.1,0,0.1c-0.1,0-0.1,0-0.2,0c-0.1,0-0.1-0.1,0-0.1C32.3,32.6,32.4,32.6,32.4,32.6z"/>
		</g>
		<g id="XMLID_287_">
			<path class="st3" d="M32.9,32.3c0.1,0,0.1,0.1,0,0.1c-0.1,0-0.1,0-0.2,0c-0.1,0-0.1-0.1,0-0.1C32.8,32.3,32.9,32.3,32.9,32.3z"/>
		</g>
		<g id="XMLID_286_">
			<path class="st3" d="M33.4,32.1c0.1,0,0.1,0.1,0,0.1c-0.1,0-0.1,0-0.2,0c-0.1,0-0.1-0.1,0-0.1C33.3,32,33.3,32,33.4,32.1z"/>
		</g>
		<g id="XMLID_285_">
			<path class="st3" d="M34.7,35.1c0.1,0,0.1,0,0.2,0s0.1,0.1,0,0.1c-0.1,0-0.1,0-0.2,0C34.6,35.1,34.6,35.1,34.7,35.1z"/>
		</g>
		<g id="XMLID_284_">
			<path class="st3" d="M35.3,34.8c0.1,0,0.1,0.1,0,0.1c-0.1,0-0.1,0-0.2,0c-0.1,0-0.1-0.1,0-0.1C35.2,34.7,35.3,34.7,35.3,34.8z"/>
		</g>
		<g id="XMLID_283_">
			<path class="st3" d="M35.8,34.5c0.1,0,0.1,0.1,0,0.1c-0.1,0-0.1,0-0.2,0c-0.1,0-0.1-0.1,0-0.1C35.7,34.5,35.8,34.5,35.8,34.5z"/>
		</g>
		<g id="XMLID_282_">
			<ellipse class="st3" cx="36.2" cy="34.3" rx="0.1" ry="0.1"/>
		</g>
		<g id="XMLID_281_">
			<ellipse class="st3" cx="36.7" cy="34" rx="0.1" ry="0.1"/>
		</g>
	</g>
	<g>
		<path class="st2" d="M13.9,11.3c0.2-0.4,0.4-0.8,0.7-1.3c1.5-2.6,0-6.3-1.7-7.8c-0.8-0.7-2.2-1-3.2-0.1C9.1,2.6,8.8,3.7,9.8,5.1
			c1.5,2,1.8,3.7,0.9,5.2c-0.2,0.3-0.3,0.6-0.4,0.9c0,0-0.1,0-0.1,0c-0.1,0-7.3,1.5-7.8,9.5c-0.3,4.4,1.8,7.7,3.1,9.8
			c0.4,0.6,0.7,1.1,0.8,1.5c0.3,0.9,0.4,1.5,0.3,1.7C6,34.1,5.7,34.9,6,35.6c0.2,0.7,0.9,1.2,1.7,1.2c2.4,0.1,3-2.1,3.1-3.5
			c0.1-1.5-0.1-2.8-0.2-3.9c0-0.2-0.1-0.4-0.1-0.6c0.5,0.2,1.1,0.4,1.7,0.4c0.7,0,1.4-0.1,2.1-0.6c0,0.4,0,0.8,0,1.2
			c-0.1,1.3-0.1,2.8-0.1,4.1c0,1.7,0.9,2.8,2.6,3c0.1,0,0.2,0,0.3,0c0.8,0,1.5-0.3,1.8-0.8c0,0,0,0,0,0c0.5-0.9,0.3-1.7-0.6-2.5
			c-0.3-0.3,0.5-2.3,0.9-3.1l0.1-0.1c0.1-0.2,0.2-0.5,0.4-0.8c0.9-2,2.9-6.1,2.2-10.4C20.9,14.3,17.1,11.9,13.9,11.3z"/>
	</g>
	<g>
		<path class="st4" d="M24.6,12.5C24.6,12.5,24.6,12.5,24.6,12.5C24.6,12.5,24.6,12.5,24.6,12.5z"/>
	</g>
	<g>
		<polygon class="st4" points="22.1,17.6 22.1,17.6 22.1,17.6 22.1,17.6 		"/>
	</g>
	<g>
		<path class="st4" d="M22.1,17.7c0,0,0,0.1,0,0.1c0,0,0,0,0,0C22.1,17.7,22.1,17.7,22.1,17.7C22.1,17.7,22.1,17.7,22.1,17.7z"/>
	</g>
	<g>
		<polygon class="st4" points="25.3,9 25.3,9 25.3,9 25.3,9 		"/>
	</g>
	<g>
		<path class="st4" d="M25.7,10C25.7,10,25.7,9.9,25.7,10C25.7,9.9,25.7,10,25.7,10z"/>
	</g>
	<g>
		<path class="st5" d="M28.5,6.9C28.5,6.9,28.5,6.9,28.5,6.9"/>
	</g>
	<g>
		<path class="st4" d="M28.5,7.1C28.5,7.1,28.5,7.1,28.5,7.1C28.5,7.1,28.5,7.1,28.5,7.1z"/>
	</g>
	<g>
		<polygon class="st4" points="28.5,7 28.5,7 28.5,7 28.5,7 		"/>
	</g>
	<g>
		<path class="st4" d="M26.9,11.6C26.8,11.6,26.8,11.5,26.9,11.6C26.8,11.5,26.8,11.5,26.9,11.6C26.8,11.5,26.8,11.5,26.9,11.6
			C26.8,11.5,26.8,11.5,26.9,11.6C26.8,11.5,26.8,11.6,26.9,11.6z"/>
	</g>
	<g>
		<path class="st4" d="M37.4,25.6C37.4,25.6,37.3,25.7,37.4,25.6C37.3,25.7,37.4,25.6,37.4,25.6z"/>
	</g>
	<g>
		<path class="st4" d="M37.4,25.4C37.4,25.4,37.4,25.4,37.4,25.4C37.4,25.4,37.4,25.4,37.4,25.4z"/>
	</g>
	<g>
		<path class="st4" d="M31.4,31.9c0,0,0,0.1,0,0.1c0,0,0,0,0,0C31.4,32,31.4,32,31.4,31.9C31.4,32,31.4,31.9,31.4,31.9
			C31.4,31.9,31.4,31.9,31.4,31.9z"/>
	</g>
	<g>
		<path class="st4" d="M29.3,33.6C29.3,33.6,29.3,33.6,29.3,33.6C29.3,33.6,29.3,33.6,29.3,33.6z"/>
	</g>
	<g>
		<path class="st4" d="M31.3,32.2C31.3,32.3,31.3,32.3,31.3,32.2C31.3,32.3,31.3,32.3,31.3,32.2z"/>
	</g>
	<g>
		<path class="st4" d="M26.9,28.7C26.9,28.7,26.9,28.7,26.9,28.7C27,28.7,27,28.8,26.9,28.7C26.9,28.7,26.9,28.7,26.9,28.7
			C26.9,28.7,26.9,28.7,26.9,28.7z"/>
	</g>
	<g>
		<path class="st4" d="M28.8,23.6c0-0.1,0-0.1,0-0.2C28.8,23.5,28.8,23.5,28.8,23.6z"/>
	</g>
	<g>
		<path class="st4" d="M28.8,23.3C28.8,23.3,28.8,23.2,28.8,23.3C28.8,23.2,28.8,23.3,28.8,23.3z"/>
	</g>
	<g>
		<path class="st4" d="M28.8,23.8C28.8,23.8,28.8,23.7,28.8,23.8C28.8,23.7,28.8,23.8,28.8,23.8z"/>
	</g>
	<g>
		<polygon class="st4" points="28.2,30.1 28.2,30.1 28.2,30.1 28.2,30.1 28.2,30.1 28.2,30.1 28.2,30.1 28.2,30.1 28.2,30.1 		"/>
	</g>
	<g>
		<path class="st4" d="M29.1,17.9C29.1,17.9,29.1,17.9,29.1,17.9C29.1,18,29.1,18,29.1,17.9C29.1,18,29.1,18,29.1,17.9
			C29.1,18,29.1,18,29.1,17.9z"/>
	</g>
	<g>
		<rect x="30.5" y="18.6" class="st4" width="0" height="0"/>
	</g>
	<g>
		<path class="st4" d="M27.8,13.9c-0.1,0-0.2,0-0.2,0.1C27.6,13.9,27.7,13.8,27.8,13.9z"/>
	</g>
	<g>
		<path class="st4" d="M28.5,14c0.1-0.1,0.2-0.2,0.4-0.4c0,0,0.1-0.1,0.1-0.1c0,0,0,0,0,0c0,0,0,0,0,0c0.1,0,0.2,0,0.2,0.1
			c0,0,0,0,0,0l0,0l0,0c0,0,0,0,0,0c0,0,0,0,0,0c0,0,0,0,0,0c0,0,0,0,0,0c-0.1-0.1-0.1-0.1-0.2-0.1c0,0,0,0-0.1,0
			C28.8,13.6,28.6,13.8,28.5,14z"/>
	</g>
	<g>
		<polygon class="st4" points="28.4,14 28.4,14 28.4,14 		"/>
	</g>
	<g>
		<path class="st4" d="M27.8,13.9c0,0,0.2,0,0.5,0.1C28,13.9,27.8,13.9,27.8,13.9z"/>
	</g>
	<g>
		<path class="st4" d="M29.4,14.4c-0.1-0.1-0.3-0.1-0.4-0.2C29.1,14.2,29.2,14.3,29.4,14.4C29.3,14.3,29.3,14.3,29.4,14.4
			C29.4,14.4,29.4,14.4,29.4,14.4C29.4,14.4,29.4,14.4,29.4,14.4C29.4,14.4,29.5,14.4,29.4,14.4C29.5,14.4,29.5,14.4,29.4,14.4
			C29.4,14.4,29.4,14.4,29.4,14.4z"/>
	</g>
	<g>
		<path class="st4" d="M31.9,16.3C31.9,16.3,31.9,16.3,31.9,16.3C31.9,16.3,31.9,16.3,31.9,16.3z"/>
	</g>
	<g>
		<polygon class="st4" points="29.9,25.9 29.9,25.9 29.9,25.9 29.9,25.9 		"/>
	</g>
	<g>
		<path class="st4" d="M35.4,32.2C35.4,32.2,35.4,32.2,35.4,32.2C35.4,32.2,35.4,32.2,35.4,32.2z"/>
	</g>
	<g>
		<path class="st4" d="M36.2,32.4C36.2,32.4,36.1,32.4,36.2,32.4C36.1,32.4,36.2,32.4,36.2,32.4z"/>
	</g>
	<g>
		<path class="st4" d="M36,32.4c0,0-0.1,0-0.1,0C35.9,32.4,36,32.4,36,32.4z"/>
	</g>
	<g>
		<path class="st4" d="M34.7,31.3C34.7,31.2,34.7,31.2,34.7,31.3C34.7,31.2,34.7,31.2,34.7,31.3C34.7,31.3,34.7,31.3,34.7,31.3
			C34.7,31.3,34.7,31.3,34.7,31.3z"/>
	</g>
	<g>
		<path class="st4" d="M37.4,31.9C37.4,31.8,37.4,31.8,37.4,31.9C37.4,31.8,37.4,31.8,37.4,31.9c-0.1,0.3-0.3,0.4-0.4,0.4
			c-0.2,0.1-0.5,0.1-0.7,0.1c0.2,0,0.4,0,0.6-0.1c0.1,0,0.1,0,0.2,0c0,0,0.1,0,0.1,0c0.1,0,0.1-0.1,0.2-0.1
			C37.3,32.1,37.3,32,37.4,31.9z"/>
	</g>
	<g>
		<path class="st4" d="M28.8,14.6c-0.1,0-0.2-0.1-0.2-0.1c0,0,0,0-0.1,0.1c0,0,0,0,0.1-0.1l0,0l0,0C28.6,14.5,28.7,14.5,28.8,14.6
			C28.8,14.6,28.8,14.6,28.8,14.6C28.8,14.6,28.8,14.6,28.8,14.6z"/>
	</g>
	<g>
		<path class="st4" d="M33.8,23.3C33.8,23.3,33.8,23.3,33.8,23.3C33.8,23.3,33.8,23.3,33.8,23.3z"/>
	</g>
	<g>
		<path class="st4" d="M27.8,14.8C27.8,14.8,27.8,14.8,27.8,14.8C27.8,14.8,27.8,14.8,27.8,14.8C27.8,14.8,27.8,14.8,27.8,14.8
			C27.8,14.8,27.8,14.8,27.8,14.8C27.8,14.8,27.8,14.8,27.8,14.8C27.8,14.8,27.8,14.9,27.8,14.8C27.8,14.8,27.8,14.8,27.8,14.8
			C27.8,14.8,27.8,14.8,27.8,14.8z"/>
	</g>
	<g>
		<path class="st4" d="M27.8,14.9C27.8,14.9,27.8,14.9,27.8,14.9C27.8,14.9,27.8,14.9,27.8,14.9C27.8,14.9,27.8,14.9,27.8,14.9
			C27.8,14.9,27.8,14.9,27.8,14.9z"/>
	</g>
	<g>
		<path class="st4" d="M28,14.5c0,0,0.1-0.1,0.1-0.1l0,0l0,0C28.1,14.4,28.1,14.4,28,14.5C28.1,14.4,28,14.5,28,14.5
			C28,14.5,28,14.5,28,14.5z"/>
	</g>
	<g>
		<path class="st4" d="M25.8,11.6C25.7,11.6,25.7,11.6,25.8,11.6C25.7,11.6,25.7,11.6,25.8,11.6C25.7,11.6,25.7,11.6,25.8,11.6
			C25.8,11.6,25.8,11.6,25.8,11.6z"/>
	</g>
	<g>
		<path class="st4" d="M35.4,13.2C35.4,13.2,35.4,13.2,35.4,13.2C35.4,13.2,35.4,13.2,35.4,13.2C35.4,13.2,35.4,13.2,35.4,13.2
			C35.4,13.2,35.4,13.2,35.4,13.2z"/>
	</g>
	<g>
		<path class="st4" d="M35.6,13.5C35.6,13.5,35.6,13.5,35.6,13.5c-0.1-0.1-0.2-0.2-0.2-0.3C35.5,13.3,35.5,13.4,35.6,13.5z"/>
	</g>
	<g>
		<path class="st4" d="M22.1,18.4C22.1,18.4,22.1,18.4,22.1,18.4C22.1,18.4,22.1,18.3,22.1,18.4C22.1,18.3,22.1,18.3,22.1,18.4z"/>
	</g>
	<g>
		<polygon class="st4" points="22.1,18.3 22.1,18.3 22.1,18.3 		"/>
	</g>
	<g>
		<path class="st6" d="M27.7,14.2c0,0,0.2,0,0.4,0.1l0,0l0,0v0c0,0-0.1,0.1-0.1,0.1c0,0,0,0,0,0.1c0,0,0,0.1-0.1,0.1c0,0,0,0,0,0
			c0,0-0.1,0.1-0.1,0.1c0,0,0,0,0,0c0,0,0,0,0,0c0,0,0,0,0,0c0,0,0,0.1,0,0.1c0,0,0,0,0,0c0,0,0,0,0,0c0,0.1,0,0.1,0.1,0.1
			c0,0,0.1,0,0.1,0c0.1,0,0.1,0,0.1-0.1c0,0,0.1-0.1,0.2-0.3c0,0,0,0,0,0c0,0,0,0,0,0c0,0,0,0,0,0c0,0,0,0,0.1-0.1l0,0
			c0.1,0,0.2,0.1,0.2,0.1c0,0,0,0,0,0c0,0,0,0,0,0c0.1,0,0.2,0.1,0.3,0.1c0,0,0.1,0,0.1,0c0.1,0,0.1-0.1,0.1-0.1c0,0,0-0.1,0-0.1
			c0-0.1,0-0.1-0.1-0.1c0,0,0,0,0,0c0,0,0,0,0,0c0,0-0.1,0-0.1,0c-0.1-0.1-0.2-0.1-0.3-0.1c0,0,0,0-0.1,0c0.1-0.1,0.2-0.2,0.4-0.3
			c0.1-0.1,0.1-0.1,0.1-0.2c0,0,0,0,0,0c0,0,0,0,0,0c0,0,0,0,0,0c0,0,0,0,0,0c-0.1-0.1-0.1-0.1-0.2-0.1c0,0,0,0,0,0c0,0,0,0,0,0
			c0,0-0.1,0.1-0.1,0.1c-0.1,0.1-0.3,0.2-0.4,0.4c0,0,0,0,0,0c0,0-0.1,0-0.1,0c-0.3-0.1-0.5-0.1-0.5-0.1c-0.1,0-0.2,0-0.2,0.1
			c0,0,0,0,0,0c0,0,0,0.1,0,0.1C27.6,14.2,27.7,14.2,27.7,14.2z"/>
	</g>
	<g>
		<path class="st2" d="M10.3,4.6C10.3,4.7,10.3,4.7,10.3,4.6C10.4,4.7,10.4,4.7,10.3,4.6c0.1,0.1,0.1,0.2,0.2,0.2c0,0,0,0,0,0
			c0.1,0.2,0.2,0.3,0.3,0.5c0.5,0.1,1,0,1.5-0.2c0.5-0.2,0.9-0.7,1.1-1.2c0,0,0,0,0,0c0,0,0-0.1-0.1-0.1c0,0,0,0,0,0
			c0,0,0-0.1-0.1-0.1c0,0,0,0,0,0c0,0,0-0.1-0.1-0.1c0,0,0,0,0,0c-0.1-0.2-0.2-0.3-0.3-0.5c-0.2,0.4-0.6,0.7-1,1
			C11.3,4.4,10.7,4.6,10.3,4.6z"/>
	</g>
	<g>
		<path class="st2" d="M13.3,7.3c-0.6,0.2-1.1,0.2-1.6,0.1c0.1,0.4,0.1,0.7,0.2,1c0.6,0.2,1.4,0.4,2.1,0c0.2-0.1,0.3-0.2,0.5-0.3
			c0.1-0.5,0-1,0-1.5c0,0,0,0,0,0c0,0,0-0.1,0-0.1c0,0,0,0,0,0c0,0,0,0,0,0C14.1,6.8,13.7,7.2,13.3,7.3z"/>
	</g>
	<g>
		<path class="st3" d="M20.5,17.7C20.5,17.7,20.5,17.7,20.5,17.7c0-0.1-0.1-0.1-0.1-0.2c0-0.1-0.1-0.2-0.1-0.2c0-0.1,0-0.1-0.1-0.2
			c0,0,0-0.1,0-0.1c0,0,0,0,0,0c0,0,0-0.1-0.1-0.1c-0.1-0.3-0.3-0.5-0.4-0.7c-0.3,0.1-0.7,0.2-1,0.3c-1.1,0.2-1.6,0.5-1.7,0.8
			c0,0,0,0,0,0c0,0,0,0,0,0c0,0,0,0,0,0c0,0,0,0,0,0c0,0,0,0,0,0c0,0,0,0,0,0c0,0,0,0,0,0c0,0,0,0,0,0c0,0,0,0,0,0c0,0,0,0,0,0
			c0,0,0,0,0,0c0,0,0,0,0,0C17.2,17.7,18.4,17.9,20.5,17.7z"/>
	</g>
	<g>
		<path class="st3" d="M20.8,23.7c0-0.1,0.1-0.3,0.1-0.4c0.1-0.5,0.1-0.9,0.2-1.4c0,0,0-0.1,0-0.1c-0.5-0.1-1-0.1-1.5-0.2
			C17.6,21.2,18.1,22.6,20.8,23.7z"/>
	</g>
	<g>
		<path class="st3" d="M5.6,15.9c-0.2-0.1-0.4-0.1-0.6-0.2c0,0,0,0,0,0c-0.1,0-0.1,0-0.2-0.1c0,0,0,0,0,0c-0.2,0.3-0.4,0.6-0.5,0.9
			c0,0,0,0,0,0c0,0.1-0.1,0.1-0.1,0.2c0,0,0,0,0,0c0,0.1-0.1,0.1-0.1,0.2c0,0,0,0,0,0C4,17,4,17.1,4,17.2
			C7.5,17.7,8.5,16.8,5.6,15.9z"/>
	</g>
	<g>
		<path class="st3" d="M5.2,18.4c-0.5,0-1.1-0.1-1.6-0.2c0,0,0,0.1,0,0.1c-0.1,0.3-0.2,0.6-0.2,0.9c0,0.2-0.1,0.4-0.1,0.6
			C6.8,19.7,7.7,18.5,5.2,18.4z"/>
	</g>
	<g>
		<path class="st3" d="M13.9,11.3c0.2-0.4,0.4-0.8,0.7-1.3c1.5-2.6,0-6.3-1.7-7.8c-0.8-0.7-2.2-1-3.2-0.1C9.1,2.6,8.8,3.7,9.8,5.1
			c1.5,2,1.8,3.7,0.9,5.2c-0.2,0.3-0.3,0.6-0.4,0.9c0,0-0.1,0-0.1,0c-0.1,0-7.3,1.5-7.8,9.5c-0.3,4.4,1.8,7.7,3.1,9.8
			c0.4,0.6,0.7,1.1,0.8,1.5c0.3,0.9,0.4,1.5,0.3,1.7C6,34.1,5.7,34.9,6,35.6c0.2,0.7,0.9,1.2,1.7,1.2c2.4,0.1,3-2.1,3.1-3.5
			c0.1-1.5-0.1-2.8-0.2-3.9c0-0.2-0.1-0.4-0.1-0.6c0.5,0.2,1.1,0.4,1.7,0.4c0.7,0,1.4-0.1,2.1-0.6c0,0.4,0,0.8,0,1.2
			c-0.1,1.3-0.1,2.8-0.1,4.1c0,1.7,0.9,2.8,2.6,3c0.1,0,0.2,0,0.3,0c0.8,0,1.5-0.3,1.8-0.8c0,0,0,0,0,0c0.5-0.9,0.3-1.7-0.6-2.5
			c-0.3-0.3,0.5-2.3,0.9-3.1l0.1-0.1c0.1-0.2,0.2-0.5,0.4-0.8c0.9-2,2.9-6.1,2.2-10.4C20.9,14.3,17.1,11.9,13.9,11.3z M14,9.7
			C14,9.7,14,9.7,14,9.7C14,9.7,14,9.7,14,9.7C14,9.7,14,9.7,14,9.7C14,9.7,14,9.7,14,9.7z M14.4,6.5C14.4,6.5,14.4,6.5,14.4,6.5
			c0,0.1,0,0.1,0,0.2c0,0,0,0,0,0c0.2,1,0.1,2-0.4,2.8c0.1-0.2,0.1-0.3,0.2-0.5c0.1-0.3,0.2-0.6,0.2-0.9c-0.1,0.1-0.3,0.2-0.5,0.3
			c-0.7,0.3-1.5,0.2-2.1,0c0-0.3-0.1-0.6-0.2-1c0.5,0.1,1,0.1,1.6-0.1C13.7,7.2,14.1,6.8,14.4,6.5C14.4,6.5,14.4,6.5,14.4,6.5z
			 M14.3,5.8c0,0.1,0,0.1,0.1,0.2C14.3,5.9,14.3,5.9,14.3,5.8z M14.2,5.6c0-0.1-0.1-0.3-0.1-0.4c0.1,0.2,0.1,0.4,0.2,0.6
			C14.2,5.7,14.2,5.7,14.2,5.6z M14,5c0-0.1-0.1-0.1-0.1-0.2C13.9,4.9,13.9,4.9,14,5z M14.1,5.2C14,5.1,14,5.1,14,5
			C14,5.1,14,5.1,14.1,5.2z M12.4,2.7C12.4,2.7,12.4,2.7,12.4,2.7c-0.6-0.5-1.3-0.6-1.9-0.4C11.1,2.1,11.8,2.1,12.4,2.7z M9.9,2.8
			C9.9,2.8,9.9,2.8,9.9,2.8C9.9,2.8,9.9,2.8,9.9,2.8z M10.5,4.9C10.5,4.9,10.5,4.9,10.5,4.9c0-0.1-0.1-0.1-0.1-0.2c0,0,0,0,0,0
			C9.9,4.1,9.7,3.5,9.8,3c-0.1,0.3,0,0.7,0.2,1.1c0.1,0.2,0.2,0.3,0.3,0.5c0.4,0,1-0.2,1.5-0.5c0.5-0.2,0.8-0.6,1-1
			c-0.1-0.1-0.2-0.3-0.4-0.4C12.8,3,13,3.3,13.2,3.6c0,0,0,0,0,0c0,0,0,0.1,0.1,0.1c0,0,0,0,0,0c0,0,0,0.1,0.1,0.1c0,0,0,0,0,0
			c0,0,0,0.1,0.1,0.1c0,0,0,0,0,0c-0.2,0.5-0.6,1-1.1,1.2c-0.5,0.2-1,0.2-1.5,0.2C10.7,5.2,10.6,5,10.5,4.9z M9.9,2.9
			C9.9,3,9.9,3,9.9,2.9C9.9,3,9.9,3,9.9,2.9z M18.8,29.3c-0.2,0.3-0.3,0.6-0.4,0.8l-0.1,0.1c-0.5,1.2-1,2.3-1,3.1
			c0,0.4,0.1,0.7,0.3,0.9c0.4,0.4,0.6,0.7,0.6,1c0,0,0,0,0,0.1c0,0.2-0.1,0.3-0.2,0.5c-0.3,0.5-0.9,0.4-1.3,0.4
			c-1.2-0.2-1.9-0.9-1.9-2.2c0-0.5,0-1.1,0-1.7c0-0.4,0-0.7,0-1.1c0-0.4,0-0.9,0-1.3c0-0.4,0-0.7,0-1.1c0-0.6,0-1.1,0-1.4
			c0-1.8-0.5-2.8-0.6-3.1c0,0,0,0,0,0c-0.1-0.2-0.3-0.3-0.5-0.2c0,0,0,0,0,0c0,0,0,0,0,0c0,0,0,0,0,0c0,0,0,0,0,0c0,0,0,0,0,0
			c0,0,0,0,0,0c0,0,0,0,0,0c-0.1,0.1-0.1,0.3,0,0.4c0,0,0,0,0,0c0,0,0.5,0.9,0.5,2.7c0,0,0,0.1,0,0.1c0,0,0,0.1,0,0.1
			c-0.3,0.4-0.6,0.6-1,0.7c-0.1,0-0.1,0-0.2,0.1c-1.3,0.4-2.6-0.4-2.7-0.4c0,0,0-0.1,0-0.1l0,0c0,0,0-0.1,0-0.1c0,0,0,0,0,0
			c0,0,0-0.1,0-0.1c0,0,0,0,0,0c0,0,0-0.1,0-0.1c0,0,0,0,0,0c0,0,0-0.1,0-0.1c0,0,0,0,0,0c0,0,0-0.1,0-0.1c0,0,0,0,0,0
			c0,0,0-0.1,0-0.1c0,0,0,0,0,0c0,0,0-0.1,0-0.1c0,0,0,0,0,0c0,0,0-0.1,0-0.1c0,0,0,0,0,0c0,0,0-0.1,0-0.1c0,0,0,0,0,0
			c0,0,0-0.1,0-0.1c0,0,0,0,0,0c0,0,0,0,0-0.1c0,0,0,0,0,0c0,0,0,0,0-0.1c0,0,0,0,0,0c0,0,0-0.1,0-0.1c0,0,0,0,0,0c0,0,0-0.1,0-0.1
			c0,0,0,0,0,0c0,0,0,0,0-0.1c0,0,0,0,0,0c0,0,0,0,0-0.1c0,0,0,0,0,0c0,0,0,0,0-0.1c0,0,0,0,0,0c0,0,0-0.1,0-0.1c0,0,0,0,0,0
			c0,0,0,0,0-0.1c0,0,0,0,0,0c0,0,0,0,0,0c0,0,0,0,0,0c0,0,0,0,0-0.1c0,0,0,0,0,0c0,0,0,0,0-0.1c0,0,0,0,0,0c0,0,0,0,0,0
			c0,0,0,0,0,0c0,0,0,0,0,0c0,0,0,0,0,0c0,0,0,0,0,0c0,0,0,0,0,0c0,0,0,0,0,0c0,0,0,0,0,0c0,0,0,0,0,0c0,0,0,0,0,0c0,0,0,0,0,0
			c0,0,0,0,0,0c0,0,0,0,0,0c0,0,0-0.1,0-0.1c0,0,0-0.1,0-0.1c0,0,0,0,0,0c0-0.2-0.1-0.3-0.3-0.4c-0.2,0-0.3,0-0.4,0.2
			c0,0,0,0.1,0,0.1c0,0.1-0.4,1.4-0.4,2.7c0,0.2,0,0.4,0,0.6c0,0.5,0.1,1.1,0.2,1.7c0.1,1,0.3,2,0.3,3.2c0,0.1,0,0.1,0,0.2
			c0,0.1,0,0.2,0,0.3c0,0,0,0,0,0c-0.1,1.7-0.8,2.6-1.9,2.7c-0.1,0-0.2,0-0.2,0c0,0-0.1,0-0.1,0c0,0-0.1,0-0.1,0
			C7,36,6.8,35.6,6.7,35.4c0-0.1,0-0.2,0-0.3c0,0,0,0,0,0c0-0.3,0.2-0.7,0.5-0.9c0.2-0.1,0.3-0.4,0.3-0.7c0-0.1,0-0.1,0-0.2
			c0,0,0-0.1,0-0.1c0,0,0,0,0-0.1c0,0,0-0.1,0-0.1c0,0,0,0,0-0.1c-0.1-0.5-0.2-1-0.4-1.3c-0.2-0.4-0.5-1-0.9-1.6
			c0-0.1-0.1-0.1-0.1-0.2c0,0,0,0,0,0c0,0,0,0,0,0c0-0.1-0.1-0.1-0.1-0.2c0,0,0,0,0,0c0,0-0.1-0.1-0.1-0.1c0-0.1-0.1-0.1-0.1-0.2
			c0,0,0,0,0,0c-0.1-0.1-0.1-0.2-0.2-0.3c0,0,0,0,0,0c0-0.1-0.1-0.1-0.1-0.2c0,0,0,0,0,0c-0.1-0.1-0.1-0.2-0.2-0.4c0,0,0,0,0,0
			c0,0,0-0.1-0.1-0.1c0,0,0,0,0,0C5,28.2,5,28.1,5,28c0,0,0,0,0,0c0-0.1-0.1-0.2-0.1-0.3c0,0,0,0,0,0c-0.7-1.3-1.3-2.9-1.5-4.7
			c0,0,0,0,0,0c2.6-1,3-2.2,1.2-2c-0.4,0.1-0.8,0.1-1.3,0.1c0,0.1,0,0.3,0,0.4c0,0.2,0,0.4,0,0.5c0-0.4,0-0.8,0-1.2c0,0,0,0,0,0
			c0-0.1,0-0.1,0-0.2c0,0,0,0,0,0c0,0,0,0,0,0v0l0,0c0,0,0,0,0,0c0.4-6,4.8-8,6.5-8.6c0,0,0,0,0,0c0,0,0,0,0.1,0c0,0,0,0,0,0
			c0,0,0.1,0,0.1,0c0,0,0,0,0,0c0,0,0,0,0,0c0,0,0,0,0,0c0,0,0,0,0,0c0,0,0,0,0,0c0,0,0,0,0,0c0,0,0,0,0,0c0,0,0,0,0,0c0,0,0,0,0,0
			c0,0,0,0,0.1,0v0c0,0.1,0,0.2,0,0.4c0,0.3,0,0.5,0,0.5c0,0.1,0.2,0.2,0.3,0.3c0,0,0.1,0,0.1,0c0.1,0,0.2-0.2,0.3-0.3c0,0,0,0,0,0
			c0,0,0-0.1,0-0.1c0,0,0-0.1,0-0.2c0,0,0-0.1,0-0.1c0-0.4,0.1-0.9,0.6-1.7c0.1-0.1,0.1-0.2,0.2-0.3c0.4,0.2,1.1,0.4,2,0.3
			c-0.2,0.4-0.4,0.8-0.5,1.2c0,0,0,0,0,0c0,0,0,0,0,0.1c0,0,0,0,0,0c0,0,0,0,0,0.1c0,0,0,0,0,0c0,0,0,0.1,0,0.1c0,0,0,0,0,0
			c0,0,0,0,0,0c0,0,0,0,0,0c0,0,0,0,0,0c0,0,0,0,0,0.1c0,0,0,0,0,0c0,0,0,0,0,0c0,0,0,0,0,0c0,0,0,0,0,0.1c0,0,0,0,0,0
			c0,0,0,0,0,0.1c0,0,0,0,0,0c0,0,0,0,0,0c0,0,0,0,0,0c0,0,0,0,0,0.1c0,0,0,0,0,0c0,0,0,0,0,0.1c0,0,0,0,0,0c0,0,0,0,0,0
			c0,0,0,0,0,0c0,0,0,0,0,0c0,0,0,0,0,0c0.1,0.1,0.3,0.2,0.5,0.1c0.1-0.1,0.1-0.1,0.1-0.2c0,0,0,0,0,0c0,0,0-0.1,0-0.1c0,0,0,0,0,0
			c0-0.1,0-0.2,0.1-0.5c0,0,0,0,0.1,0c0,0,0,0,0,0c0,0,0,0,0,0c0,0,0,0,0,0c0,0,0,0,0,0c0,0,0,0,0,0c0,0,0,0,0,0c0,0,0,0,0,0
			c0,0,0,0,0,0c0,0,0,0,0,0c0,0,0,0,0,0c0,0,0,0,0,0c0,0,0,0,0,0c0,0,0,0,0,0c0,0,0,0,0.1,0c0,0,0,0,0,0c0,0,0,0,0.1,0c0,0,0,0,0,0
			c0,0,0,0,0,0c0,0,0,0,0.1,0c0,0,0,0,0,0c0,0,0,0,0.1,0c0,0,0,0,0,0c1.9,0.5,5.7,2.1,6.6,6.9c0,0,0,0,0,0.1c0-0.1-0.1-0.3-0.1-0.4
			c-0.6,0.1-1.3,0.1-1.9,0.1c-2.6-0.1-1.7,1.2,2.1,1.7c0-0.3,0-0.5-0.1-0.8c0-0.1,0-0.2,0-0.3c0,0,0-0.1,0-0.1
			C21.6,23.4,19.7,27.4,18.8,29.3z M3.2,22.9C3.2,22.9,3.2,22.9,3.2,22.9C3.2,22.9,3.2,22.9,3.2,22.9z M3.2,22.7
			C3.2,22.7,3.2,22.6,3.2,22.7C3.2,22.6,3.2,22.7,3.2,22.7z M3.2,22.5c0-0.1,0-0.1,0-0.2C3.2,22.4,3.2,22.4,3.2,22.5z M3.2,22.2
			c0-0.1,0-0.1,0-0.2C3.2,22.1,3.2,22.2,3.2,22.2z"/>
	</g>
	<g>
		<path class="st3" d="M10.9,15.4c0,0,0.1,0,0.2,0.1c0,0,0,0,0,0c0,0,0.1,0,0.1,0.1h0l0,0c-0.1,0-0.1,0.1-0.1,0.1c0,0,0,0,0,0
			c0,0,0,0-0.1,0c-0.1,0.1-0.2,0.2-0.2,0.2c0,0-0.1,0.1-0.1,0.1c0,0.1,0,0.1,0.1,0.1c0,0,0.1,0.1,0.1,0.1c0.1,0,0.1,0,0.1-0.1
			c0,0,0.1-0.1,0.2-0.1c0,0,0,0,0,0c0.1-0.1,0.2-0.2,0.4-0.3c0.2,0.1,0.4,0.3,0.6,0.4c0,0,0.1,0,0.1,0c0.1,0,0.1,0,0.2-0.1
			c0,0,0-0.1,0-0.1c0-0.1,0-0.1-0.1-0.2c-0.2-0.1-0.3-0.2-0.5-0.3l0,0l0,0c0.1-0.1,0.3-0.2,0.5-0.3c0.1,0,0.1-0.1,0.1-0.2
			c0,0,0-0.1,0-0.1c0-0.1-0.2-0.1-0.3-0.1c-0.2,0.1-0.4,0.2-0.5,0.3c-0.1,0-0.1,0.1-0.2,0.1c-0.3-0.1-0.5-0.2-0.6-0.3c0,0,0,0,0,0
			c0,0,0,0,0,0c-0.1,0-0.2,0-0.2,0.1c0,0,0,0.1,0,0.1C10.8,15.3,10.8,15.4,10.9,15.4z"/>
	</g>
	<g>
		<path class="st3" d="M30.5,15.1c0.1,0,0.3,0,0.4,0c1.6-0.1,3.1,0.4,4.6,1.2c1.1,0.6,2.1,1.5,2.8,2.6c0.7,1,1,2.2,0.9,3.4
			c0,0.7-0.2,1.4-0.4,2c-0.5,1.3-1,2.5-1.7,3.7c-0.4,0.7-0.6,1.4-0.6,2.1c0,0.3,0.1,0.6,0.3,0.9c0.1,0.1,0.1,0.2,0.2,0.4
			c0.1,0.3,0,0.5-0.3,0.6c-0.4,0.2-0.9,0.2-1.4,0.1c-0.4-0.1-0.6-0.4-0.7-0.8c-0.2-0.5-0.2-1.1-0.2-1.7c0-0.6,0.1-1.2,0.1-1.8
			c0.1-1.1-0.3-2.1-1-3c-0.2-0.2-0.4-0.2-0.6-0.1c-0.2,0.1-0.3,0.3-0.1,0.5c0.5,0.5,0.7,1.2,0.9,1.9c0,0.1,0,0.2-0.1,0.2
			c-0.5,0.6-1.2,0.9-1.9,0.9c-0.4,0-0.8,0-1.3-0.1c-0.1,0-0.2-0.1-0.2-0.2C30,27.2,30,26.5,30,25.8c0-0.4-0.3-0.5-0.6-0.4
			c-0.1,0-0.2,0.2-0.2,0.3c-0.1,1,0,1.9,0.4,2.8c0.2,0.4,0.4,0.7,0.7,1c0.4,0.5,0.8,1.1,1.1,1.7c0.1,0.2,0.2,0.4,0.2,0.6
			c0.1,0.5-0.1,0.9-0.6,1.2c-0.4,0.2-0.8,0.3-1.2,0.2c-0.3-0.1-0.5-0.3-0.5-0.6c0.1-0.9-0.5-1.4-1.1-1.9c-0.5-0.4-1.1-0.7-1.6-1
			c-1-0.7-2-1.4-2.8-2.3c-1-1.2-1.6-2.6-1.6-4.2c0-1.1,0.1-2.2,0.7-3.2c0.5-1,1.2-1.9,2.1-2.5c0.5-0.4,1.1-0.7,1.7-1.1
			c0.1-0.1,0.1,0,0.2,0c0.1,0.1,0.2,0,0.4,0.1c0.2,0.1,0.1,0.2,0.3,0c0.2-0.1,0.2,0,0-0.2c-0.5-0.4-0.7-0.4-0.9-1
			c-0.4-1-0.6-1.8,0.4-2.4c0.5-0.4,1.4-0.5,2.1-0.3c0.4,0.1,0.6,0.5,0.7,0.5c0,0.2,0.3,0.5,0.2,0.7c-0.2,0.5-0.3,0.7-0.2,1.2
			c0.1,0.4,0,0.7,0.4,0.9c0.2,0.1,0.2,0.1,0.4-0.1c0.2-0.2,0.1-0.1-0.1-0.3c-0.1-0.1-0.1-0.3-0.2-0.4C30.3,15.2,30.5,15.1,30.5,15.1
			z M29.9,17c0.2-0.1,0.3-0.2,0.4-0.3c0.1-0.1,0.1-0.2,0-0.3c-0.1,0-0.2,0-0.3,0c-0.2,0.1-0.3,0.3-0.5,0.4c-0.1,0-0.1,0.1-0.2,0.1
			c-0.2,0-0.3-0.1-0.5-0.1c-0.1,0-0.2,0-0.3,0.2c0,0.1,0.1,0.2,0.2,0.2c0.1,0,0.2,0,0.3,0.1c-0.1,0.1-0.3,0.3-0.3,0.4
			c0,0.1,0,0.2,0,0.2c0.1,0,0.2,0,0.2,0c0,0,0.1-0.1,0.1-0.1c0.1-0.1,0.2-0.2,0.4-0.4c0,0,0.1-0.1,0.2,0c0.2,0,0.4,0.1,0.5,0.2
			c0.1,0,0.2,0,0.3-0.1c0-0.1,0-0.2-0.2-0.2C30.2,17.1,30.1,17,29.9,17z"/>
	</g>
	<g>
		<path class="st2" d="M39.3,18.8c-0.1-0.2-0.2-0.4-0.3-0.6c-0.4-0.6-0.9-1.1-1.5-1.5c-0.3-0.2-0.3,0.1-0.7,0
			c-0.3-0.1-0.8-0.4-1.1-0.4c-0.3-0.1-0.8-0.4-1.2-0.4c-0.2,0-0.4,0-0.6,0c0,0,0,0,0,0c-0.2,0-0.4,0.1-0.5,0.1
			c-0.3,0.1-0.6,0.3-0.9,0.4c-0.3,0.2-0.3,0.2-0.6,0.4c-0.3,0.2-0.2,0.1-0.9,1c-0.3,0.4,0,0.2-0.9,1.4c-0.1-0.1-0.6-0.3-0.8-0.4
			c-0.2-0.1-0.4-0.3-0.6-0.4c-0.3-0.1-0.6-0.2-0.8-0.3c-0.2-0.1-0.1,0-0.3-0.1c-0.2,0-0.2-0.1-0.3-0.1C27,18,26.8,18,26.6,18
			c-0.2,0-0.4,0-0.5,0c-0.1,0-0.2,0-0.3,0c-0.1,0-0.2,0-0.2,0.1c-0.3,0.1-0.7,0.2-1,0.4c-0.5,0.3-0.9,0.5-1.3,1
			c-0.1,0.1-0.7,0.7-0.7,0.9c-0.1,0.3,0,0.1-0.1,0.4c-0.2,0.3-0.3,0.6-0.4,1c-0.1,0.4-0.2,0.7-0.2,1.1c0,0.4,0,0.8,0.1,1.2
			c0,0.2,0.1,0.3,0.1,0.5c0.1,0.2,0.1,0.4,0.2,0.6c0.1,0.2,0.2,0.3,0.3,0.5c0.1,0.2,0.2,0.3,0.3,0.4c0.2,0.3,0.5,0.6,0.8,0.8
			c0.1,0.1,0,0.2,0.1,0.3c0.1,0.1,0.1,0.1,0.1,0.1c0,0,0.2,0,0.2,0.1c0,0.1,0,0.2,0,0.2c0,0.1,0.1,0.2,0.2,0.3
			c0.1,0.1-0.2-0.2-0.1-0.2c0.6,0.2,0.5,0.1,0.6,0.2c0,0,0.1,0.1,0.1,0.1c0.1,0,0.2,0.1,0.2,0.1c0.2,0.1,0.3,0.1,0.4,0.2
			c0.2,0.1,0.4,0.2,0.6,0.3c0.5,0.2,1.1,0.3,1.6,0.5c0.7,0.2,0.8,0.1,1.4,0.2c0.3,0.1,0.8,0.1,1.1,0c0.4,0,0.3,0,0.7,0.1
			c0.1,0.1,0.1,0.3,0.3,0.3c0.1,0-0.4-0.4-0.3-0.3c0.2,0.1-0.4-1.1-0.2-1c0,0,0.8,0,0.8,0c0,0.1,0.5-0.1,0.5,0
			c0,0.2,0.3-0.5,0.3-0.3c0,0.3,0.3-0.2,0.5-0.1c0.2,0,0.4,0,0.5-0.1c0.1-0.1,0.1,0.2,0.1,0c0-0.1,0.2-0.1,0.2-0.2
			c0.1,0,0.6,0.2,0.6,0.1c0.1-0.1,0.1,0.9-0.2,2.2c0,0.1,0.3-1.1,0.2-1.2c0.3-0.1,0.1,0.6,0.1,0.6c0.1-0.3,0,0,0.1-0.3
			c0.1-0.1,0-0.2,0-0.3c-0.1-0.1,0.2-0.1,0.5-0.1c0.2,0,0.2,0,0.4-0.1c0.3-0.1,0.9-0.4,1.1-0.7c0.1-0.1,0.7-0.7,0.7-0.8
			c0.2-0.2,0.3-0.4,0.4-0.6c0.2-0.2,0.6-0.7,0.8-0.9c0.2-0.2-0.3,0.3-0.1,0.1c0.1-0.1-0.1-0.2,0-0.3c0.1-0.1,0.2-0.4,0.3-0.5
			c0.1-0.2,0.3-0.5,0.4-0.6c0.1-0.2,0-0.3,0.1-0.6c0.1-0.1-0.1-0.3,0-0.4c0.1-0.2,0.2-0.6,0.3-0.8c0.1-0.3-0.1-0.6,0-0.9
			c0.1-0.4,0.2-0.8,0.2-1.2c0-0.2,0-0.4,0-0.6c0-0.2,0-0.4-0.1-0.5C39.4,19.2,39.4,19,39.3,18.8z M33.1,21.7
			C33.1,21.7,33.1,21.7,33.1,21.7C33.1,21.7,33.1,21.7,33.1,21.7C33.1,21.7,33.1,21.7,33.1,21.7z"/>
	</g>
	<g>
		<path class="st2" d="M29.9,17c0.2,0.1,0.3,0.1,0.4,0.2c0.1,0,0.2,0.1,0.2,0.2c0,0.1-0.2,0.2-0.3,0.1c-0.2-0.1-0.4-0.1-0.5-0.2
			c-0.1,0-0.2,0-0.2,0c-0.1,0.1-0.2,0.2-0.4,0.4c0,0-0.1,0.1-0.1,0.1c-0.1,0-0.2,0-0.2,0c0,0,0-0.2,0-0.2c0.1-0.1,0.2-0.2,0.3-0.4
			c-0.1,0-0.2-0.1-0.3-0.1c-0.1,0-0.2-0.1-0.2-0.2c0-0.1,0.1-0.2,0.3-0.2c0.2,0,0.3,0.1,0.5,0.1c0.1,0,0.2,0,0.2-0.1
			c0.2-0.1,0.3-0.3,0.5-0.4c0.1,0,0.2,0,0.3,0c0.1,0.1,0.1,0.2,0,0.3C30.2,16.7,30.1,16.8,29.9,17z"/>
	</g>
	<g>
		<path class="st3" d="M33.7,28c-0.9,0.7-2,0.8-3.1,0.7c0.1,0.1,0.1,0.1,0.1,0.2c0.4,0.5,0.7,1,1.1,1.5c0.2,0.3,0.3,0.6,0.5,0.9
			c0.3,0.7,0.1,1.4-0.5,1.8c-0.7,0.5-1.5,0.6-2.3,0.4c-0.6-0.1-0.9-0.5-0.9-1.2c0-0.2-0.1-0.4-0.2-0.5c-0.2-0.3-0.4-0.6-0.7-0.7
			c-0.7-0.4-1.3-0.8-2-1.2c-1-0.6-1.9-1.4-2.7-2.3c-0.9-1.1-1.5-2.3-1.6-3.7c-0.1-0.9-0.1-1.8,0.1-2.6c0.2-1,0.7-1.9,1.3-2.8
			c0.9-1.2,2.1-2.1,3.5-2.8c0,0,0.1,0,0.1-0.1c0-0.1,0-0.1,0-0.2c-0.1-0.4,0-0.1-0.2-0.4c-0.1-0.8-0.2-1.7,0.4-2.2
			c0.7-0.7,0.8-0.6,1.7-0.8c1.1,0.1,1.1,0.2,1.6,0.5c0.4,0.6,0.5,0.8,0.5,1.3c0,0.5,0,0.3,0,0.7c0,0,0,0,0,0c0.1,0,0.3-0.1,0.4-0.1
			c1-0.1,2.1,0,3.1,0.3c1.5,0.4,2.8,1.1,3.9,2.1c0.7,0.7,1.4,1.4,1.8,2.3c0.5,1,0.6,2.1,0.5,3.3c-0.2,1.2-0.6,2.4-1.2,3.5
			c-0.4,0.9-0.9,1.7-1.3,2.6c-0.2,0.5-0.4,1-0.3,1.5c0,0.2,0.1,0.4,0.2,0.6c0.4,0.7,0.2,1.4-0.5,1.7c-0.7,0.3-1.4,0.3-2.1,0
			c-0.5-0.2-0.8-0.6-0.9-1.1c-0.1-0.5-0.2-0.9-0.2-1.4c0-0.6,0-1.1,0-1.7C33.7,28.1,33.7,28.1,33.7,28z M30.5,15.2
			C30.5,15.2,30.5,15.2,30.5,15.2c0.1,0.1,0.1,0.2,0.2,0.3c0.2,0.1,0.2,0.3,0,0.5c-0.2,0.2-0.4,0.2-0.6,0.1
			c-0.3-0.3-0.4-0.6-0.5-1.1c0-0.5,0-0.2,0-0.9c0-0.4,0-0.2,0-0.6c0-0.4-0.6-0.7-1-0.8c-1,0-1.2,0.2-1.7,0.6
			c-0.2,0.2-0.4,0.5-0.3,1.3c0.2,1,0.5,1.1,1.2,1.5c0.2,0.2,0.2,0.4-0.1,0.5c-0.2,0.1-0.4,0.1-0.6-0.1c-0.1-0.1-0.2-0.2-0.3-0.3
			c-0.1-0.1-0.1-0.1-0.2,0c-0.6,0.4-1.1,0.7-1.7,1.1c-0.9,0.7-1.6,1.5-2.1,2.5c-0.5,1-0.7,2.1-0.7,3.2c0,1.6,0.7,3,1.6,4.2
			c0.8,0.9,1.7,1.7,2.8,2.3c0.5,0.3,1.1,0.7,1.6,1c0.6,0.5,1.2,1,1.1,1.9c0,0.3,0.2,0.5,0.5,0.6c0.4,0.1,0.8,0,1.2-0.2
			c0.4-0.2,0.7-0.7,0.6-1.2c0-0.2-0.1-0.4-0.2-0.6c-0.3-0.6-0.7-1.1-1.1-1.7c-0.2-0.3-0.5-0.7-0.7-1c-0.5-0.9-0.5-1.8-0.4-2.8
			c0-0.1,0.1-0.2,0.2-0.3c0.3-0.1,0.6,0,0.6,0.4c-0.1,0.7,0,1.4,0.2,2.1c0,0.1,0.1,0.2,0.2,0.2c0.4,0,0.9,0.1,1.3,0.1
			c0.8,0,1.4-0.3,1.9-0.9c0-0.1,0.1-0.2,0.1-0.2c-0.2-0.7-0.4-1.3-0.9-1.9c-0.2-0.2-0.1-0.4,0.1-0.5c0.2-0.1,0.4-0.1,0.6,0.1
			c0.7,0.9,1.1,1.9,1,3c0,0.6-0.1,1.2-0.1,1.8c0,0.6,0,1.1,0.2,1.7c0.1,0.4,0.3,0.7,0.7,0.8c0.5,0.2,0.9,0.1,1.4-0.1
			c0.2-0.1,0.3-0.3,0.3-0.6c0-0.1-0.1-0.3-0.2-0.4c-0.2-0.3-0.3-0.6-0.3-0.9c0-0.8,0.2-1.5,0.6-2.1c0.7-1.2,1.2-2.5,1.7-3.7
			c0.3-0.6,0.4-1.3,0.4-2c0.1-1.2-0.2-2.4-0.9-3.4c-0.7-1.1-1.7-1.9-2.8-2.6c-1.4-0.8-2.9-1.2-4.6-1.1
			C30.8,15.2,30.6,15.2,30.5,15.2z"/>
	</g>
</g>
</svg>
