<?xml version="1.0" encoding="utf-8"?>
<!-- Generator: Adobe Illustrator 24.2.1, SVG Export Plug-In . SVG Version: 6.00 Build 0)  -->
<svg version="1.1" id="圖層_1" xmlns="http://www.w3.org/2000/svg" xmlns:xlink="http://www.w3.org/1999/xlink" x="0px" y="0px"
	 viewBox="0 0 42 42" style="enable-background:new 0 0 42 42;" xml:space="preserve">
<style type="text/css">
	.st0{fill:#CE1F1D;}
	.st1{fill-rule:evenodd;clip-rule:evenodd;fill:#FFFFFF;}
	.st2{fill:#FFFFFF;}
</style>
<g>
	<circle class="st0" cx="21" cy="21" r="21"/>
	<path class="st1" d="M17.3,35.4c0.2,0,0.1,0.2,0.1,0.3C17.2,35.7,17.3,35.5,17.3,35.4z"/>
	<g>
		<g>
			<path class="st2" d="M22.6,9.2c0.4,0,0.3,0.4,0.8,0.4c0.3,0,1.3-1.2,1.6-1.5c0.3-0.3-0.5,0.2-0.8,0.1c-0.4,0-0.4-0.3-0.7-0.3
				c-0.2,0-0.4-0.1-1,0.6c-0.6,0.6-0.7,0.7-0.7,0.7C21.9,9.3,22.3,9.2,22.6,9.2L22.6,9.2z"/>
			<g>
				<path class="st2" d="M14.6,15.7c-0.2,0.2-0.5,0.4-0.7,0.4c0,0,0-7,0-7.4c0,0,0.7,0.2,1.4-0.4c0.6-0.5,0.8-1.4,0.9-1.8
					c0,0-0.1,0.1-0.5,0.3c-0.4,0.2-1,0.5-1.5,0.5c-0.4,0-1-0.3-1.4-0.3c-0.4,0-0.6,0.2-0.8,0.4c-0.2,0.2-2.3,2.4-2.5,2.6
					c-0.2,0.2-0.8,0.7-0.5,1c0.3,0.3,1.1-0.7,1.2-0.8c0,0,0,4.7,0,4.9c0,0.3,0,0.7-0.3,0.8c-0.1,0.1-0.7-0.4-1.3-2.3
					C8.2,11.3,9,9.5,9,9.5c0.5-1,1.9-2,2.2-2.3c0,0-0.1-0.1-0.2,0c-0.1,0-0.6,0.3-0.6,0.3S9.4,8,8.8,8.6c-0.5,0.5-1.1,1.3-1.6,2.5
					c-0.5,1.3-0.2,3.1,0.1,3.8c0.3,0.7,1,2.2,2.6,2.8c1.6,0.6,2.7,0.6,4.3-0.5c1.6-1.1,1.8-2.6,1.8-2.8
					C15.9,14.3,14.8,15.5,14.6,15.7L14.6,15.7z M13,16.5c-0.1,0.2,0,0.2-0.4,0.2c-0.4,0-0.6,0-1-0.1c-0.4-0.1-1-0.3-1-0.4
					c0,0,0.3-0.3,0.6-0.6c0.3-0.4,0.6-0.9,0.7-1.2C12,14,12,12.3,12,11.4c0-0.9,0-3.2,0.2-3.3c0.2,0,0.6,0.2,0.9,0.4
					C13,8.5,13.1,16.3,13,16.5L13,16.5z"/>
				<path class="st2" d="M21.7,12.4c0.3-0.2,0.3-0.3,0.3-0.4c0-0.1-0.3,0-0.5,0c-0.3,0-0.5,0-0.8-0.5c-0.3-0.5-0.2-0.5-0.5-0.5
					c-0.2,0-0.5,0.3-0.9,0.6c-0.4,0.3-1,0.7-1.2,0.7c-0.2,0-0.1-0.2-0.1-0.2c0-0.3,0-3.8,0-3.8c0.1-0.2,0.5-0.9,0.6-1.2
					c0.1-0.3,0.1-0.4,0-0.4c-0.1,0-0.4,0.5-0.8,0.9c-0.5,0.3-0.7,0.5-0.9,0.5c-0.2,0-0.2-0.1-0.3-0.2c-0.1-0.1-0.2-0.3-0.3-0.3
					c-0.1,0-0.1,0.2-0.1,0.3c0,0.1,0,8.6,0,8.6c0,0.1-0.5,0.4-0.5,0.5c0,0.1,0,0.1,0.1,0.1c0.1,0,0.4-0.1,0.7,0
					c0.3,0.1,0.8,0.4,1,0.4c0.1,0,0.2,0,0.3-0.2c0.1-0.2,0.4-0.4,0.6-0.6c0.2-0.1,0.6-0.3,0.8-0.5c0.1-0.1,0.2-0.2,0.1-0.2
					c-0.1,0-0.1,0.2-0.6,0.2c-0.5,0-0.6-0.3-0.6-0.3c0-0.3,0-2.9,0-2.9c0.1,0,0.3,0,0.7-0.2c0.4-0.2,0.6-0.3,0.7-0.3v6.2
					c0,0,0.6,0.6,0.5,1.1c0,0.5-0.4,0.9-0.7,1C19,21,18.8,21,18.8,21.1c0,0,0.2,0.2,0.7,0.1c0.4,0,1-0.4,1.2-0.9
					c0.2-0.5,0.1-0.8,0-1.1c-0.2-0.3-0.8-0.6-0.8-1.2c0-0.6,0.5-0.8,0.7-0.8l0.8-0.1C21.3,17,21,16.9,21,16.5c0-0.3,0-3.5,0-3.5
					C21.1,12.8,21.3,12.6,21.7,12.4L21.7,12.4z"/>
				<path class="st2" d="M25.1,16.2c-0.2,0.1-0.3,0.2-0.5,0.2c-0.2,0-0.3,0-0.3,0c0-0.3,0-3.8,0-3.8c0.1-0.2,0.5-0.5,0.7-0.7
					c0.2-0.2,0-0.3,0-0.3c-0.1,0.1-0.3,0.2-0.6,0.2c-0.2,0-0.3-0.2-0.4-0.3c-0.2-0.2-0.4-0.4-0.6-0.4c-0.3,0-0.8,0.9-1.1,1.2
					c-0.3,0.2-0.6,0.3-0.6,0.4c0,0.1,0.7,0,0.7,0c0,0.3,0,4.6,0,4.6c0.1,0.1,0.5,0.3,0.9,0.4c0.3,0.1,0.5,0,0.6-0.1
					c0.1-0.1,0.5-0.4,0.8-0.8c0.3-0.3,0.3-0.3,0.3-0.4C25.2,16.3,25.3,16.1,25.1,16.2L25.1,16.2z"/>
				<path class="st2" d="M37.2,16c-0.3,0-0.4,0.1-0.6,0.1c-0.2,0-0.2-0.2-0.2-0.2l0-3.3c0,0,0.6-0.5,0.8-0.8c0.2-0.4,0-0.4-0.2-0.4
					c-0.1,0-0.3,0.3-0.7,0.3c-0.4,0-0.6-0.6-0.9-0.6c-0.3,0-0.2,0-0.7,0.4c-0.5,0.4-0.9,0.4-1,0.4c-0.1,0-0.2,0-0.3-0.4
					c-0.1-0.4-0.4-0.4-0.6-0.5c-0.2,0-0.9,0.2-0.9,1c0,0.8,1.3,1.6,1.4,1.8c0.1,0.1,0,0.1,0,0.1c-0.2,0.1-0.8,0.5-1.3,0.8
					c-0.5,0.4-0.6,0.9-0.7,1.2c0,0-0.4,0.1-0.6,0c-0.1-0.1-0.1-0.1-0.1-0.1s0-2.7,0-3c0-0.3,0.6-0.8,0.6-0.9c0.1-0.1,0-0.1,0-0.2
					c0,0-0.5,0.1-0.9,0c-0.4-0.1-0.5-0.6-0.8-0.6c-0.3,0-0.6,0.4-1.1,0.7c-0.5,0.3-0.9,0.4-1.1,0.4c-0.2,0-0.8-1.1-1.2-1.1
					c0,0-0.2,0.2-0.3,0.3c-0.1,0.1-0.8,0.8-0.9,0.9c-0.2,0.1-0.3,0.3-0.2,0.3c0.1,0,0.3,0,0.5-0.1c0.2,0,0.2,0,0.3,0.1
					c0,0,0,3.5,0,3.6c0,0.1,0,0.1-0.1,0.3c-0.1,0.2-0.7,0.8-0.8,0.9c-0.1,0.1-0.1,0.1,0,0.1c0.1,0,0.2,0,0.4-0.2
					c0.2-0.1,0.4-0.2,0.6-0.2c0.1,0,0.4,0.1,0.5,0.2c0.2,0.1,0.5,0.3,0.8,0.3c0.3,0,1.3-1,1.5-1.2c0.2-0.3-0.3-0.2-0.4-0.1
					c-0.1,0-0.6,0.1-0.7,0.1c-0.1,0-0.1,0-0.1-0.1v-3c0.1-0.2,0.3-0.2,0.6-0.3c0.4-0.1,0.6-0.3,0.7-0.4c0.1-0.1,0.1,0,0.2,0v3.9
					c0,0.4,0.4,0.6,0.7,0.8c0.3,0.2,0.6,0.4,0.8,0.4c0.2,0,0.8-0.8,1-1c0,0,0,0.1,0.3,0.5c0.4,0.4,1,0.6,1.2,0.6
					c0.3,0,0.4,0,0.7-0.3c0.3-0.3,0.7-0.5,0.9-0.5c0.2,0,0.2,0.1,0.6,0.5c0.4,0.4,0.7,0.4,0.8,0.4c0.1,0,0.2,0,0.3-0.2
					c0.1-0.2,0.5-0.6,0.8-0.8c0.2-0.2,0.6-0.4,0.7-0.6C37.8,15.9,37.5,16,37.2,16L37.2,16z M33.6,12.8c0-0.3,0.6-0.4,0.8-0.4
					c0,0,0.2,0,0.3,0.1c0,0,0,0.9,0,1.1c0,0-0.3,0-0.6-0.1C33.6,13.4,33.5,13.1,33.6,12.8L33.6,12.8z M34.6,16.2
					c0,0-0.1,0.1-0.3,0.1c-0.1,0-0.4,0-0.6,0c-0.2-0.1-0.4-0.2-0.6-0.6c-0.1-0.3-0.1-0.6,0-0.8c0.1-0.2,0.5-0.6,0.8-0.6
					c0,0,0.1,0,0.3,0c0.2,0.1,0.3,0.2,0.4,0.3C34.6,14.7,34.6,16,34.6,16.2L34.6,16.2z"/>
			</g>
		</g>
		<g>
			<path class="st2" d="M27.5,28.4c0-0.4,0-0.9,0.1-1.1c0.1-0.2,0.3-0.2,0.4-0.4c0.1-0.1,0.1-0.2-0.1-0.2c-0.2,0-0.6,0-1,0.1
				c-0.4,0-0.8,0.2-0.9,0.1c-0.1-0.1,0.4-0.8,0.5-0.9c0.2-0.1,0.5-0.2,0.7-0.5c0.3-0.2,0.4-0.4,0.6-0.9c0.1-0.4,0-0.4,0-0.4
				c-0.2,0.1-0.5,0.3-0.9,0.3c-0.4,0-0.6,0-0.9-0.1c-0.3-0.1-0.6-0.2-0.6-0.2c-0.2,0-0.2,0.2-0.4,0.3c-0.1,0.2-0.5,0.5-0.9,0.5
				c-0.4,0.1-0.8,0.2-1.1,0.2c-0.3,0-0.4,0-0.4,0c0,0.1,0.1,0.2,0.3,0.3c0.2,0.1,0.3,0.1,0.3,0.3c0,0.1,0,1.9,0,1.9
				c0,0.1,0,0.2,0.2,0.1c0.2-0.1,0.4-0.1,0.6-0.1c0.2,0,0.6,0.1,0.6,0.1c-0.1,0.2-0.6,0.9-0.8,1.2c-0.2,0.3-1,1-1.1,1.1
				c-0.1,0.1,0,0.1,0.1,0.1c0.1,0,0.5-0.2,0.8-0.3c0.3-0.1,0.4-0.2,0.7-0.1c0.3,0,0.7,0.1,0.9,0.6c0,0,0.1,0.4,0.5,0.4
				c0.4,0,0.4-0.3,0.7-0.5c0.3-0.2,0.5-0.3,1-0.4c0,0,0.6,0,0.6,0c0.1-0.1-0.1-0.1-0.1-0.3C27.5,29.3,27.5,28.8,27.5,28.4L27.5,28.4
				z M24.9,25.2c0.2,0,0.7,0.4,0.7,0.5c0.1,0.1,0,0.2,0,0.2s-0.7,1-0.7,1c-0.1,0-0.2,0-0.2-0.2c0-0.2,0-0.5,0-0.8
				C24.6,25.7,24.6,25.2,24.9,25.2L24.9,25.2z M25.9,29.1c0,0-0.6-0.2-0.8-0.2c-0.2,0-0.3,0-0.6-0.1c0,0,0.7-1.1,0.8-1.1
				c0.1-0.1,0.1-0.1,0.3-0.1c0,0,0.3,0.1,0.3,0.2c0,0.1,0,0.9,0,0.9C25.9,28.7,25.9,28.9,25.9,29.1L25.9,29.1z"/>
			<path class="st2" d="M17.4,22.2c0.2,0.1,0.1-0.1,0.1-0.3c0-0.2-0.1-0.4-0.3-0.6c-0.2-0.2-0.7-0.4-0.9-0.6
				c-0.3-0.2-1.3-1.1-1.5-1.2c-0.2-0.1-0.4-0.1-0.8,0.1c-0.4,0.2-1,0.8-1.2,1c-0.2,0.2-0.5,0.3-0.5,0.3c0-0.4,0-0.8,0-1
				c0-0.4-0.3-0.4-0.3-0.4c-0.2,0-0.3,0.1-0.3,0.3c0,0.2,0,1.3,0,1.3c-0.1,0-0.2,0-0.2,0c-0.1-0.2-0.6-1.6-1.4-1.6c0,0-0.4,0-0.6,0
				c-0.2,0-1.2,0.2-1.8,1.2c-0.6,1-0.6,1.9-0.6,2.2c0,0.3,0,0.2,0.1,0.1c0-0.1,0.4-1.2,0.7-1.5c0.3-0.3,0.9-0.8,1.3-0.8
				c0.4,0,0.5,0.3,0.5,0.7c0,0.4,0,2.6,0,2.6c-0.2,0.1-1.2,0.4-1.5,1c-0.3,0.6-0.3,1.2-0.2,1.7c0,0,0.1,0.2,0.2-0.2
				c0.1-0.4,0.2-1,0.7-1.2c0.5-0.2,0.7-0.2,0.8,0c0,0.2,0,2.5,0,2.5c-0.2,0.1-1.2,1-1.5,1.7c-0.1,0.3-0.5,0.9-0.4,1.9
				c0,0,0,0.6,0.2,0.8C8.1,32.5,8,31.8,8,31.4c0-0.6,0.3-1.1,0.6-1.6c0.2-0.3,0.8-0.8,1-0.9v4.8c-0.2,0.3-0.7,1.1-1.1,1.4
				c-0.4,0.3-0.8,0.5-0.9,0.8c-0.1,0.2,0.1,0.2,0.3,0.1c0.2-0.1,1-0.4,1.6-1.1c0.6-0.7,0.8-1,1-1c0,0,0.1-0.1,0.8,0.3
				c0.6,0.4,0.8,0.6,1,0.6c0.3,0.1,0.5,0,0.5,0c-0.2-0.2-0.7-0.6-0.7-1.1c0-0.5,0-4.3,0-4.3c0.2,0.1,0.8,0.5,1,0.8
				c0.2,0.2,0.1,0.3,0.2,0.4c0.1,0.1,0.2,0,0.5-0.5c0.3-0.5,0.6-0.9,1.3-1c0,0,1-0.1,1.3,0.1c0.2,0.1,0.2,0,0.1-0.2
				c-0.1-0.2-0.5-0.3-0.6-0.6c-0.1-0.3,0-6.9,0-6.9c0.2,0,0.5-0.2,0.7,0.1C17.1,21.7,17.3,22,17.4,22.2L17.4,22.2z M11.5,33.1
				c0,0,0-10.6,0-10.7c0-0.2,0.2-0.2,0.2-0.2l0,11.1C11.5,33.3,11.5,33.1,11.5,33.1L11.5,33.1z M12.3,23v-1.5c0,0,1-0.5,1.3-0.6
				C14.1,20.6,14,21,14,21s0,1.8,0,2.1c0,0-0.6,0.2-0.9,0.2c-0.3,0-0.6-0.1-0.7-0.1C12.5,23.2,12.4,23.2,12.3,23L12.3,23z
				 M12.3,25.8v-2.1c0,0,0.7,0.1,1,0.1c0.4,0,0.5,0,0.7-0.1v2.2c-0.1,0-0.5-0.1-0.7-0.1c-0.3,0-0.6,0.1-0.8,0.2
				C12.4,25.9,12.3,25.9,12.3,25.8L12.3,25.8z M14.1,28.7l-0.2,0c-0.2-0.3-0.3-0.3-0.4-0.4c-0.1-0.1-0.7-0.1-0.9-0.1
				c-0.1,0-0.2-0.2-0.2-0.3c0-0.2-0.1-1.1,0-1.2c0.1-0.2,0.5-0.3,0.9-0.3c0,0,0.7,0.1,0.8,0.1V28.7L14.1,28.7z"/>
			<path class="st2" d="M22.8,29.2c0-0.1-0.1-0.1-0.3-0.1C22.3,29,22,28.9,22,28.9c0-0.3,0-3.6,0-3.6s0-0.2,0.3-0.3
				c0.3-0.1,0.4-0.2,0.4-0.3c0-0.1-0.2-0.1-0.3-0.1c-0.2,0-0.4,0.1-0.8,0.1c-0.3,0-0.9-0.4-1.1-0.4c-0.2,0-1.4,0.7-2.2,0.8
				c-0.2,0-1,0.1-1.2,0.1c-0.2,0-0.3-0.1-0.3,0c0,0.1,0.5,0.3,0.5,0.5c0,0.2,0,3.3,0,3.3c0,0.2-0.5,0.4-0.5,0.7
				c0,0.3,0.2,0.1,0.3,0.1c0.1,0,0.3-0.1,0.6,0c0.3,0.1,0.9,0.7,1.1,1c0.3,0.3,0.3-0.6,1.6-0.9C21.2,29.5,22.8,29.4,22.8,29.2
				L22.8,29.2z M20.4,29.1c0,0.1,0,0.3-0.4,0.3c-0.4,0-0.7-0.3-0.8-0.4c0,0,0-3.5,0-3.6c0-0.1,0.1-0.2,0.3-0.2
				c0.4,0,0.8,0.6,0.9,0.7C20.4,25.9,20.4,29.1,20.4,29.1L20.4,29.1z"/>
			<path class="st2" d="M31.4,29c-0.2,0-0.4,0.2-0.6,0.1c-0.3,0-0.3,0-0.3-0.2c0-0.1,0-3.9,0-3.9h0.9v-0.7h-0.9v-3.6
				c-0.2,0-0.5,0.1-0.8,0.3c-0.3,0.3-1,0.8-1.1,0.9c-0.1,0.1-0.2,0-0.4,0.1c0,0-0.1,0.2-0.1,0.2c0.1,0,0.3,0,0.4,0
				c0.1,0,0.1,0.1,0.2,0.2c0,0.1,0,1.8,0,1.8h-0.4v0.7h0.4v4c-0.2,0.1-0.6,0.5-0.8,0.7c-0.1,0.2-0.1,0.2,0,0.2
				c0.1,0,0.4-0.1,0.7-0.1c0.3,0,0.6,0.4,0.8,0.7c0.2,0.2,0.3,0.3,0.6,0.3c0.3,0,0.8-0.1,1.2-0.7c0.4-0.6,0.5-0.9,0.5-1
				C31.7,29,31.6,29,31.4,29L31.4,29z"/>
		</g>
	</g>
	<g>
		<path class="st2" d="M16.5,32.8h-0.3v1c0,0.1,0,0.1,0,0.1c0,0-0.1,0-0.1,0c0,0-0.1,0-0.1,0c0,0,0-0.1,0-0.1v-1h-0.3
			c0,0-0.1,0-0.1,0c0,0,0,0,0-0.1c0,0,0-0.1,0-0.1c0,0,0.1,0,0.1,0h0.9c0,0,0.1,0,0.1,0c0,0,0,0,0,0.1s0,0.1,0,0.1
			C16.6,32.8,16.5,32.8,16.5,32.8z"/>
		<path class="st2" d="M17.3,33.8c-0.1,0-0.1,0.1-0.2,0.1s-0.1,0-0.2,0c-0.1,0-0.1,0-0.2,0c-0.1,0-0.1-0.1-0.1-0.1c0,0,0-0.1,0-0.1
			c0-0.1,0-0.1,0.1-0.2c0-0.1,0.1-0.1,0.2-0.1c0,0,0.1,0,0.1,0c0.1,0,0.1,0,0.2,0s0.1,0,0.2,0c0-0.1,0-0.1,0-0.2c0,0-0.1,0-0.2,0
			c-0.1,0-0.1,0-0.1,0c0,0-0.1,0-0.1,0.1c0,0,0,0.1-0.1,0.1s0,0-0.1,0c0,0-0.1,0-0.1,0s0,0,0-0.1c0,0,0-0.1,0-0.1
			c0,0,0.1-0.1,0.2-0.1c0.1,0,0.2,0,0.3,0c0.1,0,0.2,0,0.3,0c0.1,0,0.1,0.1,0.1,0.1c0,0.1,0,0.1,0,0.2c0,0.1,0,0.1,0,0.2
			s0,0.1,0,0.1c0,0,0,0.1,0,0.2c0,0.1,0,0.1,0,0.1c0,0,0,0.1,0,0.1s-0.1,0-0.1,0c0,0-0.1,0-0.1,0C17.4,33.9,17.3,33.9,17.3,33.8z
			 M17.3,33.5c0,0-0.1,0-0.2,0c-0.1,0-0.1,0-0.2,0c0,0-0.1,0-0.1,0s0,0.1,0,0.1c0,0,0,0.1,0,0.1c0,0,0.1,0,0.1,0c0.1,0,0.1,0,0.1,0
			c0,0,0.1-0.1,0.1-0.1C17.3,33.7,17.3,33.6,17.3,33.5L17.3,33.5z"/>
		<path class="st2" d="M17.9,32.8C17.9,32.8,17.9,32.8,17.9,32.8c-0.1-0.1-0.1-0.1-0.1-0.1c0,0,0-0.1,0-0.1c0,0,0.1,0,0.1,0
			c0,0,0.1,0,0.1,0c0,0,0,0.1,0,0.1C18.1,32.7,18,32.8,17.9,32.8C18,32.8,18,32.8,17.9,32.8z M18.1,33.1v0.7c0,0.1,0,0.1,0,0.1
			c0,0-0.1,0-0.1,0s-0.1,0-0.1,0c0,0,0-0.1,0-0.1v-0.7c0-0.1,0-0.1,0-0.1c0,0,0.1,0,0.1,0s0.1,0,0.1,0C18,33,18.1,33,18.1,33.1z"/>
		<path class="st2" d="M18.5,33.1l0.2,0.6l0.2-0.5c0-0.1,0-0.1,0-0.1s0,0,0-0.1s0.1,0,0.1,0c0,0,0.1,0,0.1,0s0,0,0,0.1s0,0.1,0,0.1
			l0.2,0.5l0.2-0.6c0,0,0-0.1,0-0.1c0,0,0,0,0,0c0,0,0,0,0.1,0c0,0,0.1,0,0.1,0s0,0,0,0.1c0,0,0,0.1,0,0.1l-0.2,0.6
			c0,0.1,0,0.1,0,0.1c0,0,0,0,0,0.1c0,0-0.1,0-0.1,0c0,0-0.1,0-0.1,0c0,0,0,0,0-0.1c0,0,0-0.1,0-0.1L19,33.3l-0.1,0.5
			c0,0.1,0,0.1-0.1,0.2S18.7,34,18.7,34c0,0-0.1,0-0.1,0c0,0,0,0,0,0c0,0,0,0,0-0.1c0,0,0-0.1,0-0.1l-0.2-0.6c0-0.1,0-0.1,0-0.1
			c0,0,0-0.1,0-0.1s0,0,0.1,0c0,0,0.1,0,0.1,0C18.4,33,18.5,33,18.5,33.1z"/>
		<path class="st2" d="M20.5,33.8c-0.1,0-0.1,0.1-0.2,0.1s-0.1,0-0.2,0c-0.1,0-0.1,0-0.2,0c-0.1,0-0.1-0.1-0.1-0.1c0,0,0-0.1,0-0.1
			c0-0.1,0-0.1,0.1-0.2c0-0.1,0.1-0.1,0.2-0.1c0,0,0.1,0,0.1,0c0.1,0,0.1,0,0.2,0s0.1,0,0.2,0c0-0.1,0-0.1,0-0.2c0,0-0.1,0-0.2,0
			c-0.1,0-0.1,0-0.1,0c0,0-0.1,0-0.1,0.1c0,0,0,0.1-0.1,0.1s0,0-0.1,0c0,0-0.1,0-0.1,0s0,0,0-0.1c0,0,0-0.1,0-0.1
			c0,0,0.1-0.1,0.2-0.1c0.1,0,0.2,0,0.3,0c0.1,0,0.2,0,0.3,0c0.1,0,0.1,0.1,0.1,0.1c0,0.1,0,0.1,0,0.2c0,0.1,0,0.1,0,0.2
			c0,0,0,0.1,0,0.1c0,0,0,0.1,0,0.2c0,0.1,0,0.1,0,0.1c0,0,0,0.1,0,0.1s-0.1,0-0.1,0c0,0-0.1,0-0.1,0C20.6,33.9,20.5,33.9,20.5,33.8
			z M20.5,33.5c0,0-0.1,0-0.2,0c-0.1,0-0.1,0-0.2,0c0,0-0.1,0-0.1,0s0,0.1,0,0.1c0,0,0,0.1,0,0.1c0,0,0.1,0,0.1,0c0.1,0,0.1,0,0.1,0
			c0,0,0.1-0.1,0.1-0.1C20.5,33.7,20.5,33.6,20.5,33.5L20.5,33.5z"/>
		<path class="st2" d="M21.2,33.1L21.2,33.1c0,0,0.1-0.1,0.1-0.1c0.1,0,0.1,0,0.2,0c0.1,0,0.1,0,0.2,0c0.1,0,0.1,0.1,0.1,0.1
			c0,0,0,0.1,0,0.1s0,0.1,0,0.1v0.5c0,0.1,0,0.1,0,0.1s-0.1,0-0.1,0c0,0-0.1,0-0.1,0c0,0,0-0.1,0-0.1v-0.4c0-0.1,0-0.2,0-0.2
			s-0.1-0.1-0.1-0.1c0,0-0.1,0-0.1,0c0,0-0.1,0.1-0.1,0.1c0,0,0,0.1,0,0.2v0.3c0,0.1,0,0.1,0,0.1c0,0-0.1,0-0.1,0c0,0-0.1,0-0.1,0
			c0,0,0-0.1,0-0.1v-0.7c0,0,0-0.1,0-0.1c0,0,0.1,0,0.1,0c0,0,0,0,0.1,0C21.2,33,21.2,33,21.2,33.1C21.2,33,21.2,33,21.2,33.1z"/>
		<path class="st2" d="M22.8,32.8C22.7,32.8,22.7,32.8,22.8,32.8c-0.1-0.1-0.1-0.1-0.1-0.1c0,0,0-0.1,0-0.1c0,0,0.1,0,0.1,0
			c0,0,0.1,0,0.1,0c0,0,0,0.1,0,0.1C22.9,32.7,22.9,32.8,22.8,32.8C22.8,32.8,22.8,32.8,22.8,32.8z M22.9,33.1v0.7
			c0,0.1,0,0.1,0,0.1s-0.1,0-0.1,0c0,0-0.1,0-0.1,0c0,0,0-0.1,0-0.1v-0.7c0-0.1,0-0.1,0-0.1c0,0,0.1,0,0.1,0c0,0,0.1,0,0.1,0
			C22.9,33,22.9,33,22.9,33.1z"/>
		<path class="st2" d="M23.4,33.1L23.4,33.1c0,0,0.1-0.1,0.1-0.1c0.1,0,0.1,0,0.2,0c0.1,0,0.1,0,0.2,0c0.1,0,0.1,0.1,0.1,0.1
			c0,0,0,0.1,0,0.1c0,0,0,0.1,0,0.1v0.5c0,0.1,0,0.1,0,0.1S24,34,24,34c0,0-0.1,0-0.1,0c0,0,0-0.1,0-0.1v-0.4c0-0.1,0-0.2,0-0.2
			s-0.1-0.1-0.1-0.1c0,0-0.1,0-0.1,0c0,0-0.1,0.1-0.1,0.1c0,0,0,0.1,0,0.2v0.3c0,0.1,0,0.1,0,0.1c0,0-0.1,0-0.1,0c0,0-0.1,0-0.1,0
			c0,0,0-0.1,0-0.1v-0.7c0,0,0-0.1,0-0.1c0,0,0.1,0,0.1,0c0,0,0,0,0.1,0C23.4,33,23.4,33,23.4,33.1C23.4,33,23.4,33,23.4,33.1z"/>
		<path class="st2" d="M25.7,32.8h-0.6v0.3h0.6c0,0,0.1,0,0.1,0c0,0,0,0,0,0.1c0,0,0,0.1,0,0.1c0,0-0.1,0-0.1,0h-0.6v0.4h0.7
			c0,0,0.1,0,0.1,0c0,0,0,0,0,0.1c0,0,0,0.1,0,0.1c0,0-0.1,0-0.1,0H25c-0.1,0-0.1,0-0.1,0c0,0,0-0.1,0-0.1v-1c0,0,0-0.1,0-0.1
			c0,0,0,0,0.1-0.1c0,0,0.1,0,0.1,0h0.7c0,0,0.1,0,0.1,0c0,0,0,0,0,0.1c0,0,0,0.1,0,0.1C25.8,32.8,25.8,32.8,25.7,32.8z"/>
		<path class="st2" d="M26.3,33.1L26.3,33.1c0,0,0.1-0.1,0.1-0.1c0.1,0,0.1,0,0.2,0c0.1,0,0.1,0,0.2,0c0.1,0,0.1,0.1,0.1,0.1
			c0,0,0,0.1,0,0.1c0,0,0,0.1,0,0.1v0.5c0,0.1,0,0.1,0,0.1s-0.1,0-0.1,0c0,0-0.1,0-0.1,0c0,0,0-0.1,0-0.1v-0.4c0-0.1,0-0.2,0-0.2
			s-0.1-0.1-0.1-0.1c0,0-0.1,0-0.1,0c0,0-0.1,0.1-0.1,0.1c0,0,0,0.1,0,0.2v0.3c0,0.1,0,0.1,0,0.1c0,0-0.1,0-0.1,0c0,0-0.1,0-0.1,0
			c0,0,0-0.1,0-0.1v-0.7c0,0,0-0.1,0-0.1c0,0,0.1,0,0.1,0c0,0,0,0,0.1,0C26.3,33,26.3,33,26.3,33.1C26.3,33,26.3,33,26.3,33.1z"/>
		<path class="st2" d="M28.2,33.1v0.8c0,0.1,0,0.2,0,0.2s0,0.1-0.1,0.2c0,0-0.1,0.1-0.2,0.1c-0.1,0-0.1,0-0.2,0c-0.1,0-0.2,0-0.2,0
			c-0.1,0-0.1-0.1-0.2-0.1c0,0-0.1-0.1-0.1-0.1c0,0,0-0.1,0-0.1c0,0,0,0,0.1,0c0,0,0.1,0,0.1,0.1c0,0,0,0,0,0.1c0,0,0,0,0,0
			s0,0,0.1,0c0,0,0.1,0,0.1,0c0.1,0,0.1,0,0.2,0c0,0,0.1,0,0.1-0.1s0-0.1,0-0.1c0,0,0-0.1,0-0.2c0,0.1-0.1,0.1-0.1,0.1
			c-0.1,0-0.1,0-0.2,0c-0.1,0-0.2,0-0.2-0.1c-0.1,0-0.1-0.1-0.1-0.2s-0.1-0.2-0.1-0.3c0-0.1,0-0.1,0-0.2c0-0.1,0.1-0.1,0.1-0.2
			c0,0,0.1-0.1,0.1-0.1c0.1,0,0.1,0,0.2,0c0.1,0,0.1,0,0.2,0c0.1,0,0.1,0.1,0.2,0.1v0c0,0,0-0.1,0-0.1c0,0,0.1,0,0.1,0
			c0.1,0,0.1,0,0.1,0S28.2,33.1,28.2,33.1z M27.5,33.5c0,0.1,0,0.2,0.1,0.2c0,0.1,0.1,0.1,0.2,0.1c0,0,0.1,0,0.1,0
			c0,0,0.1-0.1,0.1-0.1s0-0.1,0-0.2c0-0.1,0-0.2-0.1-0.2c0-0.1-0.1-0.1-0.2-0.1c-0.1,0-0.1,0-0.2,0.1C27.5,33.3,27.5,33.4,27.5,33.5
			z"/>
		<path class="st2" d="M28.4,33.8v-1.1c0-0.1,0-0.1,0-0.1s0.1,0,0.1,0c0,0,0.1,0,0.1,0c0,0,0,0.1,0,0.1v1.1c0,0.1,0,0.1,0,0.1
			c0,0-0.1,0-0.1,0c0,0-0.1,0-0.1,0C28.5,33.9,28.4,33.9,28.4,33.8z"/>
		<path class="st2" d="M29.1,32.8C29.1,32.8,29,32.8,29.1,32.8C29,32.8,29,32.7,29,32.7c0,0,0-0.1,0-0.1c0,0,0.1,0,0.1,0
			c0,0,0.1,0,0.1,0c0,0,0,0.1,0,0.1C29.2,32.7,29.2,32.8,29.1,32.8C29.2,32.8,29.1,32.8,29.1,32.8z M29.2,33.1v0.7
			c0,0.1,0,0.1,0,0.1c0,0-0.1,0-0.1,0s-0.1,0-0.1,0c0,0,0-0.1,0-0.1v-0.7c0-0.1,0-0.1,0-0.1c0,0,0.1,0,0.1,0s0.1,0,0.1,0
			C29.2,33,29.2,33,29.2,33.1z"/>
		<path class="st2" d="M30.3,33.7c0,0.1,0,0.1-0.1,0.2c0,0.1-0.1,0.1-0.2,0.1c-0.1,0-0.2,0-0.2,0c-0.1,0-0.2,0-0.2,0
			c-0.1,0-0.1-0.1-0.1-0.1c0,0,0-0.1,0-0.1c0,0,0-0.1,0-0.1c0,0,0,0,0.1,0c0,0,0,0,0.1,0c0,0,0,0,0,0.1c0,0,0.1,0.1,0.1,0.1
			c0,0,0.1,0,0.2,0c0.1,0,0.1,0,0.1,0c0,0,0,0,0-0.1c0,0,0-0.1-0.1-0.1s-0.1,0-0.2-0.1c-0.1,0-0.2,0-0.2-0.1c-0.1,0-0.1-0.1-0.1-0.1
			c0,0-0.1-0.1-0.1-0.1c0-0.1,0-0.1,0-0.1s0.1-0.1,0.1-0.1c0.1,0,0.1,0,0.2,0c0.1,0,0.1,0,0.2,0s0.1,0,0.1,0.1s0.1,0,0.1,0.1
			c0,0,0,0.1,0,0.1c0,0,0,0.1,0,0.1s0,0-0.1,0c0,0,0,0-0.1,0c0,0,0,0-0.1-0.1c0,0,0,0-0.1-0.1c0,0-0.1,0-0.1,0c0,0-0.1,0-0.1,0
			c0,0,0,0,0,0.1c0,0,0,0,0,0.1c0,0,0.1,0,0.1,0c0,0,0.1,0,0.2,0c0.1,0,0.1,0,0.2,0.1c0.1,0,0.1,0.1,0.1,0.1
			C30.3,33.6,30.3,33.6,30.3,33.7z"/>
		<path class="st2" d="M30.8,32.7v0.4c0,0,0.1-0.1,0.1-0.1c0,0,0.1,0,0.1,0c0,0,0.1,0,0.1,0c0.1,0,0.1,0,0.2,0
			c0.1,0,0.1,0.1,0.1,0.1c0,0,0,0.1,0,0.1c0,0,0,0.1,0,0.1v0.5c0,0.1,0,0.1,0,0.1s-0.1,0-0.1,0c-0.1,0-0.1-0.1-0.1-0.2v-0.4
			c0-0.1,0-0.1,0-0.2s-0.1-0.1-0.1-0.1c0,0-0.1,0-0.1,0c0,0-0.1,0.1-0.1,0.1c0,0,0,0.1,0,0.2v0.3c0,0.1,0,0.1,0,0.1c0,0-0.1,0-0.1,0
			c-0.1,0-0.1-0.1-0.1-0.2v-1.1c0-0.1,0-0.1,0-0.1c0,0,0.1,0,0.1,0c0,0,0.1,0,0.1,0S30.8,32.7,30.8,32.7z"/>
		<path class="st2" d="M16.4,36c0,0.1,0,0.1-0.1,0.2c0,0.1-0.1,0.1-0.2,0.1s-0.2,0-0.2,0c-0.1,0-0.2,0-0.2,0c-0.1,0-0.1-0.1-0.1-0.1
			c0,0,0-0.1,0-0.1c0,0,0-0.1,0-0.1c0,0,0,0,0.1,0c0,0,0,0,0.1,0c0,0,0,0,0,0.1c0,0,0.1,0.1,0.1,0.1c0,0,0.1,0,0.2,0
			c0.1,0,0.1,0,0.1,0c0,0,0,0,0-0.1c0,0,0-0.1-0.1-0.1s-0.1,0-0.2-0.1c-0.1,0-0.2,0-0.2-0.1c-0.1,0-0.1-0.1-0.1-0.1
			c0,0-0.1-0.1-0.1-0.1c0-0.1,0-0.1,0-0.1c0,0,0.1-0.1,0.1-0.1c0.1,0,0.1,0,0.2,0c0.1,0,0.1,0,0.2,0c0.1,0,0.1,0,0.1,0.1
			s0.1,0,0.1,0.1c0,0,0,0.1,0,0.1c0,0,0,0.1,0,0.1c0,0,0,0-0.1,0c0,0,0,0-0.1,0c0,0,0,0-0.1-0.1c0,0,0,0-0.1-0.1c0,0-0.1,0-0.1,0
			c0,0-0.1,0-0.1,0s0,0,0,0.1c0,0,0,0,0,0.1c0,0,0.1,0,0.1,0c0,0,0.1,0,0.2,0c0.1,0,0.1,0,0.2,0.1c0.1,0,0.1,0.1,0.1,0.1
			C16.4,35.9,16.4,35.9,16.4,36z"/>
		<path class="st2" d="M16.7,35.2C16.7,35.2,16.7,35.1,16.7,35.2c-0.1-0.1-0.1-0.1-0.1-0.1c0,0,0-0.1,0-0.1c0,0,0.1,0,0.1,0
			c0,0,0.1,0,0.1,0c0,0,0,0.1,0,0.1C16.8,35.1,16.8,35.1,16.7,35.2C16.8,35.1,16.8,35.2,16.7,35.2z M16.8,35.4v0.7
			c0,0.1,0,0.1,0,0.1c0,0-0.1,0-0.1,0s-0.1,0-0.1,0c0,0,0-0.1,0-0.1v-0.7c0-0.1,0-0.1,0-0.1s0.1,0,0.1,0s0.1,0,0.1,0
			C16.8,35.3,16.8,35.4,16.8,35.4z"/>
		<path class="st2" d="M17.3,35.4L17.3,35.4c0,0,0.1-0.1,0.1-0.1c0.1,0,0.1,0,0.2,0c0.1,0,0.1,0,0.2,0c0.1,0,0.1,0.1,0.1,0.1
			c0,0,0,0.1,0,0.1s0,0.1,0,0.1v0.5c0,0.1,0,0.1,0,0.1c0,0-0.1,0-0.1,0c0,0-0.1,0-0.1,0c0,0,0-0.1,0-0.1v-0.4c0-0.1,0-0.2,0-0.2
			s-0.1-0.1-0.1-0.1c0,0-0.1,0-0.1,0c0,0-0.1,0.1-0.1,0.1c0,0,0,0.1,0,0.2v0.3c0,0.1,0,0.1,0,0.1s-0.1,0-0.1,0c0,0-0.1,0-0.1,0
			c0,0,0-0.1,0-0.1v-0.7c0,0,0-0.1,0-0.1s0.1,0,0.1,0c0,0,0,0,0.1,0S17.3,35.3,17.3,35.4C17.3,35.4,17.3,35.4,17.3,35.4z"/>
		<path class="st2" d="M19.2,36c0,0,0,0.1,0,0.1s0,0.1-0.1,0.1c0,0-0.1,0.1-0.1,0.1c-0.1,0-0.1,0-0.2,0c-0.2,0-0.3,0-0.4-0.1
			c-0.1-0.1-0.1-0.2-0.1-0.4c0-0.1,0-0.2,0.1-0.3s0.1-0.1,0.2-0.2c0.1,0,0.2-0.1,0.3-0.1c0.1,0,0.1,0,0.2,0c0.1,0,0.1,0,0.1,0.1
			c0,0,0.1,0.1,0.1,0.1c0,0,0,0.1,0,0.1c0,0,0,0.1,0,0.1c0,0-0.1,0-0.1,0c0,0,0,0-0.1,0c0,0,0,0,0-0.1c0,0-0.1-0.1-0.1-0.1
			s-0.1,0-0.1,0c-0.1,0-0.1,0-0.2,0.1c0,0.1-0.1,0.1-0.1,0.2c0,0,0,0.1,0,0.1c0,0,0,0.1,0.1,0.1c0,0,0.1,0.1,0.1,0.1
			c0,0,0.1,0,0.1,0c0.1,0,0.1,0,0.1,0c0,0,0.1-0.1,0.1-0.1c0,0,0-0.1,0.1-0.1c0,0,0,0,0.1,0C19.1,35.9,19.2,35.9,19.2,36
			C19.2,36,19.2,36,19.2,36z"/>
		<path class="st2" d="M20.1,35.9h-0.5c0,0.1,0,0.1,0,0.2s0.1,0.1,0.1,0.1c0,0,0.1,0,0.1,0c0,0,0.1,0,0.1,0c0,0,0.1,0,0.1,0
			c0,0,0,0,0.1,0c0,0,0,0,0.1-0.1c0,0,0,0,0.1,0c0,0,0,0,0.1,0s0,0,0,0.1c0,0,0,0.1,0,0.1s0,0.1-0.1,0.1c0,0-0.1,0.1-0.1,0.1
			c-0.1,0-0.1,0-0.2,0c-0.2,0-0.3,0-0.4-0.1c-0.1-0.1-0.1-0.2-0.1-0.4c0-0.1,0-0.1,0-0.2c0-0.1,0.1-0.1,0.1-0.2c0,0,0.1-0.1,0.2-0.1
			s0.1,0,0.2,0c0.1,0,0.2,0,0.3,0.1c0.1,0,0.1,0.1,0.2,0.2s0.1,0.1,0.1,0.2c0,0.1,0,0.1-0.1,0.1C20.3,35.9,20.2,35.9,20.1,35.9z
			 M19.6,35.7h0.5c0-0.1,0-0.2-0.1-0.2c0,0-0.1-0.1-0.2-0.1c-0.1,0-0.1,0-0.2,0.1C19.7,35.6,19.6,35.6,19.6,35.7z"/>
		<path class="st2" d="M21.5,36.2v-0.9c-0.2,0.1-0.3,0.2-0.3,0.2c0,0-0.1,0-0.1,0c0,0,0,0,0-0.1c0,0,0-0.1,0-0.1c0,0,0.1,0,0.1-0.1
			c0.1,0,0.1-0.1,0.2-0.1c0,0,0.1-0.1,0.1-0.1c0,0,0.1-0.1,0.1-0.1c0,0,0,0,0.1,0c0,0,0.1,0,0.1,0c0,0,0,0.1,0,0.1v1.1
			c0,0.1,0,0.2-0.1,0.2c0,0-0.1,0-0.1,0C21.5,36.3,21.5,36.2,21.5,36.2z"/>
		<path class="st2" d="M22.8,35.7c0,0-0.1,0.1-0.1,0.1s-0.1,0-0.2,0c-0.1,0-0.1,0-0.2,0s-0.1-0.1-0.1-0.1c0,0-0.1-0.1-0.1-0.1
			c0-0.1,0-0.1,0-0.2c0-0.1,0-0.1,0-0.2s0.1-0.1,0.1-0.2c0,0,0.1-0.1,0.2-0.1s0.1,0,0.2,0c0.1,0,0.2,0,0.2,0c0.1,0,0.1,0.1,0.2,0.1
			c0,0.1,0.1,0.1,0.1,0.2c0,0.1,0,0.2,0,0.3c0,0.1,0,0.2,0,0.3c0,0.1-0.1,0.2-0.1,0.2s-0.1,0.1-0.2,0.1c-0.1,0-0.1,0-0.2,0
			c-0.1,0-0.2,0-0.2,0c-0.1,0-0.1-0.1-0.1-0.1c0,0,0-0.1,0-0.1c0,0,0-0.1,0-0.1c0,0,0,0,0.1,0c0,0,0.1,0,0.1,0c0,0,0,0,0.1,0.1
			c0,0,0,0.1,0.1,0.1s0.1,0,0.1,0c0,0,0.1,0,0.1,0c0,0,0.1,0,0.1-0.1C22.8,36,22.8,35.8,22.8,35.7z M22.8,35.4c0,0,0-0.1,0-0.1
			s0-0.1,0-0.1c0,0,0,0-0.1-0.1c0,0-0.1,0-0.1,0c-0.1,0-0.1,0-0.2,0.1c0,0.1-0.1,0.1-0.1,0.2c0,0.1,0,0.2,0.1,0.2
			c0,0.1,0.1,0.1,0.2,0.1c0,0,0.1,0,0.1,0c0,0,0.1-0.1,0.1-0.1C22.8,35.5,22.8,35.4,22.8,35.4z"/>
		<path class="st2" d="M24.1,35.1h-0.5l-0.1,0.3c0.1,0,0.2-0.1,0.2-0.1c0.1,0,0.1,0,0.2,0c0.1,0,0.1,0.1,0.1,0.1
			c0,0,0.1,0.1,0.1,0.1c0,0.1,0,0.1,0,0.2c0,0.1,0,0.2-0.1,0.3c0,0.1-0.1,0.1-0.2,0.2c-0.1,0-0.2,0.1-0.3,0.1c-0.1,0-0.2,0-0.3-0.1
			c-0.1,0-0.1-0.1-0.2-0.1c0-0.1,0-0.1,0-0.1c0,0,0,0,0-0.1c0,0,0,0,0.1,0c0.1,0,0.1,0,0.1,0.1c0,0.1,0.1,0.1,0.1,0.1
			c0,0,0.1,0,0.1,0c0,0,0.1,0,0.1,0c0,0,0.1-0.1,0.1-0.1c0,0,0-0.1,0-0.2c0-0.1,0-0.1,0-0.2c0,0-0.1-0.1-0.1-0.1c0,0-0.1,0-0.1,0
			c-0.1,0-0.1,0-0.1,0s-0.1,0-0.1,0.1c0,0-0.1,0-0.1,0c0,0-0.1,0-0.1,0s0,0,0-0.1c0,0,0,0,0-0.1l0.1-0.5c0-0.1,0-0.1,0-0.1
			c0,0,0.1,0,0.1,0h0.5c0.1,0,0.1,0,0.1,0.1c0,0,0,0.1,0,0.1S24.1,35.1,24.1,35.1z"/>
		<path class="st2" d="M24.8,36.1h0.5c0,0,0.1,0,0.1,0c0,0,0,0,0,0.1c0,0,0,0.1,0,0.1c0,0-0.1,0-0.1,0h-0.7c0,0-0.1,0-0.1,0
			c0,0,0-0.1,0-0.1c0,0,0-0.1,0-0.1s0-0.1,0.1-0.1c0.1-0.1,0.2-0.2,0.2-0.2c0.1-0.1,0.1-0.1,0.1-0.1c0.1,0,0.1-0.1,0.1-0.1
			c0,0,0.1-0.1,0.1-0.1c0,0,0-0.1,0-0.1c0,0,0-0.1,0-0.1c0,0,0-0.1-0.1-0.1c0,0-0.1,0-0.1,0c-0.1,0-0.1,0-0.2,0.1c0,0,0,0,0,0.1
			c0,0,0,0.1-0.1,0.1c0,0,0,0-0.1,0c0,0-0.1,0-0.1,0c0,0,0,0,0-0.1c0,0,0-0.1,0-0.1c0,0,0-0.1,0.1-0.1c0,0,0.1-0.1,0.1-0.1
			s0.1,0,0.2,0c0.1,0,0.2,0,0.2,0c0,0,0.1,0,0.1,0.1c0,0,0.1,0.1,0.1,0.1s0,0.1,0,0.1c0,0.1,0,0.1-0.1,0.2c0,0.1-0.1,0.1-0.1,0.2
			s-0.1,0.1-0.2,0.2C24.9,35.9,24.9,36,24.8,36.1C24.8,36,24.8,36.1,24.8,36.1z"/>
	</g>
</g>
</svg>
