<?xml version="1.0" encoding="utf-8"?>
<!-- Generator: Adobe Illustrator 24.2.1, SVG Export Plug-In . SVG Version: 6.00 Build 0)  -->
<svg version="1.1" id="圖層_1" xmlns="http://www.w3.org/2000/svg" xmlns:xlink="http://www.w3.org/1999/xlink" x="0px" y="0px"
	 viewBox="0 0 42 42" style="enable-background:new 0 0 42 42;" xml:space="preserve">
<style type="text/css">
	.st0{clip-path:url(#SVGID_2_);}
	.st1{fill:#FFFFFF;}
	.st2{fill:#97C30E;}
	.st3{fill:#F09A05;}
	.st4{fill:#E83C28;}
	.st5{fill:#0099DB;}
	.st6{fill:none;}
</style>
<g>
	<defs>
		<circle id="SVGID_1_" cx="21" cy="21" r="21"/>
	</defs>
	<clipPath id="SVGID_2_">
		<use xlink:href="#SVGID_1_"  style="overflow:visible;"/>
	</clipPath>
	<rect y="-0.2" class="st0" width="42" height="42.3"/>
	<g class="st0">
		<g>
			<path class="st1" d="M18.6,8h4.6c0.2,0,0.3-0.2,0.3-0.3c0-0.3-0.3-0.6-0.6-0.6h-4.1c-0.3,0-0.6,0.3-0.6,0.6
				C18.3,7.8,18.5,8,18.6,8z"/>
			<path class="st1" d="M16.5,13v-0.8c0-0.2-0.2-0.4-0.4-0.4h-0.7c-0.2,0-0.4,0.2-0.4,0.4V13l0.7,0.7L16.5,13z"/>
			<path class="st1" d="M14.8,13.3H14c-0.2,0-0.4,0.2-0.4,0.4v0.7c0,0.2,0.2,0.4,0.4,0.4h0.8l0.7-0.7L14.8,13.3z"/>
			<path class="st1" d="M16.8,13.3L16.1,14l0.7,0.7h0.8c0.2,0,0.4-0.2,0.4-0.4v-0.7c0-0.2-0.2-0.4-0.4-0.4H16.8z"/>
			<path class="st1" d="M15.1,15v0.8c0,0.2,0.2,0.4,0.4,0.4h0.7c0.2,0,0.4-0.2,0.4-0.4V15l-0.7-0.7L15.1,15z"/>
			<path class="st1" d="M22,17.8c-0.6-0.7-1-1.5-1.3-2.3c-0.1-0.5-0.2-1.1-0.2-1.7c0-0.4,0.1-0.8,0.2-1.2c0.3-1,0.8-2,1.6-2.7
				c0.1,0,0.1-0.1,0.2-0.1c0.2-0.2,0.1-0.5-0.2-0.5h-4.6c-0.6-0.2-1.3-0.4-2-0.4c-1.9,0-3.6,1-4.5,2.6c-0.1,0.1-0.1,0.3-0.2,0.4
				c0,0,0,0,0,0c0,0-2.8,5.5-1.3,7.9c1.5,2.4,8-0.9,8-0.9l0,0h4.6c0.3,0,0.4-0.4,0.2-0.5C22.4,18.1,22.2,18,22,17.8z M15.9,17.7
				c-2,0-3.6-1.6-3.6-3.6s1.6-3.6,3.6-3.6s3.6,1.6,3.6,3.6S17.9,17.7,15.9,17.7z"/>
			<path class="st1" d="M32.5,16.5c-0.1-0.3-0.5-0.3-0.6-0.1c-0.3,0.7-0.8,1.4-1.4,1.9c-0.7,0.6-1.5,1.1-2.4,1.3
				c-0.3,0.1-0.3,0.5,0,0.6c1.7,0.4,3.4,0.5,4.1-0.6C32.8,18.9,32.8,17.7,32.5,16.5z"/>
			<path class="st1" d="M31.4,14.3c0.1-1.3-0.4-2.5-1.2-3.5c-0.9-0.9-2-1.5-3.3-1.6c-0.1,0-0.2,0-0.2,0c-0.1,0-0.3,0-0.4,0
				c-1.1,0.1-2,0.5-2.8,1.2c-0.9,0.9-1.5,2-1.6,3.3c-0.1,1.3,0.4,2.5,1.2,3.5c0.8,0.9,1.9,1.5,3.2,1.6c0.1,0,0.1,0,0.2,0
				c1.3,0.1,2.5-0.4,3.5-1.2C30.8,16.7,31.3,15.6,31.4,14.3z M26.6,17.7c-2,0-3.6-1.6-3.6-3.6c0-2,1.6-3.6,3.6-3.6s3.6,1.6,3.6,3.6
				C30.2,16,28.6,17.7,26.6,17.7z"/>
			<path class="st1" d="M31.4,14.3c0.1-1.3-0.4-2.5-1.2-3.5c-0.9-0.9-2-1.5-3.3-1.6c-0.1,0-0.2,0-0.2,0c-0.1,0-0.3,0-0.4,0
				c-1.1,0.1-2,0.5-2.8,1.2c-0.9,0.9-1.5,2-1.6,3.3c-0.1,1.3,0.4,2.5,1.2,3.5c0.8,0.9,1.9,1.5,3.2,1.6c0.1,0,0.1,0,0.2,0
				c1.3,0.1,2.5-0.4,3.5-1.2C30.8,16.7,31.3,15.6,31.4,14.3z M26.6,17.7c-2,0-3.6-1.6-3.6-3.6c0-2,1.6-3.6,3.6-3.6s3.6,1.6,3.6,3.6
				C30.2,16,28.6,17.7,26.6,17.7z"/>
			<path class="st2" d="M28.4,13.4C28.3,13.4,28.3,13.4,28.4,13.4c-0.5,0-0.8,0.4-0.8,0.8c0,0.4,0.3,0.7,0.7,0.8c0.1,0,0.1,0,0.2,0
				c0.4,0,0.8-0.4,0.8-0.8C29.2,13.7,28.8,13.4,28.4,13.4z"/>
			<path class="st3" d="M24.9,13.4L24.9,13.4C24.9,13.4,24.9,13.4,24.9,13.4c-0.5,0-0.9,0.4-0.9,0.8c0,0.4,0.4,0.8,0.8,0.8
				c0.1,0,0.1,0,0.2,0c0.4-0.1,0.6-0.4,0.6-0.8C25.7,13.7,25.3,13.4,24.9,13.4z"/>
			<path class="st4" d="M27.4,12.4l-0.1,0L27.4,12.4C27.4,12.3,27.4,12.3,27.4,12.4c0-0.4-0.4-0.8-0.8-0.8c-0.4,0-0.8,0.3-0.8,0.8
				c0,0,0,0,0,0c0,0.4,0.4,0.8,0.8,0.8C27.1,13.2,27.4,12.9,27.4,12.4C27.4,12.4,27.4,12.4,27.4,12.4z"/>
			<path class="st5" d="M27.4,15.7c-0.1-0.3-0.4-0.6-0.8-0.6c-0.3,0-0.6,0.2-0.8,0.5c0,0.1,0,0.2,0,0.3c0,0.4,0.4,0.8,0.8,0.8
				c0.4,0,0.8-0.4,0.8-0.8C27.4,15.8,27.4,15.8,27.4,15.7z"/>
		</g>
		<g>
			<rect x="15.1" y="32.5" class="st6" width="0.9" height="0.2"/>
			<rect x="13.4" y="33.2" class="st6" width="0.8" height="0.2"/>
			<path class="st6" d="M15.8,31.1c0.3,0.1,0.6,0.1,0.9,0.2v-0.7h-0.2l0.2,0.3C16.4,31,16.1,31.1,15.8,31.1z"/>
			<rect x="13.4" y="32.5" class="st6" width="0.8" height="0.2"/>
			<rect x="15.1" y="33.2" class="st6" width="0.9" height="0.2"/>
			<polygon class="st1" points="14,25.8 15.5,27.8 17.5,27.8 17.5,22.3 15.5,22.3 15.5,24.4 14,22.3 12,22.3 12,27.8 14,27.8 			"/>
			<polygon class="st1" points="28.4,22.3 28.4,25 27.3,22.3 26.1,25 26.1,22.3 24.5,22.3 24.5,27.8 26.1,27.8 26.7,26.5 26.7,26.4 
				27.9,26.4 28.4,27.8 30.1,27.8 30.1,22.3 			"/>
			<path class="st1" d="M19.7,27.9h2.5c0.8,0,1.5-0.7,1.5-1.5v-2.5c0-0.8-0.7-1.5-1.5-1.5h-2.5c-0.8,0-1.5,0.7-1.5,1.5v2.5
				C18.3,27.2,18.9,27.9,19.7,27.9z M21,23.8v0.9l0.8,0.4L21,26.5v-0.9l-0.8-0.4L21,23.8z"/>
			<path class="st1" d="M17.4,33.9C17.4,33.8,17.4,33.8,17.4,33.9c-0.2-0.1-0.4,0-0.5,0.2c-0.1,0.1-0.2,0.1-0.3,0.1h-1.1
				c-0.3,0-0.4,0-0.4-0.2h1.1c0.4,0,0.8-0.3,0.8-0.8v-0.7c0-0.3-0.3-0.6-0.6-0.6h-2.1c-0.2,0.2-0.4,0.3-0.7,0.3
				c-0.3,0-0.5-0.1-0.7-0.3h-0.3v2.3h0.9V34h0.8c0,0.7,0.3,0.9,1.2,0.9h1.2c0.6,0,0.9-0.1,1-0.6C17.7,34.1,17.6,33.9,17.4,33.9z
				 M14.3,33.4h-0.8v-0.2h0.8V33.4z M14.3,32.7h-0.8v-0.2h0.8V32.7z M15.1,32.5H16v0.2h-0.9V32.5z M15.1,33.2H16v0.2h-0.9V33.2z"/>
			<path class="st1" d="M20.8,29.5c-0.1,0-0.3,0.1-0.3,0.3v0.3c0,0.1,0.1,0.3,0.3,0.3h2.5c0.1,0,0.3-0.1,0.3-0.3v-0.3
				c0-0.1-0.1-0.3-0.3-0.3H20.8z"/>
			<path class="st1" d="M20.4,33.5l0-0.3c0-0.2-0.2-0.3-0.3-0.2l-0.4,0.1v-0.9h0.3c0.1,0,0.3-0.1,0.3-0.3v-0.3
				c0-0.1-0.1-0.3-0.3-0.3h-0.3v-0.9H20c0.1,0,0.3-0.1,0.3-0.3v-0.3c0-0.1-0.1-0.3-0.3-0.3h-1.6c-0.1,0-0.3,0.1-0.3,0.3v0.3
				c0,0.1,0.1,0.3,0.3,0.3h0.4v0.9h-0.4c-0.1,0-0.3,0.1-0.3,0.3v0.3c0,0.1,0.1,0.3,0.3,0.3h0.4v1.1c-0.2,0-0.4,0.1-0.6,0.1
				c-0.1,0-0.2,0.2-0.2,0.3l0.1,0.3c0,0.1,0.2,0.2,0.3,0.2c0.5-0.1,1.2-0.3,1.8-0.5C20.3,33.7,20.4,33.6,20.4,33.5z"/>
			<path class="st1" d="M23.9,33.6c-0.1,0-0.2-0.1-0.3-0.1c-0.2-0.1-0.4,0-0.4,0.2c0,0.4,0,0.4-0.1,0.4H23c-0.1,0-0.1,0-0.1-0.2
				v-1.8h0.7c0.1,0,0.3-0.1,0.3-0.3v-0.3c0-0.1-0.1-0.3-0.3-0.3h-3.1c-0.1,0-0.3,0.1-0.3,0.3v0.3c0,0.1,0.1,0.3,0.3,0.3h0.4
				c0,1-0.1,1.6-1.1,2c-0.2,0.1-0.2,0.3-0.1,0.4c0.1,0.1,0.1,0.2,0.2,0.3c0.1,0.1,0.2,0.2,0.3,0.1c1.3-0.5,1.5-1.4,1.5-2.8h0.3v1.8
				c0,0.8,0.1,1.1,0.8,1.1h0.4c0.5,0,0.7-0.3,0.8-1.1C24,33.7,24,33.6,23.9,33.6z"/>
			<path class="st1" d="M13.6,30.2c0.6,0,1,0.5,1,1c0,0.2-0.1,0.4-0.2,0.6H15c0.1,0,0.1-0.1,0.1-0.1v-1.1h0.7
				c-0.2,0.1-0.4,0.1-0.5,0.1l0.2,0.3c-0.1,0-0.1,0-0.2,0l-0.2,0.5c0.5,0.1,1.1,0.2,1.4,0.4l0.1-0.4h0.6c0.1,0,0.2-0.1,0.2-0.2v-1
				c0-0.1-0.1-0.2-0.2-0.2h-2.2v-0.2H17c0.2,0,0.3-0.1,0.3-0.3s-0.1-0.3-0.3-0.3h-4.4c-0.2,0-0.3,0.1-0.3,0.3s0.1,0.3,0.3,0.3h1.8
				V30h-2.1c-0.1,0-0.2,0.1-0.2,0.2v0.4v0.6c0,0.1,0.1,0.2,0.2,0.2h0.4c0-0.1,0-0.2,0-0.2C12.6,30.7,13,30.2,13.6,30.2z M16.7,30.6
				v0.7c-0.2-0.1-0.6-0.1-0.9-0.2c0.3-0.1,0.6-0.1,0.9-0.2l-0.2-0.3H16.7z"/>
			<path class="st1" d="M14.2,31c0,0.1-0.1,0.1-0.2,0.1c-0.2,0-0.3-0.1-0.3-0.3c0-0.1,0.1-0.2,0.1-0.2c0,0-0.1,0-0.1,0
				c0,0-0.1,0-0.1,0c0,0-0.1,0-0.1,0c-0.3,0.1-0.5,0.3-0.5,0.6c0,0.4,0.3,0.6,0.6,0.6c0.4,0,0.6-0.3,0.6-0.6
				C14.2,31.2,14.2,31.1,14.2,31z"/>
			<g>
				<path class="st1" d="M27.4,33.8c0,0-0.1,0-0.1,0c0,0-0.1,0-0.1,0l-2.1-0.9v1l2.2,1l2.2-1v-1L27.4,33.8z"/>
				<path class="st1" d="M27.3,33.6l2.2-1l-1.7-0.7v0.3v0.1c0,0,0,0,0,0c0,0.2-0.2,0.4-0.4,0.4c-0.2,0-0.4-0.2-0.4-0.4c0,0,0,0,0,0
					v-0.1v-0.3l-1.7,0.7h0L27.3,33.6z M28.4,32.4C28.4,32.4,28.4,32.4,28.4,32.4c0.1,0,0.2,0,0.2,0.1c0,0,0,0,0,0c0,0,0,0,0,0
					c0,0,0,0,0,0c0,0.1-0.1,0.1-0.2,0.1c0,0,0,0,0,0c-0.1,0-0.2-0.1-0.2-0.1c0,0,0,0,0,0C28.2,32.5,28.3,32.5,28.4,32.4z"/>
				<path class="st1" d="M27,31.9v0.2v0.2v0.1c0,0.1,0.1,0.2,0.2,0.2c0.1,0,0.2-0.1,0.2-0.2v-0.1v-0.2v-0.2c-0.1,0-0.2,0-0.2,0
					C27.2,31.9,27.1,31.9,27,31.9z"/>
				<path class="st4" d="M26.8,31.5C26.8,31.5,26.8,31.6,26.8,31.5c0.1,0.1,0.1,0.1,0.2,0.1c0,0,0.1,0,0.1,0c0.1,0,0.1,0,0.2,0
					c0,0,0,0,0,0c0,0,0,0,0,0c0.1,0,0.1,0,0.2,0c0,0,0.1,0,0.1,0c0,0,0.1,0,0.1,0c0,0,0,0,0.1,0c0.3-0.2,0.5-0.5,0.5-0.9
					c0-0.6-0.5-1.1-1.1-1.1c-0.6,0-1.1,0.5-1.1,1.1C26.2,31,26.4,31.4,26.8,31.5z"/>
			</g>
		</g>
	</g>
</g>
</svg>
