<?xml version="1.0" encoding="utf-8"?>
<!-- Generator: Adobe Illustrator 24.2.1, SVG Export Plug-In . SVG Version: 6.00 Build 0)  -->
<svg version="1.1" id="圖層_1" xmlns="http://www.w3.org/2000/svg" xmlns:xlink="http://www.w3.org/1999/xlink" x="0px" y="0px"
	 viewBox="0 0 42 42" style="enable-background:new 0 0 42 42;" xml:space="preserve">
<style type="text/css">
	.st0{fill:#FFFFFF;}
	.st1{fill:#231815;}
</style>
<circle class="st0" cx="21" cy="21" r="21"/>
<g>
	<path class="st1" d="M24,17.1c0.4,0,0.7,0,1.1,0c0.2,0,0.5,0,0.7,0c-0.2,0-0.5,0-0.7,0C24.7,17.1,24.4,17.1,24,17.1z"/>
	<path class="st1" d="M21.4,14.9c-0.3,0-0.6,0-0.8,0C20.9,14.9,21.2,14.9,21.4,14.9c0.3,0,0.7,0,1,0C22.1,14.9,21.8,14.9,21.4,14.9z
		"/>
	<path class="st1" d="M34.2,24.3c0-0.1,0-0.2,0-0.4c-0.1-0.6-0.5-0.9-1.1-0.9c-0.2,0-0.3,0-0.5,0c-0.1-0.2,0-0.3,0-0.4
		c0-3.9,0-7.8,0-11.7c0-1.5-1.2-2.6-2.7-2.6c-3.1,0-6.1,0-9.2,0c-0.4,0-0.8,0.1-1.1,0.2c-1,0.3-1.7,1.4-1.7,2.4c0,0.5,0,1.1,0,1.6
		c0,5.1,0,10.2,0,15.3c0,0.6,0.2,1.1,0.5,1.6c0.5,0.7,1.2,1.1,2.1,1.1c0.7,0,1.5,0,2.2,0c1.7,0,3.5,0,5.2,0c0.2,0,0.3,0,0.4,0.2
		c0,0.1,0.2,0.2,0.3,0.2c0.1,0,0.2-0.1,0.2-0.3c0-0.3-0.1-0.5-0.2-0.7c-0.4-0.5-0.8-1-1.3-1.5c-0.4-0.4-0.6-0.9-0.7-1.4
		c-0.1-0.3,0-0.7,0.2-1c0.1-0.2,0.4-0.3,0.6-0.3c0.2-0.1,0.3-0.2,0.3-0.4c0-0.1,0-0.1,0-0.2c0-1.8,0-3.5,0-5.3c0-0.1,0-0.2,0-0.3
		c0-0.3,0.2-0.5,0.5-0.5c0.3,0,0.5,0.2,0.5,0.5c0,0.1,0,0.2,0,0.2c0,1.2,0,2.4,0,3.6c0,0.1,0,0.3,0,0.4c0,0.1,0.1,0.2,0.2,0.2
		c0.1,0,0.2,0,0.3-0.2c0.1-0.1,0.1-0.3,0.1-0.4c0-0.1,0-0.3,0-0.4c0.1-0.3,0.3-0.5,0.6-0.4c0.2,0,0.4,0.2,0.4,0.5c0,0.2,0,0.3,0,0.5
		c0,0.2,0.1,0.4,0.3,0.4c0.2,0,0.3-0.1,0.3-0.4c0-0.1,0-0.2,0-0.3c0-0.3,0.2-0.4,0.5-0.4c0.3,0,0.5,0.1,0.5,0.4c0,0.2,0,0.3,0,0.5
		c0,0.2,0,0.3,0,0.5c0,0.2,0.1,0.3,0.3,0.3c0.2,0,0.2-0.1,0.3-0.3c0-0.1,0-0.2,0-0.3c0-0.1,0.1-0.1,0.1-0.2c0.4-0.2,0.8,0,0.9,0.4
		c0,0.1,0,0.2,0,0.3c0,0.9,0,1.9,0,2.8c0,0.8-0.3,1.5-0.8,2.2c-0.1,0.2-0.3,0.4-0.4,0.6c-0.1,0.2-0.2,0.4-0.2,0.6
		c0,0.2,0.1,0.2,0.2,0.3c0.1,0,0.3-0.1,0.3-0.2c0-0.2,0.1-0.3,0.2-0.5c0.2-0.3,0.4-0.5,0.5-0.8c0.4-0.6,0.6-1.2,0.6-1.9
		C34.3,26.3,34.2,25.3,34.2,24.3z M25.1,30c-0.3,0-0.5-0.2-0.5-0.4c0-0.2,0.2-0.4,0.4-0.4c0.3,0,0.5,0.2,0.5,0.4
		C25.6,29.8,25.4,30,25.1,30z M31.7,21.9c0,0.2,0,0.2-0.2,0.2c-0.2,0-0.4,0-0.6,0.1c-0.1,0-0.2,0.1-0.2,0c-0.4-0.4-0.8-0.5-1.3-0.3
		c0,0-0.1,0-0.1,0c0,0,0-0.1,0-0.1c0-0.2,0-0.2,0.2-0.2c0.2,0,0.3,0,0.5,0c0.1,0,0.2,0,0.2-0.2c0-0.3,0-0.5,0-0.8
		c0-0.1-0.1-0.2-0.2-0.2c-0.2,0-0.3,0-0.5,0c-0.1,0-0.2,0-0.2-0.2c0-0.2,0-0.5,0-0.7c0-0.1,0.1-0.2,0.2-0.2c0.2,0,0.3,0,0.5,0
		c0.1,0,0.2,0,0.2-0.2c0-0.2,0-0.5,0-0.7c0-0.1-0.1-0.2-0.2-0.2c-0.1,0-0.1,0-0.2,0c-3.1,0-6.1,0-9.2,0c0,0-0.1,0-0.1,0
		c-0.2,0-0.2,0-0.2,0.2c0,0.2,0,0.5,0,0.7c0,0.1,0,0.2,0.2,0.2c0.1,0,0.2,0,0.2,0c2,0,4,0,6.1,0c0.1,0,0.2,0,0.2,0
		c0.1,0,0.2,0,0.2,0.1c0,0.3,0,0.5,0,0.8c0,0.1-0.1,0.1-0.1,0.1c-0.1,0-0.2,0-0.3,0c-2,0-4,0-6,0c-0.1,0-0.1,0-0.2,0
		c-0.2,0-0.2,0-0.3,0.3c0,0.2,0,0.5,0,0.7c0,0.2,0.1,0.2,0.2,0.2c0.1,0,0.2,0,0.2,0c2,0,4,0,6,0c0.1,0,0.2,0,0.2,0
		c0.1,0,0.2,0,0.2,0.2c0,0.2,0,0.5,0,0.7c0,0.1-0.1,0.2-0.2,0.2c-0.1,0-0.2,0-0.2,0c-2,0-4,0-6.1,0c-0.4,0-0.4,0-0.4,0.4
		c0,0.2,0,0.4,0,0.6c0,0.1,0.1,0.2,0.2,0.2c0.1,0,0.2,0,0.2,0c2,0,4,0,6,0c0.1,0,0.2,0,0.2,0c0.1,0,0.2,0,0.2,0.2c0,0.2,0,0.5,0,0.7
		c0,0.1,0,0.2-0.2,0.1c-0.1,0-0.2,0-0.2,0c-2,0-4.1,0-6.1,0c-0.4,0-0.4,0-0.4,0.3c0,0.2,0,0.4,0,0.6c0,0.1,0,0.2,0.2,0.2
		c0.1,0,0.2,0,0.2,0c1.7,0,3.4,0,5.1,0c0.1,0,0.2,0,0.4,0c-0.2,0.7,0,1.5,0.4,2.2c-0.8,0-1.6,0-2.3,0c-1.2,0-2.3,0-3.5,0
		c-0.4,0-0.8-0.1-1.2-0.3c-0.5-0.3-0.7-0.8-0.8-1.4c0-0.1,0-0.3,0-0.4c0-5,0-10,0-14.9c0-0.6,0.1-1.1,0.5-1.5
		c0.4-0.4,0.8-0.6,1.3-0.6c0.5,0,0.9,0,1.4,0c2.7,0,5.3,0,8,0c0.9,0,1.5,0.6,1.8,1.2c0.1,0.2,0.1,0.5,0.1,0.7
		C31.7,14.6,31.7,18.3,31.7,21.9z"/>
	<path class="st1" d="M24.1,32.1c0.1,0.2,0.1,0.3,0.1,0.5c0.1,0.3,0.2,0.7,0.3,1c0,0,0,0,0,0.1c0.1,0.1,0.2,0.1,0.3,0.1
		c0.1,0,0.1-0.1,0.1-0.2c0-0.1,0.1-0.2,0.1-0.4c0,0,0,0.1,0,0.1c0,0.1,0.1,0.2,0.1,0.3c0,0.1,0.1,0.1,0.2,0.1c0.1,0,0.2-0.1,0.2-0.2
		c0-0.1,0.1-0.2,0.1-0.3c0.1-0.3,0.2-0.6,0.3-0.9c0-0.1,0-0.1,0.1-0.2c0-0.1,0.1-0.1,0.1-0.1c0,0,0,0,0,0c0,0,0.1-0.1,0.1-0.1
		c0-0.1,0-0.1-0.1-0.1c-0.1,0-0.3,0-0.4,0c0,0-0.1,0-0.1,0.1c0,0.1,0,0.1,0.1,0.1c0,0,0,0,0.1,0c0,0,0,0,0,0
		c-0.1,0.3-0.2,0.5-0.2,0.8c-0.1,0.2-0.1,0.4-0.2,0.6c0,0,0,0.1,0,0.1c0,0,0,0,0-0.1c-0.1-0.1-0.1-0.3-0.2-0.4c0-0.1,0-0.2,0-0.2
		c0.1-0.2,0.2-0.4,0.2-0.7c0-0.1,0-0.1,0.1-0.1c0,0,0,0,0,0c0,0,0.1-0.1,0.1-0.1c0-0.1,0-0.1-0.1-0.1c-0.1,0-0.3,0-0.4,0
		c-0.1,0-0.1,0-0.1,0.1c0,0.1,0,0.1,0.1,0.1c0,0,0.1,0,0.1,0c-0.1,0.2-0.1,0.4-0.2,0.6C25,32.4,25,32.2,24.9,32c0,0,0.1,0,0.1,0
		c0.1,0,0.1-0.1,0.1-0.1c0-0.1,0-0.1-0.1-0.1c-0.1,0-0.3,0-0.4,0c0,0-0.1,0-0.1,0.1c0,0.1,0,0.1,0.1,0.1c0,0,0.1,0,0.1,0.1
		c0.1,0.3,0.2,0.5,0.3,0.8c0,0,0,0.1,0,0.1c-0.1,0.2-0.1,0.3-0.2,0.5c0,0,0,0,0,0.1c-0.1-0.1-0.5-1.4-0.5-1.5c0,0,0.1,0,0.1,0
		c0.1,0,0.1,0,0.1-0.1c0-0.1,0-0.1-0.1-0.1c-0.1,0-0.3,0-0.4,0c0,0-0.1,0-0.1,0.1c0,0.1,0,0.1,0.1,0.1C24,32,24.1,32,24.1,32.1z"/>
	<g>
		<path class="st1" d="M16.2,29.4c-0.2,0-0.3,0.1-0.3,0.2c0,0.2,0,0.3,0,0.5c-0.1,0.4-0.3,0.6-0.7,0.7c-0.6,0.1-1.2,0.1-1.8,0.1
			c-0.2,0-0.6,0-0.9,0c-0.2,0-0.4,0-0.6-0.1c-0.3,0-0.5-0.3-0.5-0.6c0-0.2,0-0.4,0-0.6c0-0.2,0-0.4,0-0.5c0-0.2,0.1-0.2,0.2-0.2
			c0,0,0.1,0,0.1,0c0.4,0,0.8,0,1.2,0c0.2,0,0.3,0,0.5-0.1c0.2-0.1,0.3-0.2,0.4-0.4c0-0.3,0-0.5,0-0.8c0-0.1,0-0.2,0-0.3
			c0-0.2-0.1-0.3-0.3-0.4c-0.2-0.1-0.3-0.1-0.5-0.1c-0.6,0-1.1,0-1.7,0c0,0-0.1,0-0.1,0c-0.1,0-0.1,0.1-0.1,0.2
			c0,0.1,0.1,0.2,0.1,0.2c0.1,0,0.1,0,0.2,0c0.6,0,1.1,0,1.7,0c0,0,0.1,0,0.1,0c0.1,0,0.2,0.1,0.2,0.3c0,0.2,0,0.5,0,0.7
			c0,0.2-0.1,0.2-0.3,0.3c-0.1,0-0.1,0-0.2,0c-0.5,0-0.9,0-1.4,0c-0.5,0-0.7,0.3-0.7,0.6c0,0.2,0,0.4,0,0.6c0,0.2,0,0.3,0,0.5
			c0,0.3,0.1,0.5,0.3,0.7c0.2,0.1,0.4,0.2,0.6,0.2c0.7,0.1,1.3,0.1,2,0.1c0.5,0,1,0,1.5-0.1c0.3,0,0.6-0.2,0.8-0.4
			c0.2-0.3,0.3-0.7,0.3-1.1C16.4,29.5,16.3,29.4,16.2,29.4z"/>
		<path class="st1" d="M11.8,26c1,0,2,0,2.9,0c0,0,0.1,0,0.1,0c0.3,0,0.4,0.2,0.4,0.4c0,0.6,0,1.3-0.1,1.9c0,0.2-0.1,0.4-0.2,0.6
			c-0.1,0.2-0.3,0.3-0.6,0.3c-0.1,0-0.2,0-0.3,0c-0.1,0-0.1,0-0.2,0c-0.1,0-0.2,0-0.2,0.2c0,0.1,0,0.2,0.2,0.3
			c0.2,0.1,0.5,0.1,0.8,0.1c0.3-0.1,0.6-0.2,0.7-0.5c0.1-0.2,0.2-0.4,0.2-0.6c0.1-0.8,0.1-1.5,0.1-2.3c0-0.3-0.2-0.5-0.6-0.6
			c-0.1,0-0.2,0-0.3,0c-0.9,0-1.8,0-2.7,0c-0.1,0-0.1,0-0.2,0c0-0.1,0.1-0.2,0.1-0.2c0.1-0.1,0.1-0.2,0.1-0.3c0.1-0.2,0-0.3-0.2-0.3
			c-0.1,0-0.2,0-0.3,0.2c-0.2,0.4-0.4,0.8-0.7,1.2c-0.2,0.3-0.4,0.6-0.7,0.8c-0.1,0.1-0.2,0.2-0.3,0.3c-0.1,0.1-0.1,0.2,0,0.3
			c0.1,0.1,0.2,0.1,0.3,0c0,0,0.1,0,0.1-0.1c0.1-0.1,0.2-0.2,0.4-0.4c0.3-0.3,0.5-0.7,0.8-1C11.6,26,11.7,26,11.8,26z"/>
	</g>
	<path class="st1" d="M20.5,33.7c0.1,0,0.1-0.1,0.1-0.2c0-0.1-0.1-0.1-0.1-0.1c-0.1,0-0.1,0-0.1-0.1c0-0.1,0-0.2,0-0.2
		c0-0.3,0-0.7,0-1c0,0,0,0,0-0.1c0,0,0,0,0,0c0.1,0.2,0.3,0.5,0.4,0.7c0.1,0.2,0.3,0.5,0.4,0.7c0,0,0,0.1,0,0.1
		c0.1,0.1,0.1,0.1,0.2,0.1c0.1,0,0.1-0.1,0.1-0.2c0,0,0-0.1,0-0.1c0-0.4,0-0.9,0-1.3c0-0.1,0-0.1,0.1-0.1c0,0,0,0,0,0
		c0.1,0,0.1,0,0.1-0.1c0-0.1,0-0.1-0.1-0.1c-0.2,0-0.3,0-0.5,0c0,0-0.1,0-0.1,0.1c0,0.1,0,0.1,0.1,0.1c0.1,0,0.1,0,0.1,0.1
		c0,0,0,0,0,0c0,0.4,0,0.8,0,1.2c0,0,0,0.1,0,0.1c-0.1-0.2-0.2-0.4-0.3-0.5c-0.2-0.3-0.3-0.6-0.5-0.9c0,0,0-0.1-0.1-0.1
		c0,0-0.1-0.1-0.2-0.1c-0.1,0-0.2,0-0.3,0c-0.1,0-0.1,0-0.1,0.1c0,0.1,0,0.1,0.1,0.1c0,0,0,0,0,0c0,0,0.1,0,0.1,0.1
		c0,0.1,0,0.2,0,0.3c0,0.4,0,0.7,0,1.1c0,0.1,0,0.1-0.1,0.1c0,0,0,0,0,0c-0.1,0-0.1,0.1-0.1,0.1c0,0.1,0,0.1,0.1,0.1
		C20.2,33.7,20.3,33.7,20.5,33.7z"/>
	<path class="st1" d="M23.8,32.6c0-0.2-0.1-0.3-0.2-0.5c-0.2-0.2-0.4-0.3-0.7-0.4c-0.1,0-0.2,0-0.2,0c-0.3,0.1-0.5,0.2-0.6,0.5
		c-0.1,0.3-0.1,0.6,0,0.9c0.1,0.2,0.2,0.3,0.3,0.4c0.2,0.1,0.4,0.2,0.7,0.2c0.4-0.1,0.6-0.3,0.7-0.6c0-0.1,0.1-0.2,0.1-0.4
		C23.8,32.7,23.8,32.6,23.8,32.6z M23.5,33.2c-0.1,0.2-0.2,0.3-0.4,0.3c-0.4,0.1-0.7-0.2-0.8-0.4c-0.1-0.2-0.1-0.5,0-0.7
		c0.1-0.2,0.3-0.4,0.6-0.4c0.3,0,0.5,0.1,0.6,0.4c0.1,0.1,0.1,0.2,0.1,0.4C23.6,32.9,23.6,33,23.5,33.2z"/>
	<path class="st1" d="M29.2,32.6C29.3,32.6,29.3,32.7,29.2,32.6c0.2,0.4,0.3,0.6,0.5,0.9c0,0,0,0,0,0.1c0.1,0.1,0.2,0.1,0.3,0
		c0,0,0-0.1,0.1-0.1c0,0,0-0.1,0.1-0.1c0,0,0,0,0,0.1c0,0.1,0,0.1,0.1,0.2c0,0.1,0.1,0.1,0.1,0.1c0.1,0,0.1,0,0.1-0.1
		c0,0,0-0.1,0-0.1c0.1-0.3,0.2-0.6,0.3-0.8c0,0,0-0.1,0.1-0.1c0.1,0,0.1,0,0.1-0.1c0-0.1,0-0.1-0.1-0.1c-0.1,0-0.2,0-0.3,0
		c-0.1,0-0.1,0-0.1,0.1c0-0.1-0.1-0.1-0.1-0.1c-0.1,0-0.1,0-0.2,0c-0.1,0-0.1,0-0.1,0.1c0-0.1-0.1-0.1-0.1-0.1c-0.1,0-0.1,0-0.2,0
		c-0.1,0-0.1,0-0.1,0.1c0,0-0.1-0.1-0.1-0.1c-0.1,0-0.2,0-0.3,0c-0.1,0-0.1,0-0.1,0.1C29.1,32.6,29.1,32.6,29.2,32.6z M30.2,32.9
		c0-0.1,0.1-0.2,0.1-0.2c0,0,0-0.1,0.1-0.1c0,0,0.1,0,0.1-0.1c0,0.1,0.1,0.1,0.2,0.1c-0.1,0.3-0.2,0.6-0.3,0.8c0,0,0-0.1-0.1-0.1
		C30.2,33.2,30.2,33.1,30.2,32.9z M30.1,32.6C30.1,32.6,30.1,32.6,30.1,32.6c0.1,0.1,0.1,0,0.1,0.1c0,0,0,0.1,0,0.1
		c0,0,0,0.1-0.1,0.1c0,0,0,0,0,0C30,32.8,30,32.7,30.1,32.6C30,32.6,30,32.6,30.1,32.6z M29.6,32.6c0,0,0.1,0.1,0.1,0.1c0,0,0,0,0,0
		c0.1,0.1,0.1,0.3,0.2,0.4c0,0.1,0,0.1,0,0.2c0,0.1-0.1,0.2-0.1,0.2c-0.1-0.3-0.2-0.6-0.3-0.8C29.5,32.6,29.6,32.6,29.6,32.6z"/>
	<path class="st1" d="M27.7,33.5C27.6,33.5,27.6,33.5,27.7,33.5c-0.1-0.1-0.1-0.1-0.1-0.1c0-0.2,0-0.3,0-0.5c0-0.1,0-0.3-0.2-0.4
		c-0.2-0.1-0.4-0.1-0.6,0c0,0,0,0-0.1,0c-0.1-0.1-0.2-0.1-0.3-0.1c-0.1,0-0.1,0-0.1,0.1c0,0.1,0,0.1,0.1,0.1c0.1,0,0.1,0,0.1,0.1
		c0,0.1,0,0.3,0,0.4c0,0.1,0,0.2,0,0.2c0,0,0,0.1,0,0.1c0,0-0.1,0-0.1,0c0,0-0.1,0.1-0.1,0.1c0,0.1,0,0.1,0.1,0.1c0.1,0,0.3,0,0.4,0
		c0.1,0,0.1,0,0.1-0.1c0,0,0-0.1-0.1-0.1c0,0,0,0,0,0c0,0-0.1,0-0.1-0.1c0-0.1,0-0.3,0-0.4c0,0,0-0.1,0-0.1c0-0.1,0.1-0.2,0.2-0.2
		c0.1,0,0.3,0,0.3,0.2c0,0,0,0.1,0,0.1c0,0.2,0,0.3,0,0.5c0,0,0,0.1-0.1,0c0,0,0,0,0,0c0,0-0.1,0.1-0.1,0.1c0,0.1,0,0.1,0.1,0.1
		c0.1,0,0.3,0,0.4,0c0.1,0,0.1-0.1,0.1-0.1C27.7,33.5,27.7,33.5,27.7,33.5z"/>
	<path class="st1" d="M28.9,33.6c0,0,0.1-0.1,0.1-0.1c0,0,0-0.1,0-0.1c0,0-0.1,0-0.1,0c0,0,0,0-0.1,0.1c-0.1,0.1-0.3,0.2-0.4,0.1
		c-0.2-0.1-0.2-0.2-0.2-0.4c0.1,0,0.1,0,0.2,0c0.2,0,0.3,0,0.5,0c0.1,0,0.2-0.1,0.2-0.2c0-0.1-0.1-0.3-0.2-0.4
		c-0.2-0.1-0.3-0.1-0.5,0c-0.1,0-0.2,0.1-0.2,0.2c-0.1,0.2-0.2,0.3-0.2,0.5c0,0.2,0.1,0.4,0.2,0.5C28.4,33.8,28.7,33.7,28.9,33.6z
		 M28.2,32.7c0.1,0,0.1-0.1,0.2-0.1c0.1,0,0.3,0,0.4,0.2c0,0.1,0,0.1-0.1,0.1c-0.2,0-0.4,0-0.6,0C28.1,32.8,28.2,32.8,28.2,32.7z"/>
	<path class="st1" d="M31.9,33.1c-0.1-0.1-0.2-0.2-0.3-0.2c0,0-0.1,0-0.1-0.1c-0.1,0-0.1-0.1-0.1-0.1c0-0.1,0.1-0.1,0.1-0.1
		c0.1,0,0.2,0.1,0.2,0.2c0,0.1,0,0.1,0.1,0.1c0.1,0,0.1,0,0.1-0.1c0-0.1,0-0.2,0-0.3c0-0.1-0.1-0.1-0.1-0.1c0,0-0.1,0-0.1,0
		c-0.1,0-0.2,0-0.2,0c-0.1,0-0.2,0.1-0.3,0.3c0,0.1,0,0.3,0.1,0.4c0.1,0,0.1,0.1,0.2,0.1c0,0,0.1,0,0.1,0.1c0.1,0.1,0.2,0.2,0,0.3
		c-0.1,0-0.2,0-0.2,0c-0.1,0-0.1-0.1-0.1-0.1c0-0.1,0-0.1-0.1-0.1c-0.1,0-0.1,0-0.1,0.1c0,0,0,0.1,0,0.1c0,0,0,0.1,0,0.1
		c0,0.1,0.1,0.1,0.2,0.1c0,0,0.1,0,0.1,0c0.1,0.1,0.3,0.1,0.4,0c0.1-0.1,0.2-0.2,0.2-0.3C32,33.3,32,33.2,31.9,33.1z"/>
	<g>
		<path class="st1" d="M16.4,22.5c-0.2-0.1-0.3-0.2-0.5-0.2c-0.3-0.2-0.6-0.4-0.9-0.7c-0.3-0.3-0.5-0.6-0.8-0.9
			c-0.2-0.3-0.4-0.7-0.6-1.1c-0.1-0.3-0.2-0.7-0.3-1c0-0.2-0.1-0.4,0-0.6c0-0.3,0-0.6,0-0.9c0-0.2-0.1-0.3-0.3-0.3
			c-0.2,0-0.3,0.1-0.2,0.3c0,0.2,0,0.4,0,0.7c0,1.1-0.2,2.1-0.8,3c-0.3,0.4-0.6,0.8-1,1.1c-0.3,0.3-0.7,0.5-1.1,0.7
			c-0.2,0.1-0.2,0.2-0.2,0.3C9.8,23,10,23.1,10.1,23c0.1,0,0.1,0,0.2-0.1c0.4-0.2,0.7-0.4,1-0.6c0.4-0.3,0.7-0.7,1-1
			c0.2-0.3,0.3-0.6,0.5-0.8c0.2-0.3,0.3-0.7,0.4-1.1c0,0,0,0.1,0,0.1c0.1,0.3,0.2,0.7,0.4,1c0.1,0.1,0.1,0.2,0.2,0.3
			c0.2,0.3,0.4,0.6,0.7,0.9c0.2,0.3,0.5,0.5,0.8,0.7c0.2,0.2,0.4,0.3,0.6,0.4c0.1,0.1,0.2,0.1,0.4,0.1c0.1,0,0.3,0,0.3-0.2
			C16.6,22.6,16.5,22.5,16.4,22.5z"/>
		<path class="st1" d="M13.9,21.8c-0.2,0-0.5,0-0.7,0c-0.2,0-0.4,0-0.6,0c0,0-0.1,0-0.1,0c-0.1,0-0.2,0.1-0.2,0.2
			c0,0.1,0.1,0.2,0.1,0.2c0,0,0.1,0,0.1,0c0.4,0,0.9,0,1.3,0c0,0,0.1,0,0.1,0c0.1,0,0.1-0.1,0.1-0.2C14.1,21.8,14,21.8,13.9,21.8z"
			/>
	</g>
	<g>
		<g>
			<path class="st1" d="M15.1,13c0.1,0,0.2,0,0.4,0C15.3,13,15.2,13,15.1,13c-0.1,0-0.3,0-0.4,0C14.8,13,14.9,13,15.1,13z"/>
			<path class="st1" d="M15,11.8c-0.1,0-0.3,0-0.4,0C14.8,11.8,14.9,11.8,15,11.8c0.1,0,0.2,0,0.3,0C15.2,11.8,15.1,11.8,15,11.8z"
				/>
			<g>
				<path class="st1" d="M12.4,11.4c0-0.1,0-0.2,0-0.3C12.4,11.1,12.4,11.3,12.4,11.4c0,0.2,0,0.4,0,0.5
					C12.4,11.7,12.4,11.6,12.4,11.4z"/>
				<path class="st1" d="M12.8,10.9c0,0.2,0,0.3,0,0.5c0,0.1,0,0.3,0,0.4c0-0.1,0-0.3,0-0.4C12.8,11.2,12.8,11,12.8,10.9z"/>
				<path class="st1" d="M13.5,13.7c0.1,0.1,0.2,0.1,0.3,0c0.1-0.1,0.1-0.2,0.1-0.3c0-0.1-0.1-0.1-0.1-0.1c-0.2-0.1-0.4-0.3-0.6-0.4
					c-0.1-0.1-0.3-0.1-0.4,0c0-0.2,0-0.3,0-0.5c0-0.1,0-0.1,0.1-0.1c0.1,0,0.3,0,0.4,0c0.3,0,0.4-0.3,0.4-0.5c0-0.3,0-0.6,0-0.9
					c0-0.2-0.2-0.4-0.4-0.5c-0.1,0-0.3,0-0.4,0c-0.1,0-0.1,0-0.1-0.1c0-0.2,0-0.3,0-0.5c0-0.1,0-0.1,0.1-0.1c0.1,0,0.1,0,0.2,0
					c0.2,0,0.4,0,0.5,0c0.1,0,0.2-0.1,0.2-0.2c0-0.1,0-0.2-0.2-0.2c-0.2,0-0.5,0-0.7,0c-0.1,0-0.1,0-0.1-0.1c0-0.2,0-0.4,0-0.6
					c0-0.1,0-0.1,0-0.2c0-0.1-0.1-0.1-0.2-0.1c-0.1,0-0.1,0-0.2,0.1c0,0.1,0,0.1,0,0.2c0,0.2,0,0.4,0,0.6c0,0.1,0,0.1-0.1,0.1
					c-0.2,0-0.4,0-0.6,0c-0.2,0-0.2,0.1-0.2,0.2c0,0.1,0.1,0.2,0.2,0.2c0.2,0,0.4,0,0.6,0c0.1,0,0.1,0,0.1,0.1c0,0.2,0,0.3,0,0.5
					c0,0.1,0,0.1-0.1,0.1c-0.1,0-0.3,0-0.4,0c-0.2,0-0.3,0.1-0.3,0.4c-0.1,0.4,0,0.7,0,1.1c0,0.2,0.1,0.3,0.4,0.4c0.1,0,0.2,0,0.3,0
					c0,0,0.1,0,0.1,0c-0.1,0.2-0.2,0.4-0.4,0.6c-0.2,0.3-0.4,0.6-0.6,0.8c-0.1,0.1-0.2,0.2-0.3,0.3c-0.1,0.1-0.1,0.2,0,0.3
					c0.1,0.1,0.2,0,0.3-0.1c0.3-0.4,0.6-0.8,0.9-1.2c0,0,0-0.1,0.1,0c0,0,0,0,0,0.1c0,0.6,0,1.1,0,1.7c0,0.1,0,0.1,0,0.2
					c0,0.1,0.1,0.1,0.2,0.1c0.1,0,0.2-0.1,0.2-0.2c0,0,0-0.1,0-0.1c0-0.5,0-1.1,0-1.6c0-0.1,0-0.1,0-0.2c0,0,0.1,0,0.1,0
					C13.1,13.2,13.4,13.4,13.5,13.7z M12.3,12c-0.1,0-0.1,0-0.2,0c-0.2,0-0.2-0.1-0.3-0.3c0-0.2,0-0.4,0-0.7c0-0.1,0-0.1,0-0.2
					c0-0.1,0.1-0.1,0.2-0.2c0.3,0,0.3,0,0.3,0.3c0,0.1,0,0.2,0,0.3C12.4,11.6,12.4,11.7,12.3,12C12.4,12,12.4,12,12.3,12z
					 M12.8,11.7c0-0.1,0-0.3,0-0.4c0-0.2,0-0.3,0-0.5c0-0.1,0-0.1,0.1-0.1c0.4,0,0.4,0.1,0.4,0.4c0,0.2,0,0.4,0,0.6
					c0,0.2-0.1,0.2-0.2,0.2C12.8,12,12.8,12,12.8,11.7z"/>
				<path class="st1" d="M15.6,13.9c0.2,0,0.4-0.2,0.4-0.4c0-0.3,0-0.7,0-1c0,0,0,0,0,0c0-0.4,0-0.7,0-1.1c0-0.3-0.1-0.4-0.4-0.4
					c-0.1,0-0.2,0-0.3,0c-0.3,0-0.6,0-0.9,0c-0.2,0-0.3,0.1-0.3,0.4c0,0.1,0,0.1,0,0.2c0,0.2,0,0.4,0,0.6c0,0.5,0,0.9,0,1.4
					c0,0.2,0.1,0.4,0.4,0.4c0.2,0,0.4,0,0.6,0C15.2,13.9,15.4,13.9,15.6,13.9z M14.4,11.4c0-0.1,0.1-0.2,0.2-0.2c0.3,0,0.6,0,0.8,0
					c0.1,0,0.2,0.1,0.2,0.2c0,0.1,0.1,0.3,0,0.4c-0.1,0.1-0.2,0-0.3,0c-0.1,0-0.2,0-0.3,0c-0.1,0-0.3,0-0.4,0c0,0-0.1,0-0.1,0
					c-0.1,0-0.1,0-0.1-0.1C14.4,11.6,14.4,11.5,14.4,11.4z M14.4,12.2C14.4,12.1,14.5,12.1,14.4,12.2c0.4-0.1,0.8-0.1,1.1-0.1
					c0.1,0,0.1,0,0.1,0.1c0,0.1,0,0.2,0,0.4c0,0.1,0,0.1-0.1,0.1c-0.2,0-0.4,0-0.5,0c-0.2,0-0.4,0-0.5,0c-0.1,0-0.1,0-0.1-0.1
					C14.4,12.4,14.4,12.3,14.4,12.2z M14.7,13.6c-0.1,0-0.2-0.1-0.2-0.2c0-0.1,0-0.2,0-0.3c0-0.1,0-0.1,0.1-0.1c0,0,0.1,0,0.1,0
					c0.1,0,0.3,0,0.4,0c0.1,0,0.2,0,0.4,0c0,0,0.1,0,0.1,0c0.1,0,0.1,0,0.1,0.1c0,0.1,0,0.2,0,0.3c0,0.2-0.1,0.3-0.2,0.3
					C15.2,13.6,14.9,13.6,14.7,13.6z"/>
				<path class="st1" d="M11.1,10.2c0.1,0.1,0.1,0.2,0.2,0.3c0.1,0.1,0.2,0.1,0.3,0.1c0.1-0.1,0.1-0.2,0-0.3c0,0,0,0,0,0
					c-0.1-0.2-0.2-0.3-0.4-0.4c-0.2-0.1-0.2-0.1-0.4,0c0-0.1,0-0.1,0-0.2c0-0.3,0-0.6,0-0.9c0-0.1-0.1-0.2-0.2-0.2
					c-0.1,0-0.2,0.1-0.2,0.2c0,0,0,0.1,0,0.1c0,2,0,4,0,6c0,0,0,0.1,0,0.1c0,0.2,0.1,0.2,0.2,0.2c0.1,0,0.2-0.1,0.2-0.2
					c0,0,0-0.1,0-0.1c0-1.6,0-3.1,0-4.7c0-0.1,0-0.1,0-0.2C11,10,11.1,10.1,11.1,10.2z"/>
				<path class="st1" d="M15.3,10.2c-0.1,0-0.1,0-0.2-0.1c-0.1,0-0.2,0-0.2,0.1c0,0.1,0,0.2,0.1,0.2c0.2,0.1,0.4,0.1,0.6,0.1
					c0.2,0,0.4-0.1,0.5-0.3c0.2-0.3,0.3-0.7,0.3-1.1c0-0.2-0.1-0.3-0.3-0.3c-0.1,0-0.2,0-0.3,0c-0.3,0-0.5,0-0.8,0
					c-0.3,0-0.6,0-0.8,0c0,0,0,0-0.1,0c-0.1,0-0.2,0.1-0.2,0.2c0,0.1,0.1,0.2,0.2,0.2c0,0,0.1,0,0.1,0c0.2,0,0.4,0,0.5,0
					c0.1,0,0.1,0,0.1,0.1c0,0,0,0,0,0.1c-0.1,0.4-0.4,0.7-0.7,0.9c-0.1,0-0.1,0.1-0.2,0.1c-0.1,0.1-0.1,0.2,0,0.3c0.1,0,0.1,0,0.2,0
					c0.2-0.1,0.4-0.2,0.5-0.3c0.3-0.3,0.5-0.6,0.6-1c0,0,0,0,0,0c0,0,0-0.1,0.1-0.1c0.2,0,0.4,0,0.5,0c0.1,0,0.2,0.1,0.2,0.2
					c0,0.2,0,0.4-0.1,0.6C15.6,10.2,15.5,10.2,15.3,10.2z"/>
				<path class="st1" d="M9.8,9.9c-0.1,0-0.2,0.1-0.2,0.2c0,0.3-0.1,0.6-0.2,0.9c0,0.1-0.1,0.2-0.2,0.4c0,0.1,0,0.1,0,0.2
					c0.1,0.1,0.1,0.1,0.2,0.1c0.1,0,0.1,0,0.1-0.1c0-0.1,0.1-0.2,0.1-0.2C10,11,10,10.7,10,10.3c0-0.1,0-0.1,0-0.2
					C10,10,10,9.9,9.8,9.9z"/>
				<path class="st1" d="M14.6,14c0,0-0.1,0-0.1,0.1c-0.2,0.2-0.5,0.4-0.8,0.5c-0.1,0-0.2,0.1-0.3,0.1c-0.1,0-0.1,0.1-0.1,0.2
					c0,0.1,0.1,0.2,0.2,0.2c0.1,0,0.1,0,0.2,0c0.3-0.1,0.6-0.3,0.9-0.6c0.1-0.1,0.1-0.1,0.2-0.2c0-0.1,0-0.2,0-0.2
					C14.7,14,14.7,14,14.6,14z"/>
			</g>
		</g>
		<path class="st1" d="M16.4,14.7c-0.2-0.1-0.5-0.2-0.7-0.4c-0.1-0.1-0.1-0.1-0.2-0.2c-0.1-0.1-0.2-0.1-0.3,0
			c-0.1,0.1-0.1,0.1,0,0.2c0.2,0.2,0.4,0.4,0.7,0.6c0.1,0.1,0.2,0.1,0.3,0.2c0.2,0,0.3-0.1,0.3-0.2C16.5,14.7,16.5,14.7,16.4,14.7z"
			/>
	</g>
	<path class="st1" d="M26.6,13.7c-1,0-2,0-3,0c-0.2,0-0.2,0-0.2,0.2c0,1,0,1.9,0,2.9c0,0.2,0.1,0.2,0.2,0.2c0.1,0,0.2,0,0.4,0
		c0.4,0,0.7,0,1.1,0c0.2,0,0.5,0,0.7,0c0.2,0,0.5,0,0.7,0c0.2,0,0.2-0.1,0.2-0.2c0-1,0-1.9,0-2.9C26.8,13.8,26.8,13.7,26.6,13.7z"/>
	<path class="st1" d="M20.3,12.7c0.1,0,0.2,0,0.3,0c1.5,0,3.1,0,4.6,0c1.5,0,3,0,4.6,0c0.1,0,0.1,0,0.2,0c0.1,0,0.2,0,0.2-0.2
		c0-0.2,0-0.5,0-0.7c0-0.2-0.1-0.2-0.2-0.2c-0.1,0-0.1,0-0.2,0c-3.1,0-6.1,0-9.2,0c-0.1,0-0.2,0-0.2,0c-0.1,0-0.2,0-0.2,0.1
		c0,0.3,0,0.5,0,0.8C20.2,12.6,20.2,12.7,20.3,12.7z"/>
	<path class="st1" d="M22.5,15.9c-0.1,0-0.2,0-0.3,0c-0.3,0-0.5,0-0.8,0c-0.3,0-0.6,0-0.8,0c-0.1,0-0.2,0-0.3,0
		c-0.1,0-0.2,0.1-0.2,0.2c0,0.2,0,0.5,0,0.7c0,0.2,0.1,0.2,0.2,0.2c0.7,0,1.4,0,2.1,0c0.1,0,0.2-0.1,0.2-0.2c0-0.2,0-0.5,0-0.7
		C22.7,15.9,22.6,15.9,22.5,15.9z"/>
	<path class="st1" d="M29.9,15.9c-0.1,0-0.2,0-0.3,0c-0.3,0-0.5,0-0.8,0c-0.3,0-0.7,0-1,0c-0.1,0-0.2,0-0.2,0.1c0,0.3,0,0.5,0,0.8
		c0,0.1,0.1,0.2,0.2,0.2c0.7,0,1.3,0,2,0c0.1,0,0.2-0.1,0.2-0.2c0-0.2,0-0.5,0-0.7C30.1,16,30.1,15.9,29.9,15.9z"/>
	<path class="st1" d="M20.3,14.9c0.1,0,0.2,0,0.3,0c0.3,0,0.6,0,0.8,0c0.3,0,0.7,0,1,0c0.3,0,0.3,0,0.3-0.3c0-0.2,0-0.4,0-0.6
		c0-0.2,0-0.2-0.3-0.3c-0.1,0-0.3,0-0.4,0c-0.6,0-1.1,0-1.7,0c-0.2,0-0.2,0-0.2,0.2c0,0.2,0,0.5,0,0.7
		C20.1,14.8,20.2,14.9,20.3,14.9z"/>
	<path class="st1" d="M27.9,14.9c0.2,0,0.3,0,0.5,0c0.2,0,0.3,0,0.5,0c0.3,0,0.7,0,1,0c0.1,0,0.2,0,0.2-0.2c0-0.2,0-0.5,0-0.7
		c0-0.2-0.1-0.2-0.2-0.2c-0.7,0-1.3,0-2,0c-0.2,0-0.2,0.1-0.2,0.2c0,0.2,0,0.5,0,0.7C27.7,14.8,27.8,14.9,27.9,14.9z"/>
	<path class="st1" d="M23.2,32.2c-0.2-0.1-0.4-0.1-0.6,0c-0.2,0.1-0.3,0.3-0.3,0.5c0,0.1,0,0.2,0.1,0.3c0,0.1,0.1,0.1,0.1,0.2
		c0.2,0.2,0.7,0.1,0.9-0.2C23.6,32.7,23.5,32.3,23.2,32.2z M23.3,32.8c0,0.1-0.1,0.3-0.2,0.3c0,0,0,0-0.1,0c0,0-0.1,0-0.1,0
		c0,0,0-0.1,0-0.1c0,0,0,0,0,0c0.1,0,0.2-0.2,0.2-0.3c0,0,0-0.1,0-0.1c0,0,0-0.1,0-0.1c0,0,0.1,0,0.1,0.1c0,0,0,0.1,0,0.1
		C23.3,32.7,23.3,32.8,23.3,32.8z"/>
</g>
</svg>
