<?xml version="1.0" encoding="utf-8"?>
<!-- Generator: Adobe Illustrator 24.2.1, SVG Export Plug-In . SVG Version: 6.00 Build 0)  -->
<svg version="1.1" id="圖層_1" xmlns="http://www.w3.org/2000/svg" xmlns:xlink="http://www.w3.org/1999/xlink" x="0px" y="0px"
	 viewBox="0 0 42 42" style="enable-background:new 0 0 42 42;" xml:space="preserve">
<style type="text/css">
	.st0{fill:#FBC82B;}
	.st1{fill:#FFFFFF;}
	.st2{fill:#040000;}
</style>
<g>
	<circle class="st0" cx="21" cy="21" r="21"/>
</g>
<g>
	<g>
		<g>
			<path class="st1" d="M12.3,20c-0.1-0.2-0.2-0.3-0.3-0.3l-0.2,0c-0.1,0-0.3,0-0.4,0.1c-0.1,0.1-0.1,0.3-0.1,0.5l0.1,2.6
				c0,0.5,0.1,1.2,0.2,2.3l-0.4-1.3l-1.5-4c-0.1-0.2-0.2-0.4-0.3-0.5C9.2,19.2,9,19.1,8.9,19L8.6,19c-0.1,0-0.3,0-0.4,0.1
				c-0.1,0.1-0.1,0.3-0.1,0.5l0.3,6.7c0,0.2,0.1,0.3,0.1,0.5c0.1,0.2,0.2,0.3,0.3,0.3l0.2,0c0.1,0,0.2,0,0.4-0.1
				c0.1-0.1,0.1-0.3,0.1-0.5l-0.1-2.6c0-0.2,0-0.5,0-0.7c0-0.3,0-0.5-0.1-0.7c0-0.2,0-0.4-0.1-0.7c0,0,0-0.1,0-0.1L9.7,23l1.4,4
				c0.1,0.2,0.2,0.4,0.3,0.5c0.1,0.1,0.2,0.2,0.4,0.3l0.2,0.1c0,0,0.1,0,0.1,0c0.1,0,0.2,0,0.3-0.2c0.1-0.1,0.1-0.3,0.1-0.5
				l-0.1-6.7C12.4,20.3,12.4,20.2,12.3,20z"/>
		</g>
		<g>
			<path class="st1" d="M15.2,20.1c-0.6-0.1-1.2,0.1-1.6,0.7c-0.4,0.6-0.6,1.5-0.6,2.7c0,1.2,0.2,2.2,0.6,3c0.4,0.8,0.9,1.3,1.5,1.5
				c0.1,0,0.2,0,0.3,0c0.5,0,0.9-0.3,1.2-0.8c0.4-0.6,0.6-1.6,0.6-2.8c0-1.2-0.1-2.2-0.5-3C16.4,20.7,15.9,20.3,15.2,20.1z
				 M16.2,24.3c0,0.8-0.1,1.4-0.3,1.8l0,0c-0.2,0.4-0.4,0.6-0.7,0.5c-0.3-0.1-0.5-0.4-0.7-0.9c-0.2-0.5-0.3-1.2-0.3-2
				c0-0.8,0.1-1.4,0.3-1.8c0.2-0.3,0.3-0.5,0.6-0.5c0,0,0.1,0,0.1,0c0.3,0.1,0.6,0.4,0.8,0.8C16.1,22.9,16.2,23.5,16.2,24.3z"/>
		</g>
		<g>
			<path class="st1" d="M23.2,21.6c-0.1-0.2-0.2-0.2-0.3-0.3l-0.2,0c-0.1,0-0.2,0-0.4,0.1c-0.1,0.1-0.1,0.3-0.2,0.4l-0.3,3.5
				c-0.1,0.6-0.1,1.2-0.2,1.8c0-0.1,0-0.3-0.1-0.5l-0.2-1.4l-0.5-3.5c0-0.2-0.1-0.4-0.2-0.5c-0.1-0.1-0.2-0.2-0.3-0.2l-0.1,0
				c-0.1,0-0.3,0-0.4,0.1C20,21.3,20,21.4,20,21.6l-0.4,3.3c-0.1,0.6-0.1,1.2-0.2,1.7c0-0.2,0-0.4-0.1-0.7c-0.1-0.5-0.1-0.9-0.1-1.2
				l-0.3-3.2c0-0.2-0.1-0.3-0.2-0.5c-0.1-0.1-0.2-0.2-0.3-0.3l-0.2,0c-0.1,0-0.2,0-0.3,0.2c-0.1,0.1-0.1,0.2-0.1,0.3
				c0,0,0,0.1,0,0.1l0.9,6.6c0,0.2,0.1,0.3,0.2,0.5c0.1,0.1,0.2,0.2,0.3,0.3l0.4,0.1c0.1,0,0.3,0,0.3-0.1c0.1-0.1,0.1-0.2,0.2-0.4
				l0.4-3.1c0-0.2,0.1-0.6,0.1-1.1c0,0.4,0.1,0.8,0.1,1.2l0.4,3.3c0,0.2,0.1,0.4,0.2,0.5c0.1,0.1,0.2,0.2,0.3,0.3l0.4,0.1
				c0,0,0,0,0.1,0c0.1,0,0.2,0,0.3-0.1c0.1-0.1,0.1-0.2,0.2-0.4l0.8-6.7c0,0,0-0.1,0-0.1C23.3,21.9,23.3,21.7,23.2,21.6z"/>
		</g>
	</g>
	<g>
		<path class="st1" d="M26.1,21.3l-1.1,0c-0.5,0-0.8,0.2-0.8,0.6l0,0.1c0,0.4,0.3,0.6,0.8,0.6l1.1,0c0.5,0,0.8-0.2,0.8-0.6l0,0
			C26.9,21.6,26.6,21.3,26.1,21.3z"/>
	</g>
	<g>
		<path class="st2" d="M22,31.6C22,31.6,22,31.6,22,31.6L8.9,29.9c-0.3,0-0.6,0.2-0.7,0.6c0,0.4,0.2,0.7,0.5,0.7L22.5,33
			c0,0,0.1,0,0.1,0c0.2,0,0.4-0.1,0.5-0.3c0,0,0-0.1,0-0.2c0-0.4-0.2-0.7-0.6-0.8L22,31.6z"/>
	</g>
	<g>
		<path class="st2" d="M24.9,18.6v1c0,0.4,0.3,0.7,0.7,0.7c0.4,0,0.7-0.3,0.7-0.7v-1.7c0-0.4-0.3-0.7-0.6-0.7l-15.3-1.6l2.6-2l7,0.5
			c-0.2,0.6-0.1,1.4,0.3,1.7c0.5,0.4,1,0.6,1.6,0.6c0.3,0,0.7-0.1,1-0.2c0.7-0.2,1.2-0.6,1.3-0.6c0.3-0.2,0.4-0.6,0.2-0.9
			c-0.2-0.3-0.6-0.3-0.9-0.1c0,0-0.8,0.7-1.7,0.4c-0.2-0.1-0.4-0.5-0.2-1l4.8,0.4c0,0,0,0,0,0c0.3,0,0.6-0.3,0.7-0.6
			c0-0.4-0.2-0.7-0.6-0.7L21.9,13c0.3-0.4,0.6-0.6,0.6-0.6c0.1-0.1,0.2-0.2,0.4-0.3l6,0.5c0.2,0,0.3,0,0.4-0.1l2.2-1.7
			c0.2-0.2,0.3-0.5,0.2-0.8c-0.1-0.3-0.3-0.5-0.6-0.5L17.6,8.6c-0.2,0-0.3,0-0.4,0.1l-9.1,6.8c-0.2,0.2-0.3,0.5-0.3,0.8
			c0.1,0.3,0.3,0.5,0.6,0.5L24.9,18.6z M18.3,9.6l11.5,0.8l-1.3,0.9l-11.4-0.9L18.3,9.6z M21.2,12c-0.2,0.2-0.5,0.5-0.7,0.9l-6-0.4
			l1.1-0.8L21.2,12z"/>
	</g>
	<g>
		<path class="st2" d="M33.9,10.6c-0.2-0.1-0.5,0-0.6,0.2l-4.5,4.6c-0.4,0.4-0.4,1-0.4,1.1v13.2c0,0.7-0.2,1.8-0.6,2.1
			c-0.3,0.2-0.3,0.6-0.2,0.9c0.1,0.2,0.3,0.3,0.5,0.3c0.1,0,0.2,0,0.3-0.1c1-0.8,1.1-3,1.1-3.2l0-12.6l3.7-4.1v14.6
			c0,0.4,0.2,0.7,0.5,0.7s0.5-0.3,0.5-0.7V11.2C34.2,10.9,34.1,10.7,33.9,10.6z"/>
	</g>
	<g>
		<path class="st2" d="M32.1,19.7L31.9,20v-1.4l0.6-0.9c0.2-0.3,0.4-0.7,0.4-1.5c0-0.6-0.5-0.3-0.7-0.1l-0.3,0.4v-0.8
			c0-0.7-0.4-0.8-0.7-0.4c-0.2,0.3-0.3,0.8-0.3,1.2v1.4l-1,1.3c-0.2,0.3-0.2,0.5-0.1,0.8c0,0,0,0,0,0c0.1,0.3,0.4,0.5,0.7,0.3
			c0.1-0.1,0.1-0.1,0.2-0.2l0.2-0.3v0.8c0,0.1,0,0.3,0.1,0.4l-1,1.3c-0.2,0.3-0.2,0.5-0.1,0.8c0,0,0,0,0,0c0.1,0.3,0.4,0.5,0.7,0.3
			c0.1-0.1,0.1-0.1,0.2-0.2l2-2.4c0.2-0.3,0.5-0.7,0.3-1.3C32.8,19.2,32.3,19.4,32.1,19.7z"/>
	</g>
	<g>
		<path class="st2" d="M32.4,22.8c-0.2-0.1-0.4,0-0.5,0.1L30.2,25c-0.1,0.1-0.1,0.2-0.1,0.4V29c0,0.2,0.1,0.4,0.3,0.5
			c0,0,0.1,0,0.2,0c0.1,0,0.2-0.1,0.3-0.2l1.7-2c0.1-0.1,0.1-0.2,0.1-0.3v-3.7C32.7,23.1,32.5,22.9,32.4,22.8z M31.9,26.5L31,27.6
			v-2l0.9-1.1V26.5z"/>
	</g>
	<g>
		<circle class="st1" cx="25.4" cy="24.4" r="0.7"/>
	</g>
	<g>
		<circle class="st1" cx="25.4" cy="26.9" r="0.7"/>
	</g>
	<g>
		<path class="st1" d="M25.4,33.4C25.4,33.4,25.4,33.4,25.4,33.4c-0.8,0-1.5-0.7-1.5-1.5l0-1.9c0-0.4,0.2-0.8,0.4-1
			c0.3-0.3,0.6-0.4,1-0.4c0.8,0,1.5,0.7,1.5,1.5l0,1.9C26.8,32.8,26.2,33.4,25.4,33.4z M25.4,29.5c-0.1,0-0.3,0.1-0.4,0.2
			c-0.1,0.1-0.2,0.2-0.2,0.4l0,1.9c0,0.1,0.1,0.3,0.2,0.4c0.1,0.1,0.2,0.2,0.4,0.2c0,0,0,0,0,0c0.1,0,0.3-0.1,0.4-0.2
			c0.1-0.1,0.2-0.2,0.2-0.4l0-1.9c0-0.1-0.1-0.3-0.2-0.4C25.7,29.6,25.5,29.5,25.4,29.5C25.4,29.5,25.4,29.5,25.4,29.5z"/>
	</g>
</g>
</svg>
