<?xml version="1.0" encoding="utf-8"?>
<!-- Generator: Adobe Illustrator 24.2.1, SVG Export Plug-In . SVG Version: 6.00 Build 0)  -->
<svg version="1.1" id="圖層_1" xmlns="http://www.w3.org/2000/svg" xmlns:xlink="http://www.w3.org/1999/xlink" x="0px" y="0px"
	 viewBox="0 0 42 42" style="enable-background:new 0 0 42 42;" xml:space="preserve">
<style type="text/css">
	.st0{clip-path:url(#SVGID_2_);}
	.st1{fill:#BE9C6E;}
	.st2{clip-path:url(#SVGID_4_);fill:#B03025;}
</style>
<g>
	<defs>
		<circle id="SVGID_1_" cx="21" cy="21" r="21"/>
	</defs>
	<clipPath id="SVGID_2_">
		<use xlink:href="#SVGID_1_"  style="overflow:visible;"/>
	</clipPath>
	<g class="st0">
		<ellipse class="st1" cx="19.8" cy="20.5" rx="19.8" ry="19.5"/>
		<g>
			<defs>
				<rect id="SVGID_3_" x="-1.5" y="-1.6" width="44.1" height="44.1"/>
			</defs>
			<clipPath id="SVGID_4_">
				<use xlink:href="#SVGID_3_"  style="overflow:visible;"/>
			</clipPath>
			<path class="st2" d="M42.6,42.5H-1.5V-1.6h44.1V42.5z M12.4,35.2C12.4,35.2,12.5,35.2,12.4,35.2c0.7,0.4,1.4,0.8,2,1.1
				s1.2,0.5,1.8,0.7c0.5,0.2,1.1,0.3,1.7,0.4c0.8,0.1,1.6,0.5,2.4,0.3l0,0c0.3,0,0.6,0.1,0.8,0c0.8,0,1.6,0,2.3-0.2
				c0.8-0.1,1.6-0.3,2.4-0.6c0.6-0.2,1.2-0.5,1.8-0.7c0.3-0.1,0.6-0.3,0.9-0.5c0.4-0.3,0.8-0.6,1-1c0.1-0.2,0.4-0.4,0.6-0.6
				c0.3-0.3,0.5-0.7,0.7-1s0.4-0.5,0.6-0.8c0.1-0.1,0.2-0.3,0.3-0.4c0.3-0.5,0.6-0.9,0.7-1.4c0.1-0.3,0.2-0.6,0.3-0.9
				c0.1-0.2,0.1-0.4,0.2-0.7c0-0.1,0-0.2,0.1-0.3c0.1-0.5,0.2-0.9,0.3-1.4c0.1-0.3,0.1-0.6,0.1-1c0-0.1,0-0.2,0-0.2
				c0-0.3,0-0.5,0-0.8c0-0.4,0.1-0.8-0.1-1.2c-0.1-0.1-0.1-0.3-0.1-0.4c0-0.2-0.1-0.4-0.1-0.6s-0.2-0.3-0.2-0.4
				c-0.1-0.4-0.3-0.7-0.6-1c-0.1-0.1-0.1-0.1-0.2-0.2c-0.1-0.2-0.2-0.5-0.3-0.7c-0.1-0.2-0.3-0.3-0.4-0.4s-0.2-0.1-0.2-0.2
				c-0.1-0.3-0.3-0.5-0.6-0.7c-0.2-0.1-0.3-0.1-0.4,0.1c-0.3,0.6-0.6,1.2-1,1.8c-0.1,0.2-0.3,0.4-0.4,0.7c-0.3,0.5-0.5,1-0.8,1.5
				s-0.6,1-0.9,1.5c-0.1,0.2-0.2,0.5-0.3,0.7c0,0.1-0.1,0.1-0.1,0.1c-0.4,0.1-0.4,0.4-0.6,0.6c-0.2,0.3-0.4,0.6-0.5,1l0,0
				c-0.2,0.3-0.5,0.6-0.7,0.9c-0.3,0.6-0.7,1-1.2,1.5c-0.1,0.1-0.3,0.3-0.3,0.5c0,0.7-0.4,1.2-0.8,1.7c-0.2,0.3-0.4,0.5-0.6,0.8
				c-0.1,0.1-0.2,0.2-0.3,0.3c-0.2,0.2-0.4,0.4-0.7,0.6c-0.3,0.2-0.6,0.4-1,0.5c-0.3,0.2-0.7,0.3-1,0.4c-0.2,0.1-0.3,0.2-0.5,0.2
				c-0.3,0.1-0.7,0.1-1,0.2c-0.3,0.1-0.5,0.2-0.8,0.2c-0.5,0.1-1,0.1-1.4,0.1c-0.5,0-1,0-1.5-0.1C13.3,35.1,12.9,35.2,12.4,35.2
				 M16.7,11.3L16.7,11.3c0-0.1,0-0.1,0-0.2c0-0.3,0-0.3-0.3-0.3c-0.2,0-0.4,0-0.6,0c-0.6,0-1.2,0-1.8,0h-0.1c-0.2,0-0.4,0-0.6,0
				c-0.2,0-0.2,0.1-0.2,0.2c0,0.8,0.1,1.7,0.1,2.5c0.1,1,0,2,0.1,3c0.1,0.8,0,1.5,0,2.3c0,0.9,0,1.8,0,2.7c0,0.6-0.1,1.3-0.1,1.9
				c-0.1,0.9-0.4,1.7-0.8,2.5c0,0.1-0.1,0.2-0.1,0.2c0,0.2-0.1,0.3-0.2,0.4c-0.1,0.1-0.1,0.1-0.2,0.2c-0.3,0.6-0.7,1.1-1.3,1.5
				l-0.1,0.1c-0.2,0.2-0.5,0.5-0.8,0.6c-0.4,0.2-0.8,0.4-1.3,0.6c-0.1,0-0.1,0.1-0.1,0.2c0.1,0.3,0.1,0.6,0.3,0.8
				c0.3,0.5,0.6,1,1,1.4c0.6,0.7,1.4,1.2,2.3,1.5c0.2,0.1,0.4,0.2,0.7,0.3s0.6,0.1,0.8,0.2c0.5,0.2,1.1,0.3,1.7,0.3
				c0.6,0,1.1-0.1,1.7-0.2c0.2,0,0.4-0.1,0.6-0.2c0.3-0.1,0.6-0.1,0.9-0.2c0.2-0.1,0.3-0.2,0.5-0.3s0.3-0.1,0.5-0.2
				c0.2-0.1,0.5-0.1,0.7-0.3c0.3-0.2,0.6-0.5,0.9-0.8c0.6-0.8,1.2-1.6,1.2-2.6v-0.1c0.1-0.1,0-0.2-0.1-0.3c-0.3-0.2-0.7-0.4-1-0.6
				c-0.4-0.2-0.7-0.4-1.1-0.6c-0.1,0-0.1-0.1-0.1-0.1c-0.1-0.3-0.3-0.4-0.6-0.6c-0.1-0.1-0.2-0.2-0.3-0.3c-0.1-0.1-0.2-0.2-0.3-0.3
				l-0.1-0.1c-0.3-0.4-0.5-0.8-0.8-1.2c0-0.1-0.1-0.2-0.1-0.2c-0.2-0.5-0.3-1-0.5-1.5c-0.3-0.8-0.3-1.5-0.3-2.3c0-0.7,0-1.4,0-2
				c0-0.5,0-0.9,0-1.4c0-0.6,0-1.2,0-1.8c0-0.5,0-0.9,0-1.4c0-0.1,0-0.1,0-0.2c0-0.2,0.1-0.3,0.1-0.5c0-0.5-0.1-0.9-0.1-1.4
				C16.7,12.2,16.7,11.8,16.7,11.3 M32.5,9.5C32,9,31.5,8.6,31,8.3C30.9,8.2,30.8,8,30.6,8c-0.2-0.1-0.4-0.2-0.6-0.3
				c-0.5-0.4-1.1-0.8-1.7-1c-0.8-0.4-1.6-0.8-2.5-1c-0.6-0.2-1.3-0.4-1.9-0.5c-0.2,0-0.4,0-0.6,0c-0.3,0-0.6-0.1-0.9-0.1
				c-0.6,0-1.2-0.1-1.8-0.1c-0.5,0-0.9,0-1.4,0.1c-0.6,0.1-1.3,0.2-1.9,0.3c-0.5,0.1-1,0.3-1.5,0.4c-0.3,0.1-0.7,0.2-1,0.5l-0.1,0.1
				c-0.5,0-0.9,0.3-1.3,0.6c0-0.1-0.2-0.1-0.4,0c-0.1,0-0.1,0.1-0.2,0.1c-0.2,0.1-0.3,0.3-0.5,0.4c-0.3,0.2-0.7,0.4-1,0.6
				C10.7,8.6,10.1,9,9.6,9.6L9.5,9.7c0,0,0,0,0,0.1c0.2-0.2,0.4-0.2,0.7-0.1h0.1c0.6,0,1.1,0,1.7,0c0.6,0,1.2-0.1,1.8-0.1
				c0.3,0,0.6,0,0.8,0c0.6,0,1.2,0,1.8,0c0,0,0,0,0.1,0c0.6,0.1,1.2,0.1,1.8,0c0.1,0,0.2,0,0.3,0c0.3,0,0.6,0.1,0.9,0.1s0.6,0,0.9,0
				c0.2,0,0.5,0.2,0.7,0.2c0.7,0.1,1.3,0.3,1.9,0.6c0.3,0.2,0.5,0.4,0.5,0.7c0,0.1,0,0.3,0,0.4c0,0.4,0.1,0.8,0.1,1.2
				c0,0.1,0,0.1,0,0.2c0,0.2,0,0.3,0,0.5c0,0.1,0,0.2,0,0.3c0,0.2,0.1,0.3,0.2,0.3c0.4,0.1,0.8,0.2,1.2,0.2c1.2,0,2.4,0.1,3.5,0.1
				c0.1,0,0.2,0,0.2-0.2c0.1-0.3,0.1-0.5,0.2-0.8c0.2-0.6,0.7-1.1,1.1-1.6c0.3-0.5,0.7-0.9,1.1-1.3C31.6,10.3,32.1,9.9,32.5,9.5
				 M12,11.6L12,11.6c0-0.1,0-0.2,0-0.3c0-0.4,0-0.4-0.4-0.4S10.8,11,10.4,11c-0.5,0-1,0.1-1.6,0.2c-0.1,0-0.3,0.2-0.4,0.2
				c-0.5,0.1-0.7,0.5-0.7,1c0,0.7,0,1.4,0,2.1s0,1.4,0,2.2c0,0.3,0,0.7,0,1c0,0.7-0.1,1.4-0.1,2c0,1.4,0.1,2.7,0.1,4.1
				c0,0.7,0.1,1.4,0,2.1l0,0c0,0.4,0.2,0.8,0.1,1.2v0.1c0,0.3,0.1,0.6,0.1,1c0,0.1,0.1,0.2,0.2,0.1c0.1,0,0.2-0.1,0.4-0.1
				c0.6-0.2,1-0.5,1.5-0.9c0.3-0.2,0.6-0.6,0.8-0.9s0.3-0.6,0.5-0.9s0.3-0.7,0.4-1.1v-0.1C12,23.8,12,23.4,12,23
				c0-0.2,0-0.4,0.1-0.6c0-0.2,0-0.3,0-0.5c0-0.1,0-0.1,0-0.2c0-0.3,0.1-0.5,0.1-0.8c0-1,0-2,0-3.1c0-0.4-0.2-0.9,0-1.3
				c0.1-0.3,0-0.6,0-0.9c0-0.2,0-0.3,0-0.5c0-0.6,0-1.3,0-1.9C12.1,12.6,12,12.1,12,11.6 M17.7,11c0,0,0,0.1,0,0.2
				c0,0.3,0.1,0.7,0.1,1c0,0.5,0,0.9,0,1.4c0,0.7,0,1.4,0,2.2c0,0.9,0,1.8,0,2.7c0,0.6,0.1,1.2,0,1.8c0,0.1,0,0.1,0,0.2
				c0,0.2,0.1,0.5,0.1,0.7c0,0.6,0.1,1.1,0.1,1.7c0,0.2,0,0.4,0.1,0.5c0.2,0.6,0.5,1.1,0.8,1.7c0.1,0.2,0.3,0.3,0.4,0.5
				c0.4,0.6,0.9,1.1,1.5,1.4c0.3,0.2,0.6,0.4,0.9,0.6c0.2,0.1,0.4,0.2,0.7,0.4c0-0.1,0.1-0.2,0.1-0.3c0-0.9,0.1-1.9,0.1-2.8
				c0-0.2,0-0.5,0-0.7s0.1-0.5,0-0.7c-0.1-0.3,0-0.7,0-1c0-0.4,0-0.7,0-1.1c0-0.2-0.1-0.4-0.1-0.6c0-0.5,0-1,0-1.5s0-0.9,0-1.4
				s0-1,0-1.4s0-0.9-0.1-1.3l0,0c0-0.2,0.1-0.4,0-0.6c0-0.4-0.1-0.9-0.1-1.3c0-0.4-0.2-0.9,0-1.3v-0.1c-0.1-0.1-0.2-0.3-0.3-0.4
				c-0.5-0.3-1-0.5-1.5-0.5c-0.2,0-0.4,0-0.6,0c-0.5,0-0.9,0-1.4,0C18.1,10.9,17.9,11,17.7,11 M23.5,27.7c0.4-0.5,0.7-0.9,1-1.4
				c0.1-0.2,0.2-0.4,0.3-0.5c0.3-0.4,0.5-0.8,0.7-1.2c0.1-0.1,0.1-0.3,0.2-0.4c0.5-0.5,0.8-1.2,1.2-1.8c0.2-0.3,0.3-0.6,0.5-0.9
				c0.1-0.2,0.3-0.4,0.4-0.7c0.2-0.3,0.3-0.7,0.5-1l0.1-0.1c0.2-0.3,0.4-0.6,0.5-0.9c0.1-0.2,0.1-0.4,0.2-0.5s0.1-0.3,0.2-0.5
				s0.1-0.4,0.2-0.5c0.2-0.2,0.1-0.3,0-0.5c-0.1-0.4-0.3-0.7-0.4-1.1c0-0.1-0.1-0.2-0.3-0.2c-0.4,0-0.8,0-1.2-0.1
				c-0.4,0-0.7,0-1.1-0.1c-0.1,0-0.1,0-0.2,0s-0.3,0-0.4,0c-0.2,0-0.5,0-0.7,0c-0.6,0-1.1-0.1-1.7-0.1v0.2c0,1.8,0,3.5,0,5.3
				c0,1.6,0,3.1-0.1,4.7c0,0.5,0,1,0,1.6C23.5,27.3,23.5,27.5,23.5,27.7 M37.3,21.3L37.3,21.3c0.1-0.1,0.2-0.2,0.2-0.3
				c0-0.1,0-0.3,0-0.4c0-0.3,0-0.5,0-0.8c0-0.4-0.1-0.8-0.1-1.1c0-0.1-0.1-0.1-0.1-0.2c-0.3-0.2-0.7-0.3-0.9-0.5
				c-0.2-0.3-0.6-0.4-0.9-0.6c-0.4-0.3-0.9-0.4-1.3-0.6c-0.2-0.1-0.4-0.2-0.6-0.3c-0.6-0.1-1.2-0.2-1.8-0.4C31.5,16,31.3,16,31,15.9
				c0,0,0,0,0,0.1c0.1,0.3,0.3,0.6,0.4,0.9c0.3,0.6,0.4,1.2,0.9,1.6c0,0,0,0,0,0.1c0,0.3,0.2,0.5,0.4,0.7c0.1,0.1,0.2,0.1,0.2,0.2
				c0.1,0.2,0.3,0.4,0.4,0.7c0.2,0.4,0.5,0.8,0.7,1.3c0.1,0.3,0.2,0.6,0.3,0.8c0.4,0.7,0.4,1.4,0.6,2.1c0.1,0.6,0.1,1.3,0.1,2
				c0,0.5-0.1,0.9-0.2,1.4c-0.1,0.5-0.1,1-0.3,1.5c0,0,0,0,0,0.1c0,0.4-0.1,0.9-0.1,1.3c0,0,0,0,0,0.1c0.2-0.3,0.5-0.6,0.7-1
				c0-0.1,0.1-0.2,0.1-0.2c0-0.1,0-0.2,0.2-0.3c0.1,0,0.1-0.1,0.1-0.2c0.1-0.2,0.2-0.3,0.2-0.5c0,0,0-0.1,0.1-0.1
				c0.1-0.3,0.2-0.5,0.3-0.8c0.2-0.4,0.4-0.8,0.5-1.2c0,0,0,0,0-0.1c0.1-0.4,0.3-0.8,0.4-1.2c0.1-0.2,0.1-0.4,0.1-0.6s0-0.5,0.1-0.7
				c0-0.1,0-0.1,0-0.2s0-0.2,0-0.2c0.2-0.2,0.2-0.6,0.1-0.8c-0.1-0.4,0.1-0.7,0-1.1C37.2,21.6,37.3,21.5,37.3,21.3 M6.7,29.3
				C6.8,29.3,6.8,29.2,6.7,29.3c0.1-0.1,0.1-0.1,0.1-0.2c-0.1-0.6-0.1-1.1-0.2-1.7c0-0.3-0.1-0.7-0.1-1c0-0.4-0.1-0.7-0.1-1.1
				c0.1-0.3,0-0.6,0-0.8c0-0.3-0.1-0.5-0.1-0.8c0-0.1,0-0.1,0-0.2s-0.1-0.3-0.1-0.4c0-0.4,0.1-0.7,0.2-1.1c0-0.6,0-1.1,0-1.7
				s0-1.2,0-1.9c0-0.4,0-0.9,0-1.3c0-0.5,0-1.1-0.1-1.6c0-0.4,0-0.9,0-1.3c0-0.1,0-0.2,0-0.3c-0.4,0.5-0.7,1-0.8,1.7v0.1
				c-0.3,0.2-0.3,0.5-0.3,0.7c0,0.1,0,0.3,0,0.4C5.1,17,5,17.3,5,17.5c-0.1,0.5-0.2,1-0.3,1.5c-0.1,0.5-0.1,0.9-0.2,1.4
				c0,0.2,0,0.5,0,0.7c0,0.5,0,1,0,1.5c0.1,0.8,0.2,1.6,0.4,2.5c0.1,0.6,0.3,1.1,0.5,1.7c0.1,0.3,0.1,0.7,0.4,0.9v0.1
				c0,0.1,0.1,0.3,0.1,0.4c0.1,0.2,0.3,0.4,0.4,0.7C6.6,28.9,6.7,29.1,6.7,29.3 M36.6,16c-0.1-0.2-0.1-0.5-0.2-0.7
				c-0.2-0.6-0.5-1.1-0.7-1.7c-0.3-0.5-0.6-0.9-0.9-1.4c-0.1-0.1-0.2-0.3-0.3-0.4c-0.3-0.4-0.6-0.8-0.8-1.2
				c-0.3,0.2-0.5,0.5-0.8,0.7c-0.2,0.1-0.3,0.2-0.5,0.3c-0.4,0.4-0.8,0.8-1.2,1.1c-0.1,0.1-0.2,0.2-0.3,0.3c-0.2,0.3-0.3,0.7-0.5,1
				c-0.1,0.3,0,0.5,0.3,0.5c0.5,0.1,0.9,0.2,1.4,0.3c0.5,0.1,1,0.2,1.5,0.3c0.4,0.1,0.7,0.2,1.1,0.3c0.3,0.1,0.5,0.1,0.7,0.3
				c0.3,0.2,0.5,0.2,0.7,0.1C36.3,16.1,36.4,16.1,36.6,16"/>
		</g>
		<g>
			<defs>
				<rect id="SVGID_5_" x="-1.5" y="-1.6" width="44.1" height="44.1"/>
			</defs>
			<clipPath id="SVGID_6_">
				<use xlink:href="#SVGID_5_"  style="overflow:visible;"/>
			</clipPath>
		</g>
		<g>
			<defs>
				<rect id="SVGID_7_" x="-1.5" y="-1.6" width="44.1" height="44.1"/>
			</defs>
			<clipPath id="SVGID_8_">
				<use xlink:href="#SVGID_7_"  style="overflow:visible;"/>
			</clipPath>
		</g>
		<g>
			<defs>
				<rect id="SVGID_9_" x="-1.5" y="-1.6" width="44.1" height="44.1"/>
			</defs>
			<clipPath id="SVGID_10_">
				<use xlink:href="#SVGID_9_"  style="overflow:visible;"/>
			</clipPath>
		</g>
		<g>
			<defs>
				<rect id="SVGID_11_" x="-1.5" y="-1.6" width="44.1" height="44.1"/>
			</defs>
			<clipPath id="SVGID_12_">
				<use xlink:href="#SVGID_11_"  style="overflow:visible;"/>
			</clipPath>
		</g>
		<g>
			<defs>
				<rect id="SVGID_13_" x="-1.5" y="-1.6" width="44.1" height="44.1"/>
			</defs>
			<clipPath id="SVGID_14_">
				<use xlink:href="#SVGID_13_"  style="overflow:visible;"/>
			</clipPath>
		</g>
		<g>
			<defs>
				<rect id="SVGID_15_" x="-1.5" y="-1.6" width="44.1" height="44.1"/>
			</defs>
			<clipPath id="SVGID_16_">
				<use xlink:href="#SVGID_15_"  style="overflow:visible;"/>
			</clipPath>
		</g>
		<g>
			<defs>
				<rect id="SVGID_17_" x="-1.5" y="-1.6" width="44.1" height="44.1"/>
			</defs>
			<clipPath id="SVGID_18_">
				<use xlink:href="#SVGID_17_"  style="overflow:visible;"/>
			</clipPath>
		</g>
		<g>
			<defs>
				<rect id="SVGID_19_" x="-1.5" y="-1.6" width="44.1" height="44.1"/>
			</defs>
			<clipPath id="SVGID_20_">
				<use xlink:href="#SVGID_19_"  style="overflow:visible;"/>
			</clipPath>
		</g>
		<g>
			<defs>
				<rect id="SVGID_21_" x="-1.5" y="-1.6" width="44.1" height="44.1"/>
			</defs>
			<clipPath id="SVGID_22_">
				<use xlink:href="#SVGID_21_"  style="overflow:visible;"/>
			</clipPath>
		</g>
	</g>
</g>
</svg>
