<svg id="グループ_16" data-name="グループ 16" xmlns="http://www.w3.org/2000/svg" width="194.107" height="194.107" viewBox="0 0 194.107 194.107">
  <g id="グループ_1" data-name="グループ 1">
    <circle id="楕円形_1" data-name="楕円形 1" cx="97.053" cy="97.053" r="97.053" fill="#fff"/>
  </g>
  <g id="グループ_15" data-name="グループ 15" transform="translate(35.994 39.708)">
    <g id="グループ_5" data-name="グループ 5" transform="translate(1.653 47.88)">
      <g id="グループ_2" data-name="グループ 2">
        <path id="パス_1" data-name="パス 1" d="M44.823,42.528A2.611,2.611,0,0,0,43.217,41.2l-.857-.2a1.613,1.613,0,0,0-1.707.668,3.241,3.241,0,0,0-.6,2.109l.282,11.8c.052,2.174.294,5.676.721,10.414l-1.88-6.058L32.4,41.413a6.618,6.618,0,0,0-1.336-2.234A3.728,3.728,0,0,0,29.2,38.023l-1.224-.278a1.586,1.586,0,0,0-1.695.664,3.173,3.173,0,0,0-.568,2.105L27,71.434a4.82,4.82,0,0,0,.688,2.307,2.64,2.64,0,0,0,1.562,1.332l.825.205a1.484,1.484,0,0,0,1.646-.652,3.23,3.23,0,0,0,.547-2.089l-.435-11.855c-.036-.962-.1-2.081-.2-3.325S31.45,55.1,31.378,54.3s-.177-1.956-.318-3.458l-.052-.56,2,6.082L39.634,75a6.763,6.763,0,0,0,1.272,2.246A3.556,3.556,0,0,0,42.7,78.439l1.135.286a1.679,1.679,0,0,0,.394.048,1.554,1.554,0,0,0,1.264-.7,3.293,3.293,0,0,0,.58-2.1L45.483,44.85A4.6,4.6,0,0,0,44.823,42.528Z" transform="translate(-25.71 -37.7)" fill="#fbc82b"/>
      </g>
      <g id="グループ_3" data-name="グループ 3" transform="translate(22.868 5.153)">
        <path id="パス_2" data-name="パス 2" d="M41.194,39.174c-2.995-.684-5.426.439-7.23,3.337-1.739,2.81-2.6,7.061-2.572,12.644a33.9,33.9,0,0,0,2.621,13.96c1.715,3.768,4,6.038,6.791,6.751a6.54,6.54,0,0,0,1.61.213c2.133,0,3.941-1.212,5.378-3.611,1.755-2.9,2.693-7.222,2.794-12.837s-.692-10.3-2.367-13.916C46.507,42.048,44.14,39.846,41.194,39.174ZM45.71,58.605A21.177,21.177,0,0,1,44.281,67h0c-.849,1.828-1.92,2.552-3.265,2.214-1.393-.346-2.532-1.691-3.385-3.993A26.371,26.371,0,0,1,36.3,56.174c0-3.623.451-6.4,1.34-8.248.712-1.481,1.606-2.214,2.709-2.214a2.888,2.888,0,0,1,.652.081c1.449.338,2.617,1.634,3.466,3.856A24.73,24.73,0,0,1,45.71,58.605Z" transform="translate(-31.391 -38.98)" fill="#fbc82b"/>
      </g>
      <g id="グループ_4" data-name="グループ 4" transform="translate(43.922 8.572)">
        <path id="パス_3" data-name="パス 3" d="M62.473,43.548A1.9,1.9,0,0,0,61.116,42.3l-.757-.145a1.67,1.67,0,0,0-1.634.636,3.609,3.609,0,0,0-.785,2l-1.51,16.09c-.246,2.576-.507,5.35-.773,8.272-.076-.66-.161-1.421-.258-2.258l-.753-6.529L52.5,44.393a5.142,5.142,0,0,0-.833-2.25A2.5,2.5,0,0,0,50.115,41l-.322-.06a1.785,1.785,0,0,0-1.675.592,3.571,3.571,0,0,0-.853,1.993L45.24,58.619c-.338,2.737-.656,5.446-.954,8.087-.089-.906-.189-1.94-.3-3.1-.246-2.512-.435-4.36-.56-5.487L41.814,43.415a5.28,5.28,0,0,0-.777-2.194,2.417,2.417,0,0,0-1.554-1.163L38.4,39.853a1.288,1.288,0,0,0-1.445.809,3.068,3.068,0,0,0-.338,1.493,4.24,4.24,0,0,0,.04.507L40.7,72.986a5.365,5.365,0,0,0,.765,2.206,2.443,2.443,0,0,0,1.51,1.188l1.872.4a1.626,1.626,0,0,0,1.614-.576,3.677,3.677,0,0,0,.8-1.976L49.14,59.952c.149-1.151.35-2.858.616-5.181.193,1.691.419,3.558.684,5.587L52.49,75.474a5.083,5.083,0,0,0,.769,2.254A2.482,2.482,0,0,0,54.776,78.9l1.956.419a1.749,1.749,0,0,0,.342.036,1.626,1.626,0,0,0,1.272-.648,3.76,3.76,0,0,0,.781-1.972l3.663-31.068a4.3,4.3,0,0,0,.04-.507A3.678,3.678,0,0,0,62.473,43.548Z" transform="translate(-36.621 -39.829)" fill="#fbc82b"/>
      </g>
    </g>
    <g id="グループ_6" data-name="グループ 6" transform="translate(75.75 58.503)">
      <path id="パス_4" data-name="パス 4" d="M53.134,40.561,48,40.344c-2.125-.093-3.868,1.067-3.877,2.56l0,.547c-.012,1.936,1.558,2.874,3.51,2.959l5.136.221c2.085.093,3.868-1.135,3.877-2.894l0-.217C56.652,41.729,55.131,40.65,53.134,40.561Z" transform="translate(-44.117 -40.339)" fill="#fbc82b"/>
    </g>
    <g id="グループ_7" data-name="グループ 7" transform="translate(2.007 98.247)">
      <path id="パス_5" data-name="パス 5" d="M89.372,58.087l-.024.024-60.317-7.87a2.873,2.873,0,0,0-3.2,2.56,2.976,2.976,0,0,0,2.415,3.393l63.574,8.353a2.658,2.658,0,0,0,.4.032,2.821,2.821,0,0,0,2.46-1.506,3.845,3.845,0,0,0,.2-1.055A3.294,3.294,0,0,0,92,58.409Z" transform="translate(-25.798 -50.212)" fill="#040000"/>
    </g>
    <g id="グループ_8" data-name="グループ 8">
      <path id="パス_6" data-name="パス 6" d="M104.346,71.9v4.79a3.062,3.062,0,1,0,6.115,0V68.969a3.174,3.174,0,0,0-2.753-3.22L36.783,58.293l12.024-9.045,32.276,2.407c-.833,2.765-.692,6.384,1.232,7.995a11.136,11.136,0,0,0,7.322,2.842,15.719,15.719,0,0,0,4.649-.761,23.345,23.345,0,0,0,5.849-2.81,2.944,2.944,0,0,0,.733-4.094c-.93-1.336-2.765-1.2-4.1-.274-.068.044-3.675,3.164-7.733,2.053-1.131-.31-1.9-2.315-1.01-4.5l22.41,1.731a2.194,2.194,0,0,0,.229.012,3.06,3.06,0,0,0,.225-6.111L90.555,46.229A15.246,15.246,0,0,1,93.3,43.5a20.153,20.153,0,0,1,1.86-1.188l27.643,2.1a2.958,2.958,0,0,0,2.009-.6L135.024,36a3.35,3.35,0,0,0,1.151-3.522,3.1,3.1,0,0,0-2.741-2.335L70.581,25.812a2.933,2.933,0,0,0-1.968.592L26.586,58.02A3.336,3.336,0,0,0,25.4,61.49a3.114,3.114,0,0,0,2.653,2.391ZM73.672,30.6l53.281,3.671-5.917,4.251L68.173,34.511ZM87.145,41.7a21.374,21.374,0,0,0-3.333,4.021l-27.59-2.057,5.2-3.917Z" transform="translate(-25.299 -25.805)" fill="#040000"/>
    </g>
    <g id="グループ_9" data-name="グループ 9" transform="translate(91.359 8.884)">
      <path id="パス_7" data-name="パス 7" d="M77.116,28.2a2.228,2.228,0,0,0-2.761.882L53.523,50.123a8.489,8.489,0,0,0-1.783,5.249v60.969c0,3.2-.805,8.546-2.548,9.826a3.378,3.378,0,0,0-.833,4.13,2.44,2.44,0,0,0,2.133,1.445,2.185,2.185,0,0,0,1.292-.439c4.814-3.534,4.943-13.807,4.943-14.967l-.149-58.4L73.767,38.82v67.446a2.538,2.538,0,1,0,4.988,0V31.018A3.024,3.024,0,0,0,77.116,28.2Z" transform="translate(-47.995 -28.012)" fill="#040000"/>
    </g>
    <g id="グループ_10" data-name="グループ 10" transform="translate(101.281 30.551)">
      <path id="パス_8" data-name="パス 8" d="M61.64,54.276l-1,1.232V49.067l2.894-3.985a10.788,10.788,0,0,0,1.727-6.839c-.1-2.729-2.343-1.586-3.232-.258l-1.389,1.9V36.407c-.177-3.341-2.021-3.808-3.434-1.868A11.324,11.324,0,0,0,55.655,40.3v6.429L51.2,52.83a4.5,4.5,0,0,0-.547,3.921c.012.06.024.121.04.181a1.982,1.982,0,0,0,3.088,1.292,3.3,3.3,0,0,0,.833-.853l1.039-1.433v3.635A4.147,4.147,0,0,0,56,61.248l-4.758,5.877c-.926,1.312-.9,2.3-.584,3.925.012.06.028.117.044.177a2.1,2.1,0,0,0,3.236,1.284,3.386,3.386,0,0,0,.874-.853L64.1,60.531c.926-1.308,2.254-3.281,1.534-6.006C64.949,51.909,62.578,52.947,61.64,54.276Z" transform="translate(-50.459 -33.395)" fill="#040000"/>
    </g>
    <g id="グループ_11" data-name="グループ 11" transform="translate(102.873 65.558)">
      <path id="パス_9" data-name="パス 9" d="M61.619,42.256a1.783,1.783,0,0,0-2.206.62L51.386,52.5a2.705,2.705,0,0,0-.531,1.638v16.8a2.449,2.449,0,0,0,1.308,2.266,1.716,1.716,0,0,0,.7.153,1.873,1.873,0,0,0,1.514-.837L62.408,63.2a2.724,2.724,0,0,0,.491-1.586V44.51A2.456,2.456,0,0,0,61.619,42.256ZM59.461,59.1l-4.182,5.354V55.081l4.182-5.273Z" transform="translate(-50.855 -42.091)" fill="#040000"/>
    </g>
    <g id="グループ_12" data-name="グループ 12" transform="translate(77.98 69.673)">
      <circle id="楕円形_2" data-name="楕円形 2" cx="3.395" cy="3.395" r="3.395" fill="#fbc82b"/>
    </g>
    <g id="グループ_13" data-name="グループ 13" transform="translate(77.98 80.945)">
      <circle id="楕円形_3" data-name="楕円形 3" cx="3.395" cy="3.395" r="3.395" fill="#fbc82b"/>
    </g>
    <g id="グループ_14" data-name="グループ 14" transform="translate(74.502 92.403)">
      <path id="パス_10" data-name="パス 10" d="M50.558,71.049h-.04a6.761,6.761,0,0,1-6.71-6.787l.048-8.792a6.749,6.749,0,1,1,13.5.076L57.3,64.335A6.756,6.756,0,0,1,50.558,71.049Zm.048-18.127a2.584,2.584,0,0,0-2.588,2.572l-.048,8.792a2.591,2.591,0,0,0,2.572,2.6h.016a2.584,2.584,0,0,0,2.584-2.572l.048-8.792a2.577,2.577,0,0,0-2.572-2.6Z" transform="translate(-43.807 -48.76)" fill="#fbc82b"/>
    </g>
  </g>
</svg>
