<?xml version="1.0" encoding="utf-8"?>
<!-- Generator: Adobe Illustrator 24.2.1, SVG Export Plug-In . SVG Version: 6.00 Build 0)  -->
<svg version="1.1" id="圖層_1" xmlns="http://www.w3.org/2000/svg" xmlns:xlink="http://www.w3.org/1999/xlink" x="0px" y="0px"
	 viewBox="0 0 42 42" style="enable-background:new 0 0 42 42;" xml:space="preserve">
<style type="text/css">
	.st0{fill:#FFFFFF;}
	.st1{fill:#343434;}
</style>
<g>
	<circle class="st0" cx="21" cy="21" r="21"/>
	<g>
		<g>
			<path class="st1" d="M19.3,24.2c0-1.3-0.4-2.4-0.6-3.6c-0.4-1.1-1-2.1-2.5-2.6c-0.3,0-0.4-0.3-0.8-0.5c0.5-0.1,0.9-0.1,1.3-0.1
				c0.4-0.1,0.8-0.1,1.1-0.3c0.5-0.1,1.1-0.4,1.5-0.8c0.3-0.4,0.4-1.1,0.4-1.1l0.1-0.1c0,0-0.5-0.3-0.5-0.4h-0.5
				c0,0-0.1,0.3-0.5,0.4c0.1,0.1,0.1,0.1,0.1,0.1c-0.3,0.6-0.9,0.9-1.5,1.1c-0.9,0.3-1.1,0.1-1.3-0.8c0-0.1,0-0.3,0-0.4
				c-0.1-0.4,0.1-0.5,0.5-0.6c0.8-0.1,1.5-0.4,1.8-0.9c0.3-0.9,0.4-1.9,0.5-2.9c0-0.1,0-0.1,0-0.3l0,0l0.1-0.1c0,0-0.6-0.3-0.6-0.4
				h-0.8c0,0-0.3,0.3-0.6,0.4c0.1,0.1,0.1,0.1,0.1,0.1v0.3c-0.3,0.1-0.6,0.1-0.9,0.1c-0.5,0-1.1,0-1.6,0c-0.1,0-0.3,0-0.4-0.1v-0.1
				l0.1-0.1c0,0-0.6-0.3-0.6-0.4h-1c0,0-0.3,0.3-0.6,0.4c0.1,0.1,0.1,0.1,0.1,0.1v0.1c0,0.1,0,0.3-0.1,0.3c0,0.6,0,1.3,0.1,1.9
				c0.1,0.8,0.5,1.4,1.4,1.6c0.4,0.1,0.8,0.3,1.1,0.3c0,0.4-0.1,0.8-0.1,1.1c0,0.4-0.3,0.4-0.6,0.4c-1,0-1.8-0.4-2.3-1.3l0,0
				l0.1-0.1c0,0-0.5-0.3-0.5-0.4h-0.5c0,0-0.1,0.3-0.5,0.4C10,15,10,15,10,15l0.1,0.3c0,0.1,0.1,0.4,0.3,0.5c0.8,1.1,2,1.3,3.3,1.5
				c0.3,0,0.4,0.1,0.6,0.3c-0.1,0.1-0.3,0.4-0.4,0.5c-0.5,0.5-1.3,0.9-1.6,1.4c-1.1,1.5-1.1,3.4-1.6,5c-0.1,0.8-1.8,0.9,0.6,0.5
				c0.3,0,0.5-0.1,0.6-0.3c0.1-0.3,0.1-0.5,0.3-0.8c0.3-1,0.4-2,0.8-3c0.3-0.6,0.5-1.3,1.5-1.8c0,0.4,0.1,0.6,0.1,0.8
				c0,1,0,2.8,0.1,3.9c0.1,0.6,0.3,1.3,0.4,1.3c0.4,0.1,0.8-0.8,0.9-1.5c0-0.8,0-0.6,0-1.4c0-0.9,0-1.8,0-2.6c0-0.1,0.1-0.4,0.3-0.4
				c0.3,0,0.5,0.1,0.5,0.3c0.4,0.6,0.9,1.3,1.1,2c0.3,0.9,0.4,1.9,0.5,2.9c0,0.5,0.3,0.8,0.9,0.8c1,0.1,1.4,0.3,1.4,0.1
				C20.1,24.9,19.3,24.7,19.3,24.2z M14.4,13.5c-0.8-0.1-1.3-0.5-1.3-1c0-0.4,0.1-0.6,0.8-0.6c0.4,0,0.8,0,1.1,0l0,0
				c0.3,0,0.5,0,0.8,0c0.8,0,0.9,0.1,0.8,0.8C16.4,13.3,15.5,13.6,14.4,13.5z"/>
			<path class="st1" d="M8.4,9.4H7.6c0,0-0.3,0.4-0.6,0.6c0.1,0.3,0.1,0.3,0.1,0.3v0.4c-0.3,0.6-0.5,1.1-0.9,1.8
				c-0.5,0.9-1,2.4-1.9,2.9C3.7,15.6,2,16,4.7,15.9c0.5,0,0.5,0,1-0.3c0.4-0.3,0.6-0.6,0.9-0.9c0,0,0.1,0,0.1,0.1c0,0.3,0,0.4,0,0.6
				c0,2.1,0,4.4,0,6.5c0,0.4,0.1,1.1,0.3,1.5c0,0.1,0.1,0.1,0.4-0.3c0-0.1,0.5-0.8,0.5-1c0.3-2,0.1-6.4,0-8.8c0-0.8,0-0.8,0.1-1.1
				c0.1-0.3,0.1-0.4,0.3-0.8c0.1-0.5,0.4-1,0.3-0.9c0-0.1,0-0.5,0-0.5l0.1-0.1C9,10,8.4,9.6,8.4,9.4z"/>
		</g>
		<g>
			<path class="st1" d="M26.9,12c0.9-0.1,1.9-0.3,2.8-0.3l5.3,0.1c0.3,0,1.1-1,1-1c-0.3-0.1-0.6-0.1-0.9-0.3c-0.8,0-1.4,0-2.1-0.1
				c-0.4,0-0.9,0-1.3,0V10l0.1-0.4c0,0-0.6-0.6-0.8-0.9h-0.8c0,0-0.3,0.5-0.8,0.9c0.1,0.4,0.1,0.4,0.1,0.4v0.5c-0.1,0-0.3,0-0.4,0
				c-1.1,0.1-2.1,0.1-3.3,0.3c-1.4,0.1-1.8,0.6-1.8,1.8c0,1.5,0.1,2.9,0.1,4.4c0,2.3-0.5,6.3-0.9,6.6c-0.3,0.4-1.8,0.8-0.1,0.6
				c0.1,0,0.5-0.1,0.8-0.1c0.5-0.1,0.6-0.3,0.8-0.5c0.6-1.5,0.9-3.6,1-5.4C26,16.4,26,14.6,26,13C26,12.4,26.3,12,26.9,12z"/>
			<path class="st1" d="M37.9,24.5c-0.4-0.1-1.1-0.5-1.4-0.8c-0.8-0.5-1.5-1.4-2-1.8c-1.3-1.1-1.3-2.9-0.1-4
				c0.1,0.1,1.5,0.8,1.5,0.8c0.4-0.1,1.3-0.8,1.1-0.9c-0.4-0.4-1.3-0.6-1.6-0.9c-0.4-0.3-0.5-0.5-0.4-0.9c0.3-0.6,0.4-1.3,0.6-2
				c0.1-0.4,0-0.8-0.4-0.8c-0.3,0-0.8,0.3-0.9,0.5c-0.3,0.4-0.3,0.9-0.5,1.4c-0.5,1.4-1,2.6-1.5,4c-0.3,0.8-0.6,1.6-0.1,2.4
				c0.9,1.3,2.5,2.8,4,3.5c0.6,0.3,2.1,0,2.4-0.4C38.9,24.4,38.4,24.7,37.9,24.5z"/>
			<path class="st1" d="M31.8,23.8c-0.8-0.5-1.5-1.4-2-1.8c-1.3-1.1-1.3-2.9-0.1-4c0.1,0.1,1.5,0.8,1.5,0.8c0.4-0.1,1.3-0.8,1.1-0.9
				c-0.4-0.4-1.3-0.6-1.6-0.9c-0.4-0.3-0.5-0.5-0.4-0.9c0.3-0.6,0.4-1.3,0.6-2c0.1-0.4,0-0.8-0.4-0.8c-0.3,0-0.8,0.3-0.9,0.5
				c-0.3,0.4-0.3,0.9-0.5,1.4c-0.5,1.4-1,2.6-1.5,4c-0.3,0.8-0.6,1.6-0.1,2.4c0.9,1.3,2.5,2.8,4,3.5c0.6,0.3,2.1,0,2.4-0.4
				c0.3-0.3-0.3,0-0.9-0.1C32.8,24.3,32.2,24,31.8,23.8z"/>
		</g>
		<path class="st1" d="M14.2,28.3h0.5l3.1,3.5l0,0v-3.5h0.4v4.9h-0.1l-3.4-3.9l0,0v3.8h-0.4v-4.8H14.2z"/>
		<path class="st1" d="M21.8,33.2c-0.3,0-0.5,0-0.8-0.1c-0.3,0-0.4-0.1-0.6-0.3c-0.3-0.1-0.4-0.3-0.5-0.4c-0.1-0.1-0.3-0.4-0.4-0.5
			c-0.1-0.1-0.3-0.4-0.3-0.6s-0.1-0.4-0.1-0.6c0-0.4,0.1-0.6,0.3-1c0.1-0.3,0.4-0.5,0.5-0.8c0.3-0.3,0.5-0.4,0.9-0.5
			c0.4-0.1,0.6-0.3,1-0.3c0.3,0,0.5,0,0.8,0.1c0.3,0,0.4,0.1,0.6,0.3c0.3,0.1,0.4,0.3,0.5,0.4c0.1,0.1,0.3,0.3,0.4,0.5
			c0.1,0.1,0.3,0.4,0.3,0.6c0,0.3,0.1,0.4,0.1,0.6s0,0.5-0.1,0.6c0,0.3-0.1,0.4-0.3,0.6c-0.1,0.1-0.3,0.4-0.4,0.5
			c-0.1,0.1-0.4,0.3-0.5,0.4c-0.3,0.1-0.4,0.3-0.6,0.3C22.3,33.2,22,33.2,21.8,33.2z M21.8,32.9c0.3,0,0.5,0,0.8-0.1
			c0.3-0.1,0.4-0.3,0.5-0.5c0.1-0.3,0.3-0.5,0.4-0.8c0.1-0.3,0.1-0.6,0.1-0.9c0-0.4,0-0.6-0.1-0.9c-0.1-0.3-0.1-0.5-0.4-0.8
			c-0.1-0.3-0.4-0.4-0.5-0.5c-0.3-0.1-0.5-0.1-0.8-0.1c-0.3,0-0.5,0-0.8,0.1s-0.4,0.3-0.5,0.5c-0.1,0.3-0.3,0.4-0.4,0.8
			C20,30.1,20,30.4,20,30.7c0,0.4,0,0.6,0.1,0.9c0.1,0.3,0.1,0.5,0.4,0.8c0.1,0.3,0.4,0.4,0.5,0.5C21.3,32.9,21.5,32.9,21.8,32.9z"
			/>
		<path class="st1" d="M25.5,28.3l1.4,3.6l1.3-3.3l1.3,3.3l1.4-3.6h0.4l-1.8,4.8h-0.3l-1.1-3l-1.1,3h-0.3l-1.9-4.8H25.5z"/>
	</g>
</g>
</svg>
