<svg xmlns="http://www.w3.org/2000/svg" width="70.78" height="59.668" viewBox="0 0 70.78 59.668">
  <g id="グループ_58" data-name="グループ 58" transform="translate(13.185 -3.223) rotate(13)">
    <g id="グループ_57" data-name="グループ 57" transform="translate(0 0)">
      <path id="パス_25" data-name="パス 25" d="M35.988,15.912c2.509-.053,3.564,1.6,4.325,3.512.951,2.392.587,4.237-1.05,5.746C40.6,28.922,41.95,32.7,43.3,36.481c.459,1.286.895,2.58,1.378,3.857.36.95-.239,1.186-.938,1.439s-1.4.448-1.63-.518c-.214-.91-.784-1.095-1.6-1.217a116.774,116.774,0,0,0-23.368-1.586,34.847,34.847,0,0,0-10.849,1.9,1.315,1.315,0,0,1-1.842-.945Q3.184,36,2,32.566C1.443,30.956.949,29.323.4,27.709c-.657-1.92-.64-2.044,1.158-2.86A51.567,51.567,0,0,0,12.3,18.154,130.423,130.423,0,0,0,27.862,3.171,1.088,1.088,0,0,0,28.016,1.8c-.449-.971.065-1.32.9-1.631.884-.33,1.385-.206,1.718.747C32.267,5.583,33.942,10.24,35.6,14.9,35.718,15.221,35.844,15.536,35.988,15.912Z" transform="translate(14.326 0)" fill="#fac92b"/>
      <path id="パス_26" data-name="パス 26" d="M11.666,0C12.457,2.205,13.228,4.352,14,6.5c.241.675.523,1.341.7,2.033,1.135,4.429,3.8,8.06,6.154,11.85,1.425,2.291,2.883,4.563,4.308,6.854,1.03,1.655.577,2.95-1.245,3.623q-.961.356-1.929.689a2.247,2.247,0,0,1-3.123-1.089c-2.712-4.307-5.433-8.608-8.108-12.938-.422-.683-.8-.853-1.541-.533a5.416,5.416,0,0,1-6.369-1.41A8.988,8.988,0,0,1,.359,6.452,4.78,4.78,0,0,1,3.207,3.024C5.5,2.126,7.842,1.343,10.163.514,10.638.344,11.118.187,11.666,0Z" transform="translate(0 26.824)" fill="#fac92b"/>
    </g>
  </g>
</svg>
