<svg id="グループ_40" data-name="グループ 40" xmlns="http://www.w3.org/2000/svg" width="135.102" height="51.116" viewBox="0 0 135.102 51.116">
  <g id="グループ_37" data-name="グループ 37" transform="translate(0 0)">
    <g id="グループ_36" data-name="グループ 36">
      <path id="パス_17" data-name="パス 17" d="M-1719,1027.59c1.7,3.588.954,6.523-1.019,9.578l6.039-.379.02.148c.789,1.493-5.975,1.287-8.975,1.845a30.563,30.563,0,0,0-5.644,1.915c-4.231,1.609-6.319,4.76-6.734,9.23a60.205,60.205,0,0,0,.819,17.255,5.081,5.081,0,0,0,3.569,4.135,29.193,29.193,0,0,0,17.633.528,8.18,8.18,0,0,0,4.926-4.093c5.247-9.245,7.1-19.141,4.719-29.534-1.374-5.985-4.86-9.457-11.674-10.557A26.5,26.5,0,0,0-1719,1027.59Z" transform="translate(1767.865 -1021.84)" fill="#ac2c2c"/>
      <path id="パス_18" data-name="パス 18" d="M-1772.587,1030.253c.676,8.656,1.333,17.074,2.006,25.682a1.442,1.442,0,0,0,1.374,1.328c3.254.137,6.307.312,9.778.443a47.253,47.253,0,0,1-.61-4.844c-.318-6.819.01-7.435.622-12.368.51-4.111,1.465-6.915,4.7-8.779,1.931-1.112,3.975-2.025,6.037-3.061l-7.066-3.574a.28.28,0,0,1-.14-.338l0-.013a.894.894,0,0,1,1.245-.522c1.373.68,2.744,1.364,4.127,2.021a13.434,13.434,0,0,0,1.86.713c3.627,1.1,4.106,1.262,5.508-1.175a6.39,6.39,0,0,0-1.127-7.817,17.483,17.483,0,0,0-12.264-5.212c-4.663-.179-7.338,2.827-9.274,6.609a19.429,19.429,0,0,0-1.731,4.481c-.609,2.691-1.747,4.785-4.363,5.48A.912.912,0,0,0-1772.587,1030.253Z" transform="translate(1790.591 -1012.729)" fill="#ac2c2c"/>
      <path id="パス_19" data-name="パス 19" d="M-1807.994,1063.65c1.375-.061,2.085.489,2.174,1.209.7,5.663,1.373,11.113,2.052,16.562.072.573.243,1.138.27,1.711.071,1.532-.222,1.9,2.239,1.8a.552.552,0,0,0,.526-.605q-1.24-12.761-2.5-25.727a.437.437,0,0,0-.487-.391c-3.843.469-7.63.826-11.37,1.461-2.508.426-3.981,2.5-4.07,5.622q-.192,6.729.032,13.47c.1,3.073.682,6.741,3.627,5.8-.156-6.01-.308-11.884-.464-17.9-.04-1.521.616-2.912,2.678-2.839C-1811.276,1063.894-1810.011,1063.74-1807.994,1063.65Z" transform="translate(1819.25 -1040.661)" fill="#ac2c2c"/>
      <path id="パス_20" data-name="パス 20" d="M-1800.418,1076.438l-5.09.318a1.331,1.331,0,0,0-1.18,1.386c.1,4.481.2,8.835.3,13.189.018.8.043,1.6.063,2.4.069,2.722.069,2.768,2.544,2.647,2.03-.1,4.061-.322,6.25-.5-.6-6.122-1.2-12.173-1.813-18.453A1.037,1.037,0,0,0-1800.418,1076.438Z" transform="translate(1811.534 -1051.858)" fill="#ac2c2c"/>
    </g>
  </g>
  <g id="グループ_39" data-name="グループ 39" transform="translate(69.859 0)">
    <g id="グループ_38" data-name="グループ 38" transform="translate(0)">
      <path id="パス_21" data-name="パス 21" d="M-1621.793,1027.59c-1.7,3.588-.954,6.523,1.019,9.578l-6.039-.379-.019.148c-.789,1.493,5.975,1.287,8.975,1.845a30.579,30.579,0,0,1,5.644,1.915c4.231,1.609,6.319,4.76,6.734,9.23a60.2,60.2,0,0,1-.819,17.255,5.08,5.08,0,0,1-3.568,4.135,29.194,29.194,0,0,1-17.633.528,8.181,8.181,0,0,1-4.926-4.093c-5.247-9.245-7.1-19.141-4.719-29.534,1.374-5.985,4.861-9.457,11.674-10.557A26.506,26.506,0,0,1-1621.793,1027.59Z" transform="translate(1638.171 -1021.84)" fill="#084184"/>
      <path id="パス_22" data-name="パス 22" d="M-1563.966,1030.253c-.677,8.656-1.334,17.074-2.006,25.682a1.442,1.442,0,0,1-1.374,1.328c-3.253.137-6.307.312-9.778.443a47.061,47.061,0,0,0,.61-4.844c.318-6.819-.01-7.435-.622-12.368-.51-4.111-1.465-6.915-4.7-8.779-1.931-1.112-3.976-2.025-6.037-3.061l7.066-3.574a.281.281,0,0,0,.141-.338l0-.013a.894.894,0,0,0-1.246-.522c-1.372.68-2.743,1.364-4.126,2.021a13.431,13.431,0,0,1-1.86.713c-3.627,1.1-4.106,1.262-5.508-1.175a6.39,6.39,0,0,1,1.127-7.817,17.483,17.483,0,0,1,12.264-5.212c4.664-.179,7.338,2.827,9.275,6.609a19.438,19.438,0,0,1,1.73,4.481c.609,2.691,1.748,4.785,4.363,5.48A.911.911,0,0,1-1563.966,1030.253Z" transform="translate(1611.205 -1012.729)" fill="#084184"/>
      <path id="パス_23" data-name="パス 23" d="M-1509.8,1063.65c-1.375-.061-2.085.489-2.174,1.209-.7,5.663-1.374,11.113-2.052,16.562-.071.573-.242,1.138-.269,1.711-.072,1.532.222,1.9-2.239,1.8a.552.552,0,0,1-.526-.605q1.241-12.761,2.5-25.727a.437.437,0,0,1,.487-.391c3.842.469,7.629.826,11.37,1.461,2.507.426,3.981,2.5,4.07,5.622q.192,6.729-.031,13.47c-.1,3.073-.683,6.741-3.627,5.8.156-6.01.309-11.884.464-17.9.04-1.521-.616-2.912-2.678-2.839C-1506.517,1063.894-1507.782,1063.74-1509.8,1063.65Z" transform="translate(1563.785 -1040.661)" fill="#084184"/>
      <path id="パス_24" data-name="パス 24" d="M-1502.464,1076.438l5.09.318a1.332,1.332,0,0,1,1.18,1.386c-.1,4.481-.2,8.835-.3,13.189-.018.8-.043,1.6-.063,2.4-.069,2.722-.069,2.768-2.544,2.647-2.03-.1-4.06-.322-6.249-.5.6-6.122,1.2-12.173,1.813-18.453A1.037,1.037,0,0,1-1502.464,1076.438Z" transform="translate(1556.591 -1051.858)" fill="#084184"/>
    </g>
  </g>
</svg>
