<svg xmlns="http://www.w3.org/2000/svg" xmlns:xlink="http://www.w3.org/1999/xlink" width="207.233" height="145.343" viewBox="0 0 207.233 145.343">
  <defs>
    <filter id="パス_483" x="38.996" y="3.857" width="133.204" height="130.704" filterUnits="userSpaceOnUse">
      <feOffset dx="3" dy="3" input="SourceAlpha"/>
      <feGaussianBlur stdDeviation="3" result="blur"/>
      <feFlood flood-opacity="0.467"/>
      <feComposite operator="in" in2="blur"/>
      <feComposite in="SourceGraphic"/>
    </filter>
    <filter id="パス_484" x="93.016" y="34.65" width="68.821" height="78.977" filterUnits="userSpaceOnUse">
      <feOffset dx="3" dy="3" input="SourceAlpha"/>
      <feGaussianBlur stdDeviation="3" result="blur-2"/>
      <feFlood flood-opacity="0.565"/>
      <feComposite operator="in" in2="blur-2"/>
      <feComposite in="SourceGraphic"/>
    </filter>
    <filter id="パス_485" x="35.046" y="35.551" width="86.759" height="77.062" filterUnits="userSpaceOnUse">
      <feOffset dx="3" dy="3" input="SourceAlpha"/>
      <feGaussianBlur stdDeviation="3" result="blur-3"/>
      <feFlood/>
      <feComposite operator="in" in2="blur-3"/>
      <feComposite in="SourceGraphic"/>
    </filter>
    <filter id="パス_486" x="93.751" y="36.102" width="63.863" height="72.98" filterUnits="userSpaceOnUse">
      <feOffset dy="3" input="SourceAlpha"/>
      <feGaussianBlur stdDeviation="3" result="blur-4"/>
      <feFlood flood-opacity="0.325"/>
      <feComposite operator="in" in2="blur-4"/>
      <feComposite in="SourceGraphic"/>
    </filter>
    <filter id="パス_487" x="36.551" y="36.964" width="80.029" height="71.256" filterUnits="userSpaceOnUse">
      <feOffset dy="3" input="SourceAlpha"/>
      <feGaussianBlur stdDeviation="3" result="blur-5"/>
      <feFlood flood-opacity="0.302"/>
      <feComposite operator="in" in2="blur-5"/>
      <feComposite in="SourceGraphic"/>
    </filter>
    <filter id="パス_489" x="143.453" y="0" width="63.78" height="47.455" filterUnits="userSpaceOnUse">
      <feOffset dy="3" input="SourceAlpha"/>
      <feGaussianBlur stdDeviation="3" result="blur-6"/>
      <feFlood/>
      <feComposite operator="in" in2="blur-6"/>
      <feComposite in="SourceGraphic"/>
    </filter>
    <filter id="パス_490" x="0" y="87.359" width="59.009" height="57.984" filterUnits="userSpaceOnUse">
      <feOffset dy="3" input="SourceAlpha"/>
      <feGaussianBlur stdDeviation="3" result="blur-7"/>
      <feFlood/>
      <feComposite operator="in" in2="blur-7"/>
      <feComposite in="SourceGraphic"/>
    </filter>
  </defs>
  <g id="グループ_572" data-name="グループ 572" transform="translate(-814.991 -1403.508)">
    <g id="グループ_571" data-name="グループ 571" transform="translate(856.735 1413.864)">
      <g id="グループ_553" data-name="グループ 553" transform="translate(7.085 3.335)">
        <path id="パス_488" data-name="パス 488" d="M53.769,0c29.7,0,53.769,23.512,53.769,52.517s-24.073,52.517-53.769,52.517S0,81.521,0,52.517,24.073,0,53.769,0Z" fill="#e04646" stroke="#f7ae2c" stroke-width="1"/>
      </g>
      <g id="グループ_556" data-name="グループ 556" transform="translate(3.752 0)">
        <g id="グループ_555" data-name="グループ 555" transform="translate(0 0)">
          <g id="グループ_554" data-name="グループ 554">
            <g transform="matrix(1, 0, 0, 1, -45.5, -10.36)" filter="url(#パス_483)">
              <path id="パス_483-2" data-name="パス 483" d="M370.865,314.836c-31.487,0-57.1-25.057-57.1-55.853h6.669c0,27.12,22.624,49.182,50.434,49.182S421.3,286.1,421.3,258.983,398.673,209.8,370.865,209.8a50.507,50.507,0,0,0-40.3,19.606l-5.275-4.078a57.128,57.128,0,0,1,45.575-22.2c31.484,0,57.1,25.055,57.1,55.851S402.349,314.836,370.865,314.836Z" transform="translate(-268.27 -192.78)" fill="#fcc015" stroke="#f7ae2c" stroke-width="1"/>
            </g>
          </g>
        </g>
      </g>
      <g id="グループ_563" data-name="グループ 563" transform="translate(0 30.793)">
        <g id="グループ_562" data-name="グループ 562" transform="translate(0 0)">
          <g id="グループ_561" data-name="グループ 561">
            <g id="グループ_559" data-name="グループ 559" transform="translate(57.853)">
              <g id="グループ_558" data-name="グループ 558">
                <g id="グループ_557" data-name="グループ 557">
                  <g transform="matrix(1, 0, 0, 1, -99.6, -41.15)" filter="url(#パス_484)">
                    <path id="パス_484-2" data-name="パス 484" d="M413.756,265.662a16.8,16.8,0,0,1,2.277,8.927,18.294,18.294,0,0,1-6.187,14.047c-4.068,3.709-9.886,5.591-17.289,5.591-6.31,0-11.646-1.491-15.872-4.441-4.293-2.993-6.994-7.529-8.028-13.488l-.224-1.276,14.313-1.96.248,1.126c1.086,4.893,4.377,7.277,10.054,7.277a9.107,9.107,0,0,0,5.769-1.55,4.442,4.442,0,0,0,1.818-3.651,3.189,3.189,0,0,0-1.2-2.851c-.709-.483-2.611-1.358-7.653-2.732a43.9,43.9,0,0,1-9.4-3.453,15.15,15.15,0,0,1-5.883-5.643,15.846,15.846,0,0,1-2.2-8.312,18.342,18.342,0,0,1,5.7-13.278c3.777-3.81,9.02-5.744,15.581-5.744,11.295,0,18.708,5.185,22.023,15.4l.427,1.292-13.887,3.226-.328-1.142c-1.158-4.1-3.787-6.012-8.278-6.012a7.442,7.442,0,0,0-4.769,1.385,3.793,3.793,0,0,0-1.591,3.051,2.906,2.906,0,0,0,1.159,2.569c.668.491,2.241,1.276,5.952,2.2a58.925,58.925,0,0,1,10.946,3.684A15.348,15.348,0,0,1,413.756,265.662Z" transform="translate(-268.84 -193.1)" fill="#fcc015" stroke="#f7ae2c" stroke-width="1"/>
                  </g>
                </g>
              </g>
            </g>
            <g id="グループ_560" data-name="グループ 560" transform="translate(0 0.901)">
              <g transform="matrix(1, 0, 0, 1, -41.74, -42.05)" filter="url(#パス_485)">
                <path id="パス_485-2" data-name="パス 485" d="M377.251,235.16,350.6,293.222H335.263l-6.8-46.25H314l-4.026-11.812h32.093l1.526,11.812L347,273.289l16.438-38.129Z" transform="translate(-268.23 -193.11)" fill="#fcc015" stroke="#f7ae2c" stroke-width="1"/>
              </g>
            </g>
          </g>
        </g>
      </g>
      <g id="グループ_570" data-name="グループ 570" transform="translate(4.505 32.245)">
        <g id="グループ_569" data-name="グループ 569" transform="translate(0 0)">
          <g id="グループ_568" data-name="グループ 568">
            <g id="グループ_566" data-name="グループ 566" transform="translate(57.084)">
              <g id="グループ_565" data-name="グループ 565">
                <g id="グループ_564" data-name="グループ 564">
                  <g transform="matrix(1, 0, 0, 1, -103.33, -42.6)" filter="url(#パス_486)">
                    <path id="パス_486-2" data-name="パス 486" d="M413,263.987a15.112,15.112,0,0,1,2.048,8.034,16.469,16.469,0,0,1-5.566,12.643c-3.662,3.338-8.9,5.033-15.559,5.033-5.682,0-10.483-1.344-14.287-4-3.863-2.695-6.295-6.777-7.225-12.14l-.2-1.147,12.883-1.764.224,1.013c.977,4.4,3.939,6.549,9.049,6.549a8.191,8.191,0,0,0,5.191-1.4,3.993,3.993,0,0,0,1.637-3.285,2.866,2.866,0,0,0-1.081-2.565c-.637-.434-2.35-1.222-6.888-2.459a39.514,39.514,0,0,1-8.464-3.107,13.669,13.669,0,0,1-5.3-5.079,14.266,14.266,0,0,1-1.98-7.481,16.51,16.51,0,0,1,5.132-11.951c3.4-3.428,8.117-5.169,14.021-5.169,10.167,0,16.836,4.666,19.821,13.858l.385,1.163-12.5,2.9-.292-1.027c-1.044-3.692-3.408-5.41-7.451-5.41a6.7,6.7,0,0,0-4.293,1.247,3.412,3.412,0,0,0-1.432,2.744,2.612,2.612,0,0,0,1.044,2.312c.6.442,2.017,1.148,5.357,1.981a52.931,52.931,0,0,1,9.85,3.315A13.811,13.811,0,0,1,413,263.987Z" transform="translate(-268.88 -193.12)" fill="#fff" stroke="#f7ae2c" stroke-width="1"/>
                  </g>
                </g>
              </g>
            </g>
            <g id="グループ_567" data-name="グループ 567" transform="translate(0 0.862)">
              <g transform="matrix(1, 0, 0, 1, -46.25, -43.46)" filter="url(#パス_487)">
                <path id="パス_487-2" data-name="パス 487" d="M375.074,236.588l-23.985,52.256h-13.8l-6.123-41.624H318.145l-3.622-10.632h28.883l1.372,10.632,3.069,23.684,14.8-34.316Z" transform="translate(-268.27 -193.12)" fill="#fff" stroke="#f7ae2c" stroke-width="1"/>
              </g>
            </g>
          </g>
        </g>
      </g>
    </g>
    <g transform="matrix(1, 0, 0, 1, 814.99, 1403.51)" filter="url(#パス_489)">
      <path id="パス_489-2" data-name="パス 489" d="M490.744,758.371,512.726,749l-1.333-5.5,23.943-4.216-15.618,9.176,1.877,7.292-20.134,11.881Z" transform="translate(-337.36 -732.79)" fill="#fcc015" stroke="#f7ae2c" stroke-width="1"/>
    </g>
    <g transform="matrix(1, 0, 0, 1, 814.99, 1403.51)" filter="url(#パス_490)">
      <path id="パス_490-2" data-name="パス 490" d="M369.757,833.11l-17.064,19.067-4.935-3.409-12.686,22.994,14.6-12.613,6.509,4.635,18.873-16.239Z" transform="translate(-325.63 -738.8)" fill="#fcc015" stroke="#f7ae2c" stroke-width="1"/>
    </g>
  </g>
</svg>
