<svg xmlns="http://www.w3.org/2000/svg" xmlns:xlink="http://www.w3.org/1999/xlink" width="111.755" height="318.919" viewBox="0 0 111.755 318.919">
  <defs>
    <filter id="パス_503" x="0" y="0" width="111.755" height="318.919" filterUnits="userSpaceOnUse">
      <feOffset dx="-3" dy="3" input="SourceAlpha"/>
      <feGaussianBlur stdDeviation="3" result="blur"/>
      <feFlood flood-opacity="0.635"/>
      <feComposite operator="in" in2="blur"/>
      <feComposite in="SourceGraphic"/>
    </filter>
  </defs>
  <g id="グループ_597" data-name="グループ 597" transform="matrix(0.996, 0.087, -0.087, 0.996, 432.439, 238.348)">
    <g transform="matrix(1, -0.09, 0.09, 1, -451.57, -199.75)" filter="url(#パス_503)">
      <path id="パス_503-2" data-name="パス 503" d="M-373.408,97.457c-.9-2.382.124-4.627.7-6.921.18-.714.134-1.49,1.373-1.746,2.595-.535,2.9-1.9,2.9-3.37a6.042,6.042,0,0,1,1.28-3.123c.9-1.431,2.414-3.671,1.5-4.447-2.9-2.472-1.209-4.536-.192-6.844.888-2.02,1.944-3.966,1.954-6.215a9.581,9.581,0,0,0-1.267-4.114c-.8-1.769-.305-3.816-1.264-5.521s.027-4.084-3.667-5.013c-1.165-.292-2.247-4.872-1.321-5.305,4.029-1.889,2.74-5.459,5.74-7.672,1.245-.919,2.1-2.1.716-3.39-.29-.27-.225-.56.2-.822,3.194-1.96,1.918-3.578-1.034-4.922-4.174-1.9-4.042-4.7-3.324-7.424.521-1.972,2.491-3.73,1.974-5.92-.183-.771.394-1.527,2.012-1.567,1.792-.045,1.79-.757,1.2-1.634-.294-.44-.516-.962.074-1.324,3.777-2.313,1.489-4.691.031-6.951-.931-1.443-2.324-2.686-1.2-4.391.394-.6.494-1.792-.348-1.986-3.982-.916-2.288-3-2.3-4.642-.011-1.127.271-2.99,1.233-3.263,4.427-1.252,2.4-3.493,2.42-5.4.033-2.561-.482-5-4.175-6.543-.272-.114-.194-.588-.293-.893-.735-2.256-.491-4.74-3.7-6.4a.93.93,0,0,1-.116-1.719c3.091-1.811,2.864-4.845,6.4-6.7,3.514-1.843,3-5.579,5.907-7.972.241-.2.093-.612.1-.926a3.141,3.141,0,0,1,1.582-2.713c2.011-1.427,1.352-2.312-1.548-2.837a2.411,2.411,0,0,1-2.086-1.454c-.241-1.026-1.42-1.168-2.513-1.4-3.144-.68-5.021-2.39-4.517-4.457.187-.771.368-1.351-.723-1.842-1.2-.538-1.09-1.5-1.618-2.242-1.428-2.01.789-4.238-1.06-6.146-2.022-2.087-1.6-4.233.614-5.908,4-3.029,4.93-7.017,7.956-10.369a22.466,22.466,0,0,0,4.782-7.415c.559-1.721,5.271-4.048.058-5.967-.206-.076-.219-.634-.041-.878,1.239-1.713-.28-2.663-2.148-3.5-.712-.32-1.639-.657-1.286-1.246.88-1.471-.809-1.9-2.012-2.619-.924-.553-2.591-1-2.254-1.957.5-1.417-.956-2.168-1.73-3.181-1.256-1.646-3.865-3.01-4.4-4.552-.912-2.609,1.664-5.131,3.322-7.5a9.608,9.608,0,0,1,5.169-4.147,2.989,2.989,0,0,0,1.992-3.551c-.655-1.82-.046-3.81.367-5.424.94-3.673,2.3-7.277,2.138-11.046-.016-.366.11-.934.471-1.077,3.949-1.574,1.782-4.113,2.28-6.217.135-.573-.368-1.126-1.237-1.3-2.165-.44-4.994-1.619-6.112-1.529-3.065.248-4.013-2.645-6.986-1.587-.011,0-.483-.371-.472-.562.085-1.421-1.261-1.552-2.96-1.7-2.289-.2-3.916-.7-3.084-2.795.627-1.577.435-3.252,2.5-4.489,1.041-.622.219-1.173-.328-1.832-.9-1.093-1.06-2.381.99-3.031,1.765-.559,1.551-1.245,1.642-2.37.115-1.417,1.565-2.757-1.409-3.6-.18-.05.047-.713.066-1.092a8.284,8.284,0,0,0-.962-4.8c-1.541-2.316-4.243-6.621-4.243-6.621l-11.583,1.013-4.231.37-3.4.3-5.771.5c-.458,1.819.869.489.206,2.354-.428,1.205-1.593,1.83-2.379,2.717-1.938,2.191-2.746,4.672-4.259,6.97a2.25,2.25,0,0,1-1.694.985c-1.667.343-2.181,1.347-1.724,2.257.616,1.222-.153,1.652-1.408,2.444-3.744,2.364-2.848,5.456-2.269,8.434a3.283,3.283,0,0,0,1.527-.285,3.283,3.283,0,0,1-1.527.285c-.453,1.063-4.051,1.173-2.051,2.978.4,1.131-2.226,1.917-.819,3.163l-.038,1.447c-2.872,1.046-.253,2.688-.893,4.077s-.649,2.973-1.442,4.413c-.871,1.58.288,2.3,2.341,3.069a16.435,16.435,0,0,1,5.282,3.152,38.442,38.442,0,0,0,7.584,5.29,4.721,4.721,0,0,1,2.365,5.856c-.579,2.128.724,3.987.3,6.006-.8,3.832,2.006,7.379,2.517,11.156.271,2,1.929,4.056,2.658,6.151.184.529.866,1.3.564,1.536-2.3,1.808-.261,4.078-1.609,5.95-.1.141-.272.313-.225.441,1.282,3.458-2.11,6.431-2.27,9.706-.087,1.8-2.588,2.8-2.628,4.514-.072,3.174-2.544,5.838-4.386,8.61-2.68,4.034-1.862,8.054-.131,12.032a19.39,19.39,0,0,1,1.253,5.49c.1.745-.471,1.492.468,2.2.5.374.413,1.253-.03,1.248-2.1-.026-3.484,1.109-5.221,1.324-2.57.319-4.763.785-6.206,2.272-1.222,1.257-.838,2.133.594,3.485,1.482,1.4,1.774,3.565,1.779,5.4.014,3.871,2.217,7.393,3.405,11.071a10.6,10.6,0,0,1,.394,2.789c.09,1.612-.279,3.213,1.919,4.539,1.061.641.9,1.879.934,2.923a11.13,11.13,0,0,0,2.31,6.415c.052.07.2.166.165.2-2.149,2.392,1.7,4.719.172,7.094a2.367,2.367,0,0,0-.164,2.736A1.239,1.239,0,0,1-409.9-5.77c-5.336,1.83-3.461,5.671-5.487,8.4-.2.272-.1.823-.331.877-3.409.8-1.674,2.807-2.338,4.241-.581,1.253.181,1.958,1.992,2.275h0c.6.347,1.381.61,1.352,1.256-.187,1.4,1.491,2.248,2.3,3.342.685.92,1.546,1.673,1.009,2.821-.658,1.407,1.648,1.509,2.618,2.153,1.9,1.259,3.9,2.325.05,3.591-.661.217-1.431.64-1.266,1.295.688,2.7-1.752,4.6-3.235,6.875-1.211,1.855-3.245,3.647-3.668,5.779a1.57,1.57,0,0,1-.663,1.063c-2.3,1.336-1.99,2.993-1.478,4.7h0c-2.784.343-1.932,1.775-2,2.934a14.494,14.494,0,0,0-.324,8.386,14.051,14.051,0,0,1,.016,4.756,3.97,3.97,0,0,0,.929,3.3h0c-.142,1.305,1.113,2.215,2.067,3.21a1.453,1.453,0,0,0,1.48,1.153c3.849-.71,4.4,1.685,6.134,2.844a14.785,14.785,0,0,0,2.911,1.633c2.828,1.107,4.7,3.774,4.111,5.866-.154.55-.469,1.118.042,1.588,1.952,1.791.257,3.017-.97,4.607-1.334,1.727-2.349,3.938-1.941,5.788.51,2.321.562,4.785,2.272,7.013,1.195,1.555-.756,3-1.157,4.509h13.516l-.011-3.3h0q0,1.648.011,3.3h17.075C-373.786,99.6-372.985,98.576-373.408,97.457Zm-9.311-279.692a3.91,3.91,0,0,1-.668.043,3.91,3.91,0,0,0,.668-.043Zm0-3.325h0a2.242,2.242,0,0,1,.009-1.061A2.242,2.242,0,0,0-382.72-185.561Zm-.065-2.116a.994.994,0,0,1,.118.395A.994.994,0,0,0-382.784-187.676Zm-14.134,2.123h0a5.211,5.211,0,0,0-.009-1.192,5.211,5.211,0,0,1,.009,1.192h0Zm14.227.01c.286,0,.573,0,.861,0-.288,0-.575,0-.861,0v3.288h0Zm-9.254,3.288v0Zm-4.991,0v-3.285a7.3,7.3,0,0,1-1.334.02c.466.023,1.334,2.171,1.334,3.266h0c-.679-.061-1.472.016-2.19.009C-398.409-182.24-397.617-182.316-396.937-182.255Zm.019.013h0a2.638,2.638,0,0,1,.027.514A2.638,2.638,0,0,0-396.918-182.243Zm.1,1.822Zm2.355,10.931-2.456,0h0Zm2.529-3.305Zm-4.983-.019h0c.1-.508-.055-1.109,0-1.628-.054.519.1,1.121,0,1.628h0Zm-.025,3.3V-172.8c-.583,0-1.165.008-1.748.01.582,0,1.165-.007,1.748-.01v3.284Zm-14.228.018c-.017.329.017.674.027,1.006Zm28.485,12.731h4.952C-379.385-156.765-382.62-157.019-382.686-156.765Zm-15.36-6.154Zm1.127,2.85q0-1.41,0-2.82,0,1.41,0,2.82Zm-14.228,3.3q-.009-1.645-.02-3.291h0q.009,1.646.02,3.291Zm26.159-.019a4.425,4.425,0,0,0-.631.028A4.425,4.425,0,0,1-384.988-156.785Zm2.269.039h0a4.03,4.03,0,0,1-.584.041A4.03,4.03,0,0,0-382.72-156.746Zm5.013,0h0a4.108,4.108,0,0,1-.049,1.5A4.108,4.108,0,0,0-377.707-156.746Zm-19.241,9.44h0l-2.267-.031A13.708,13.708,0,0,0-396.948-147.306Zm5.013,0h0l.057.242A1.04,1.04,0,0,0-391.935-147.306Zm14.2,0a2.639,2.639,0,0,1-.263.03c.09-.007.178-.016.263-.03Zm-.014-4.008Zm-13.088.654Zm-18.03.065a3.632,3.632,0,0,0,.919-.08A3.632,3.632,0,0,1-408.872-150.6Zm-2.27-.037a10.075,10.075,0,0,1,1.937.024,10.075,10.075,0,0,0-1.937-.024Zm-.028,3.305v-3.284h0v3.284h0a10.21,10.21,0,0,0-1.751,0A10.21,10.21,0,0,1-411.171-147.327Zm.028.021h0a2.128,2.128,0,0,1,.009,1.036A2.128,2.128,0,0,0-411.143-147.306Zm14.123,7.3a.946.946,0,0,1,.115.4A.946.946,0,0,0-397.02-140Zm19.28,5.441a6.557,6.557,0,0,1-1.414.009,6.557,6.557,0,0,0,1.414-.009Zm2.892-3.2a21.91,21.91,0,0,0-2.864-.1v3.287h0v-3.287h0A21.91,21.91,0,0,1-374.847-137.765Zm-2.889-1.041c0,.307,0,.614,0,.922h0C-377.736-138.193-377.74-138.5-377.736-138.807Zm-19.211.918Zm5.013,0h0a7.893,7.893,0,0,1,1.675.007A7.893,7.893,0,0,0-391.935-137.889Zm-5.945,3.364Zm5.977.778Zm-.031,8.6a7.2,7.2,0,0,1,1.56,0,7.2,7.2,0,0,0-1.56,0Zm-.033.02h0a1.92,1.92,0,0,0-.024.963A1.92,1.92,0,0,1-391.968-125.125Zm14.233,12.728h0c-.69-.008-1.381,0-2.067-.014C-379.116-112.392-378.425-112.4-377.735-112.4Zm-14.2,0a13.7,13.7,0,0,1,2.267.03,13.7,13.7,0,0,0-2.267-.03Zm-.028.02h0c-.008.3,0,.607,0,.911C-391.963-111.774-391.971-112.078-391.963-112.381Zm14.256,0h0a2.164,2.164,0,0,1,0,1.058A2.164,2.164,0,0,0-377.707-112.377Zm0,9.418a4.681,4.681,0,0,1,.934-.039,4.681,4.681,0,0,0-.934.039Zm-1.62,3.3c.537-.005,1.089-.034,1.592,0v-3.287h0v3.287h0C-378.237-99.691-378.79-99.662-379.327-99.656Zm1.62.023h0a1.022,1.022,0,0,1,.06.259A1.022,1.022,0,0,0-377.707-99.633Zm-.041,1.719a.9.9,0,0,0,.246.57A.9.9,0,0,1-377.748-97.914Zm-2.528,20.464c-.8-.013-1.611,0-2.415,0h0C-381.887-77.453-381.081-77.463-380.276-77.451Zm-2.444-.021h0a1.974,1.974,0,0,1-.011-.937A1.974,1.974,0,0,0-382.72-77.471Zm-9.243-12.741h0Zm14.256,0h0a3.432,3.432,0,0,1,.452-.042A3.432,3.432,0,0,0-377.707-90.216Zm-19.208,0a2.411,2.411,0,0,0,0-1.189,2.411,2.411,0,0,1,0,1.189Zm19.18.016v3.284h0c-.241-.042-.482-.089-.721-.134.239.045.48.091.721.134V-90.2Zm-14.2,0c0,.539,0,1.078.009,1.617,0-.539-.006-1.078-.009-1.617Zm-5,0h0a3.588,3.588,0,0,1-.449.045A3.4,3.4,0,0,0-396.943-90.195Zm0,3.285v0Zm.024.017c.584,0,1.17-.014,1.754-.005-.584-.008-1.17,0-1.754.005Zm19.213,0h0a2.165,2.165,0,0,1,0,1.058A2.165,2.165,0,0,0-377.707-86.889Zm-.047,1.5a1.317,1.317,0,0,0,.041.419A1.317,1.317,0,0,1-377.754-85.384Zm-19.164,7.916h0c.063-.7-.126-1.53.264-2.1-.39.573-.2,1.4-.264,2.1h0Zm-1.965,0a9.716,9.716,0,0,0,1.935.019h0A9.716,9.716,0,0,1-398.883-77.467Zm6.948.019h0a2.136,2.136,0,0,1,0,1.037A2.136,2.136,0,0,0-391.935-77.448Zm-.052,1.506a1.115,1.115,0,0,0,.12.61A1.115,1.115,0,0,1-391.987-75.943Zm-.57,4.185a2.494,2.494,0,0,1-1.074.369A2.5,2.5,0,0,0-392.557-71.758ZM-390-68.009a9.635,9.635,0,0,0-1.933-.022h0A9.717,9.717,0,0,1-390-68.009Zm-6.946-.022a2.376,2.376,0,0,1,.013-1.122,2.376,2.376,0,0,0-.013,1.122Zm.3,2.5c.438.8,1.6.807,4.684.81v-3.288h0v3.288h0C-395.049-64.727-396.209-64.732-396.647-65.535Zm4.774,1.125a1.084,1.084,0,0,0-.061-.295h0a1.084,1.084,0,0,1,.061.295,5.321,5.321,0,0,1-.093.968A5.321,5.321,0,0,0-391.873-64.41Zm-5.315,6.8a.9.9,0,0,1,.269.572A.9.9,0,0,0-397.189-57.608Zm5.254,2.322h0a5.07,5.07,0,0,1,1.056-.033A5.143,5.143,0,0,0-391.935-55.287Zm14.2,0h0a1.373,1.373,0,0,1-.061-.614A1.4,1.4,0,0,0-377.74-55.287Zm-19.208,0a1.561,1.561,0,0,1-.054-.7,1.561,1.561,0,0,0,.054.7Zm19.236.019v3.287h0v-3.287h0c.677.021,1.431-.025,2.118-.008C-376.28-55.293-377.034-55.247-377.711-55.268Zm-19.208,3.289h0v-3.289h4.956v3.289h-4.956Zm18.5.013c.227,0,.455,0,.682,0h0C-377.962-51.963-378.19-51.964-378.417-51.967Zm-18.531.006h0a4.372,4.372,0,0,1-.76.041A4.363,4.363,0,0,0-396.948-51.96Zm-3.185.048a1.488,1.488,0,0,0-.5.216A1.488,1.488,0,0,1-400.133-51.912Zm8.2-.048h0a2.22,2.22,0,0,1,0,1.081A2.22,2.22,0,0,0-391.935-51.96Zm19.2,9.42h0c.257-.014.516-.02.776-.026C-372.215-42.56-372.475-42.554-372.731-42.54Zm-19.2,0h0a5.592,5.592,0,0,1,1.228-.026A5.592,5.592,0,0,0-391.935-42.542Zm14.2,0h0a1.128,1.128,0,0,1-.068-.393A1.128,1.128,0,0,0-377.74-42.542Zm.047-1.515a1.3,1.3,0,0,0-.043-.409A1.3,1.3,0,0,1-377.692-44.058Zm-19.251,1.518c0-.54-.011-1.079-.014-1.618,0,.539.009,1.078.014,1.618Zm-14.233.019h0a1.579,1.579,0,0,0-.049.738A1.579,1.579,0,0,1-411.176-42.521Zm19.213,0h0a11.721,11.721,0,0,1-.047,1.816A11.721,11.721,0,0,0-391.963-42.524Zm-19.172,1.535a1.107,1.107,0,0,1-.134.615A1.107,1.107,0,0,0-411.135-40.988Zm18.91.741a1.2,1.2,0,0,1-.414.335A1.2,1.2,0,0,0-392.224-40.247Zm14.513,1.012h0v-3.289h4.956v3.289h-4.956Zm-.024.016h0c-.69,0-1.381-.01-2.07,0C-379.116-39.23-378.425-39.215-377.735-39.219Zm5.007,0h0a2.792,2.792,0,0,1,.039.438A3,3,0,0,0-372.728-39.216ZM-382.72-33.1a2.2,2.2,0,0,1,.008-1.037,2.222,2.222,0,0,0-.008,1.037Zm-9.243,0h0c-.581,0-1.16,0-1.741.006C-393.123-33.1-392.544-33.1-391.963-33.1Zm9.272.02a10.8,10.8,0,0,0,2.41-.045,10.8,10.8,0,0,1-2.41.045Zm-9.248,0h0v0Zm-5.008,3.281a1.624,1.624,0,0,1-.039-.782,1.643,1.643,0,0,0,.039.782Zm5.008,0c.576,0,1.151,0,1.727,0-.576.005-1.151,0-1.727,0Zm-4.978.016Zm4.952,0h0a1.914,1.914,0,0,0-.039.761A1.914,1.914,0,0,1-391.966-29.78Zm14.26,12.748a2.8,2.8,0,0,1-.027,1.264,2.8,2.8,0,0,0,.027-1.264Zm-5.013,0a5.811,5.811,0,0,1-1.228.021,5.739,5.739,0,0,0,1.228-.022Zm-14.2-3.319h0c.132-.679-.192-1.524.14-2.118-.332.594-.008,1.439-.14,2.118h0Zm19.2,0h0c.225,0,.449.007.674.01C-377.264-20.347-377.488-20.353-377.713-20.354Zm-19.224,3.3v-3.285a10.827,10.827,0,0,1-1.225.008,10.82,10.82,0,0,0,1.225-.009h0v3.285Zm8.771-.52a1.494,1.494,0,0,1-.436.284A1.494,1.494,0,0,0-388.165-17.572Zm-3.78.52c.5-.038,1.047-.009,1.582,0-.535-.006-1.083-.034-1.582,0Zm9.256,0h0a4.053,4.053,0,0,1,.718-2.357,4.053,4.053,0,0,0-.718,2.357h4.955v-3.291h0v3.291h-4.955Zm-9.277.011h0c-.244.749.375,1.772-.318,2.37C-391.591-15.267-392.21-16.291-391.966-17.04Zm14.225,9.448h0a9.873,9.873,0,0,1-1.935-.018A9.873,9.873,0,0,0-377.741-7.592Zm-.006-1.5a4.046,4.046,0,0,1,.041,1.482h0A4.046,4.046,0,0,0-377.748-9.1ZM-396.919-7.61h0c0-.191.008-.382.011-.573C-396.911-7.993-396.916-7.8-396.919-7.61Zm-2.3-.011a13.951,13.951,0,0,0,2.269.03h0A13.951,13.951,0,0,1-399.216-7.622Zm7.282.03h0a2.868,2.868,0,0,1-.031,1.283A2.868,2.868,0,0,0-391.935-7.592Zm-.033,14.015a2.86,2.86,0,0,0,.033-1.271h0A2.86,2.86,0,0,1-391.968,6.424Zm14.227-1.271a5.714,5.714,0,0,1-1.241.024,5.714,5.714,0,0,0,1.241-.024Zm-19.206,0a5.706,5.706,0,0,1-1.247.024,5.772,5.772,0,0,0,1.247-.024Zm19.241-.023h0a3.908,3.908,0,0,0-.046-1.486A3.908,3.908,0,0,1-377.707,5.13Zm-11.638-3.271a2.952,2.952,0,0,0,.6-.077A2.952,2.952,0,0,1-389.345,1.859Zm-2.59-.032h0a3.609,3.609,0,0,1,.532-.042A3.609,3.609,0,0,0-391.935,1.826Zm-5.013,0a2.141,2.141,0,0,1,0-1.057,2.141,2.141,0,0,0,0,1.057Zm.028,3.307h0V1.845h4.956V5.134h-4.956Zm-9.272.016h0V8.438h0Zm-4.958,3.29c0-.46.009-.855.027-1.195-.017.339-.022.735-.027,1.195Zm34.138,6.2a4.186,4.186,0,0,1-.7-.047v3.284h0V14.592h0A4.186,4.186,0,0,0-377.011,14.639Zm-.729-.069h0a1.224,1.224,0,0,1-.068-.5A1.224,1.224,0,0,0-377.74,14.57Zm-19.208,0a4.156,4.156,0,0,1,.05-1.507,4.156,4.156,0,0,0-.05,1.507Zm5.013,0a4.746,4.746,0,0,1,.907-.037,4.741,4.741,0,0,0-.907.037Zm2.592.032a9.2,9.2,0,0,1-.965-.027A9.2,9.2,0,0,0-389.343,14.6ZM-395.08,17.8c.72.076,1.722.079,3.117.083V14.589h0v3.289h0C-393.358,17.875-394.361,17.872-395.08,17.8Zm17.341.1h0c-.814,0-1.628,0-2.442,0C-379.368,17.891-378.554,17.893-377.74,17.893Zm-14.2,0h0a1.387,1.387,0,0,1,.057.6A1.387,1.387,0,0,0-391.935,17.9Zm14.223,9.438q.009.808.017,1.616-.007-.808-.017-1.616Zm-.03-.02h0c-1.156-.193-2.817.333-3.687-.264C-380.558,27.648-378.9,27.121-377.741,27.314Zm-14.193,0a4.662,4.662,0,0,1,.932-.04,4.662,4.662,0,0,0-.932.04Zm-1.859,3.226c.6.049,1.223.048,1.831.08V27.333h0v3.288h0C-392.571,30.588-393.193,30.59-393.794,30.54Zm1.859.1h0a1.449,1.449,0,0,1,.054.62A1.449,1.449,0,0,0-391.935,30.641Zm14.228,6.115a13.652,13.652,0,0,1,2.195.034,13.652,13.652,0,0,0-2.195-.034Zm-19.211.007h0Zm19.183.011c0,.227.006.452.009.679,0-.227-.009-.452-.009-.679ZM-398.2,40.053a11.1,11.1,0,0,1,1.267.007v0h0A10.855,10.855,0,0,0-398.2,40.053Zm6.258.009h0a17.61,17.61,0,0,0,2.842-.112,3.1,3.1,0,0,0,.636-.182,3.1,3.1,0,0,1-.636.182A17.724,17.724,0,0,1-391.946,40.063Zm-4.988,1.46a8.94,8.94,0,0,0,.016-1.45h4.952a5.558,5.558,0,0,0,.025,1.53,5.558,5.558,0,0,1-.025-1.53h-4.952A8.94,8.94,0,0,1-396.933,41.523Zm-.009,8c-.493.039-1.036.011-1.567.005.531.006,1.074.032,1.567-.005Zm.028-.017a1.74,1.74,0,0,0,.039-.81,1.74,1.74,0,0,1-.039.81Zm-19.211,0h0Zm-.025.016h0c0,.194.009.388.013.582C-416.141,49.907-416.148,49.712-416.151,49.518Zm5,3.288V49.518h0v3.288Zm14.2,0v0Zm-14.228.017h0l-2.437.007Zm19.2,0h0c-.164.516.072,1.16.009,1.705C-391.894,53.983-392.13,53.338-391.966,52.822Zm14.26,12.747a1.391,1.391,0,0,1,.06.618,1.391,1.391,0,0,0-.06-.618Zm-33.469-3.326a1.681,1.681,0,0,1-.039-.816,1.681,1.681,0,0,0,.039.816Zm14.258.007h4.953c-.09-.631.12-1.384-.156-1.951.276.567.066,1.32.156,1.951h-4.953Zm4.972,3.3V62.263h0c.638.056,1.373-.007,2.055-.01-.682,0-1.417.067-2.055.01Zm10.5-.29a2.147,2.147,0,0,0,.589.2A2.147,2.147,0,0,1-381.443,65.258Zm-29.7-3h0c.513.027,1.047.019,1.566.032C-410.1,62.282-410.634,62.29-411.147,62.263Zm10.942,2.961a9.866,9.866,0,0,0,3.269.326v0h0A9.871,9.871,0,0,1-400.205,65.224Zm22.47.326V62.263h0V65.55h0c-.642-.022-1.359.018-2.018.007C-379.094,65.568-378.377,65.528-377.735,65.55Zm-19.184.013h0c.028.4,0,.829.06,1.233C-396.916,66.392-396.889,65.959-396.919,65.562Zm23.6,7.353c-.113-.851-1.437-1.178-4.391-1.212V74.99h0V71.7h0C-374.758,71.738-373.434,72.064-373.32,72.916Zm-4.415-1.229c0-.463-.042-.927,0-1.389-.038.462,0,.926,0,1.389Zm-15.943,3.3c.571,0,1.143,0,1.715,0V71.7h0v3.289h0C-392.535,74.991-393.106,74.988-393.678,74.991Zm15.938.019a5.711,5.711,0,0,1-1.255.025,5.711,5.711,0,0,0,1.255-.025Zm-14.2,0h0a4.042,4.042,0,0,1-.052,1.492A4.076,4.076,0,0,0-391.935,75.011Zm-.028,9.437h0v3.288h-4.956a6.329,6.329,0,0,1,.257-2.423,6.329,6.329,0,0,0-.257,2.423h4.956Zm-6.916,3.288a9.925,9.925,0,0,0,1.932.019h0A10.012,10.012,0,0,1-398.879,87.735Zm6.945.02h0a2.141,2.141,0,0,1,0,1.057A2.16,2.16,0,0,0-391.935,87.755Z" transform="matrix(1, 0.09, -0.09, 1, 443.44, 237.35)" fill="#fff" stroke="#fff" stroke-width="1"/>
    </g>
     <path id="パス_504" data-name="パス 504" d="M-403.56-140.295h-3.148v3.149h3.148Z" transform="translate(10.568 2.452)" fill="#fff" stroke="#fff" stroke-width="1"/>
    <path id="パス_505" data-name="パス 505" d="M-406.708-152.5v3.149h3.148V-152.5Z" transform="translate(10.568)" fill="#fff" stroke="#fff" stroke-width="1"/>
    <path id="パス_506" data-name="パス 506" d="M-391.36-49h-3.148v3.149h3.148Z" transform="translate(18.134 6.546)" fill="#fff" stroke="#fff" stroke-width="1"/>
    <path id="パス_507" data-name="パス 507" d="M-403.56-61.2h-3.148v3.149h3.148Z" transform="translate(10.568 5.999)" fill="#fff" stroke="#fff" stroke-width="1"/>
    <path id="パス_508" data-name="パス 508" d="M-403.56-6.512h-3.148v3.149h3.148Z" transform="translate(10.568 8.451)" fill="#fff" stroke="#fff" stroke-width="1"/>
  </g>
</svg>
